<svg width="735" height="510" viewBox="0 0 735 510" fill="none" xmlns="http://www.w3.org/2000/svg">
<g clip-path="url(#clip0_17_1960)">
<path d="M529.972 219.198L504.871 195.976L530.119 172.618C521.26 169.867 511.653 169.984 502.876 172.95C494.098 175.917 486.672 181.555 481.815 188.941C476.958 196.327 474.96 205.021 476.148 213.596C477.335 222.171 481.639 230.118 488.352 236.132C495.066 242.146 503.789 245.87 513.091 246.692C522.394 247.515 531.722 245.387 539.544 240.658C547.367 235.929 553.22 228.88 556.141 220.668C559.063 212.456 558.88 203.569 555.623 195.466L529.972 219.198Z" fill="#00162C"/>
<path d="M555.954 194.038L529.972 218.076L506.084 195.976L531.809 172.176L530.486 171.768C526.147 170.439 521.606 169.762 517.036 169.762C510.116 169.766 503.303 171.349 497.202 174.371C491.101 177.393 485.9 181.76 482.059 187.085C478.219 192.411 475.857 198.531 475.183 204.903C474.51 211.275 475.545 217.702 478.198 223.615C480.851 229.529 485.039 234.745 490.392 238.803C495.744 242.861 502.096 245.635 508.884 246.88C515.672 248.124 522.688 247.8 529.308 245.937C535.929 244.074 541.951 240.729 546.84 236.198C552.515 230.916 556.44 224.244 558.152 216.967C559.865 209.69 559.293 202.112 556.505 195.126L555.954 194.038ZM545.554 235.11C540.866 239.489 535.081 242.729 528.714 244.541C522.346 246.353 515.593 246.681 509.056 245.496C502.518 244.311 496.399 241.649 491.241 237.748C486.084 233.846 482.049 228.826 479.494 223.134C476.94 217.442 475.946 211.253 476.6 205.12C477.255 198.986 479.537 193.097 483.245 187.977C486.953 182.857 491.972 178.663 497.854 175.77C503.736 172.877 510.3 171.374 516.962 171.394C520.882 171.404 524.78 171.93 528.538 172.958L503.659 195.976L529.972 220.32L555.256 196.928C557.618 203.499 557.962 210.549 556.249 217.29C554.536 224.032 550.833 230.201 545.554 235.11Z" fill="#00162C"/>
<path d="M485.891 217.802L371.551 323.585L392.886 343.324L507.225 237.54L485.891 217.802Z" fill="#00162C"/>
<path d="M370.954 323L370.33 323.544L392.894 344.42L507.848 238L508.436 237.422L485.908 216.58L370.954 323ZM393.004 342.176L372.865 323.544L486.019 218.892L506.121 237.49L393.004 342.176Z" fill="#00162C"/>
<path d="M213.685 125.199L179.029 168.09L392.283 315.578L426.939 272.688L213.685 125.199Z" fill="#FFAB00"/>
<path d="M213.481 124.1L177.797 168.3L391.755 316.2L392.453 316.676L428.137 272.476L214.179 124.576L213.481 124.1ZM392.086 314.5L180.075 167.926L213.701 126.31L425.565 272.85L392.086 314.5Z" fill="#00162C"/>
<path d="M223.612 131.91L215.183 142.339L216.566 143.296L224.996 132.867L223.612 131.91Z" fill="#00162C"/>
<path d="M231.725 137.566L223.307 148.002L224.691 148.958L233.109 138.521L231.725 137.566Z" fill="#00162C"/>
<path d="M239.923 143.185L223.984 162.896L225.368 163.853L241.306 144.142L239.923 143.185Z" fill="#00162C"/>
<path d="M248.67 149.259L240.24 159.688L241.624 160.645L250.053 150.217L248.67 149.259Z" fill="#00162C"/>
<path d="M256.841 154.905L248.41 165.333L249.793 166.29L258.224 155.863L256.841 154.905Z" fill="#00162C"/>
<path d="M265.003 160.551L249.047 180.249L250.429 181.207L266.385 161.509L265.003 160.551Z" fill="#00162C"/>
<path d="M273.746 166.618L265.328 177.055L266.713 178.01L275.13 167.574L273.746 166.618Z" fill="#00162C"/>
<path d="M281.925 172.229L273.494 182.656L274.877 183.613L283.308 173.186L281.925 172.229Z" fill="#00162C"/>
<path d="M290.073 177.891L274.161 197.619L275.545 198.575L291.457 178.846L290.073 177.891Z" fill="#00162C"/>
<path d="M298.86 183.978L290.444 194.416L291.829 195.371L300.244 184.933L298.86 183.978Z" fill="#00162C"/>
<path d="M306.984 189.625L298.567 200.062L299.951 201.017L308.369 190.581L306.984 189.625Z" fill="#00162C"/>
<path d="M315.151 195.265L299.239 214.993L300.623 215.949L316.536 196.22L315.151 195.265Z" fill="#00162C"/>
<path d="M323.932 201.318L315.514 211.755L316.898 212.711L325.316 202.274L323.932 201.318Z" fill="#00162C"/>
<path d="M332.118 206.973L323.701 217.41L325.085 218.365L333.503 207.929L332.118 206.973Z" fill="#00162C"/>
<path d="M340.222 212.591L324.31 232.32L325.694 233.276L341.606 213.547L340.222 212.591Z" fill="#00162C"/>
<path d="M349.033 218.643L340.592 229.064L341.974 230.022L350.415 219.602L349.033 218.643Z" fill="#00162C"/>
<path d="M357.189 224.3L348.771 234.736L350.156 235.692L358.573 225.255L357.189 224.3Z" fill="#00162C"/>
<path d="M365.328 229.915L349.416 249.643L350.8 250.599L366.712 230.87L365.328 229.915Z" fill="#00162C"/>
<path d="M374.113 236.022L365.674 246.444L367.056 247.402L375.496 236.98L374.113 236.022Z" fill="#00162C"/>
<path d="M382.237 241.648L373.805 252.075L375.188 253.032L383.62 242.605L382.237 241.648Z" fill="#00162C"/>
<path d="M390.41 247.269L374.457 266.969L375.839 267.928L391.792 248.227L390.41 247.269Z" fill="#00162C"/>
<path d="M399.194 253.36L390.763 263.787L392.146 264.744L400.578 254.317L399.194 253.36Z" fill="#00162C"/>
<path d="M407.357 258.972L398.918 269.394L400.3 270.352L408.74 259.93L407.357 258.972Z" fill="#00162C"/>
<path d="M415.51 264.671L399.58 284.387L400.963 285.344L416.894 265.628L415.51 264.671Z" fill="#00162C"/>
<path d="M320.35 85L303.335 60.724C303.06 60.3507 302.654 60.076 302.187 59.946C301.719 59.816 301.217 59.8384 300.765 60.0096C300.313 60.1809 299.939 60.4904 299.704 60.8866C299.469 61.2828 299.389 61.7415 299.476 62.186L305.87 90.236L373.821 253.436C373.98 253.829 374.222 254.188 374.532 254.494C374.842 254.799 375.215 255.044 375.629 255.215C376.043 255.386 376.489 255.479 376.942 255.489C377.395 255.499 377.846 255.425 378.268 255.272L386.316 252.382C386.742 252.232 387.131 252.005 387.462 251.714C387.792 251.424 388.057 251.076 388.242 250.69C388.426 250.305 388.526 249.889 388.536 249.468C388.546 249.046 388.466 248.627 388.301 248.234L320.35 85Z" fill="#220CB7"/>
<path d="M321.085 84.558L304.033 60.248C303.768 59.8942 303.419 59.6012 303.012 59.3915C302.606 59.1817 302.153 59.0607 301.689 59.0377C301.224 59.0147 300.76 59.0904 300.332 59.2589C299.904 59.4275 299.523 59.6844 299.219 60.01C298.936 60.3279 298.735 60.7017 298.633 61.1026C298.531 61.5035 298.53 61.9207 298.631 62.322L305.025 90.474L372.976 253.674C373.286 254.427 373.834 255.076 374.548 255.537C375.263 255.998 376.111 256.249 376.982 256.258C377.521 256.253 378.056 256.161 378.562 255.986L386.61 253.062C387.674 252.675 388.529 251.915 388.991 250.947C389.452 249.979 389.481 248.882 389.072 247.894L321.085 84.558ZM385.875 251.6L377.827 254.49C377.182 254.706 376.473 254.685 375.844 254.432C375.215 254.179 374.715 253.713 374.446 253.13L306.569 89.93L300.174 61.88C300.122 61.7169 300.115 61.5443 300.154 61.3781C300.192 61.2118 300.275 61.0571 300.395 60.928C300.523 60.7887 300.68 60.6748 300.857 60.593C301.033 60.5112 301.226 60.4633 301.424 60.452C301.631 60.4537 301.835 60.5045 302.015 60.5998C302.195 60.695 302.346 60.8315 302.453 60.996L319.725 85.272L387.676 248.472C387.788 248.787 387.831 249.119 387.801 249.449C387.77 249.779 387.668 250.1 387.5 250.393C387.331 250.685 387.1 250.943 386.821 251.151C386.542 251.358 386.22 251.511 385.875 251.6Z" fill="#00162C"/>
<path d="M341.702 176.494L354.785 207.876L369.264 202.674L356.181 171.258L341.702 176.494Z" fill="#00162C"/>
<path d="M340.599 176.052L354.27 208.896L370.366 203.116L356.695 170.238L340.599 176.052ZM355.299 206.856L342.804 176.8L355.703 172.176L368.161 202.062L355.299 206.856Z" fill="#00162C"/>
<path d="M342.51 138.414C342.132 137.51 341.382 136.781 340.425 136.386C339.469 135.991 338.382 135.962 337.402 136.306L330.272 138.89C329.295 139.24 328.507 139.933 328.08 140.819C327.653 141.704 327.622 142.71 327.994 143.616L333.617 157.046C333.8 157.496 334.078 157.909 334.435 158.259C334.791 158.609 335.22 158.891 335.695 159.087C336.17 159.283 336.682 159.39 337.203 159.401C337.723 159.413 338.24 159.329 338.725 159.154L345.818 156.57C346.795 156.22 347.583 155.527 348.01 154.641C348.436 153.756 348.467 152.75 348.096 151.844L342.51 138.414Z" fill="#EE005E"/>
<path d="M343.282 138.108C342.806 137.021 341.893 136.147 340.734 135.671C339.575 135.195 338.262 135.155 337.071 135.558L329.942 138.142C328.751 138.575 327.794 139.425 327.278 140.507C326.762 141.59 326.728 142.817 327.185 143.922L332.808 157.522C333.157 158.361 333.771 159.083 334.572 159.593C335.372 160.102 336.32 160.376 337.292 160.378C337.883 160.378 338.469 160.274 339.019 160.072L346.148 157.488C347.336 157.062 348.293 156.219 348.809 155.142C349.326 154.065 349.36 152.842 348.905 151.742L343.282 138.108ZM345.45 155.856L338.321 158.406C337.568 158.635 336.751 158.594 336.029 158.292C335.308 157.99 334.735 157.448 334.425 156.774L328.839 143.174C328.538 142.462 328.555 141.668 328.886 140.967C329.216 140.266 329.834 139.715 330.603 139.434L337.733 136.884C338.094 136.747 338.481 136.678 338.872 136.68C339.494 136.683 340.1 136.86 340.612 137.188C341.124 137.515 341.516 137.978 341.738 138.516L347.324 152.116C347.47 152.475 347.538 152.858 347.522 153.241C347.507 153.625 347.409 154.001 347.235 154.35C347.06 154.698 346.813 155.01 346.506 155.269C346.2 155.527 345.841 155.727 345.45 155.856Z" fill="#20171F"/>
<path d="M437.435 101.932L435.23 107.916L462.388 116.45L464.777 110.5L463.785 71.094L437.435 101.932Z" fill="white"/>
<path d="M464.079 70.312C463.909 70.2575 463.725 70.2544 463.553 70.3033C463.381 70.3522 463.231 70.4506 463.123 70.584L436.737 101.422C436.723 101.501 436.723 101.581 436.737 101.66L434.532 107.644C434.462 107.847 434.48 108.067 434.583 108.258C434.686 108.449 434.866 108.594 435.083 108.664L462.205 117.198H462.499C462.672 117.192 462.839 117.141 462.982 117.051C463.125 116.961 463.238 116.835 463.307 116.688L465.696 110.738C465.717 110.648 465.717 110.556 465.696 110.466L464.74 71.026C464.71 70.8629 464.632 70.7104 464.516 70.5847C464.4 70.459 464.249 70.3648 464.079 70.312ZM461.874 115.6L436.149 107.576L438.023 102.476L463.05 73.304L463.969 110.364L461.874 115.6Z" fill="#00162C"/>
<path d="M455.259 81.09L464.116 83.878L463.785 71.094L455.259 81.09Z" fill="#00162C"/>
<path d="M453.826 81.6L464.851 85L464.446 68.884L453.826 81.6ZM456.655 80.818L463.05 73.304L463.307 82.756L456.655 80.818Z" fill="#00162C"/>
<path d="M463.822 110.33L463.785 110.364L464.63 110.602L464.447 111.214L464.63 110.602L465.439 110.84H465.365H465.439L465.476 110.704L465.77 109.922L463.969 109.412L463.822 110.33Z" fill="#00162C"/>
<path d="M460.11 112.676C459.256 112.383 458.549 111.807 458.128 111.059C457.707 110.311 457.602 109.446 457.832 108.63C457.381 109.257 456.719 109.728 455.949 109.969C455.178 110.21 454.343 110.208 453.574 109.963C452.805 109.718 452.146 109.244 451.699 108.615C451.252 107.986 451.044 107.238 451.106 106.488C450.651 107.094 449.994 107.547 449.236 107.778C448.478 108.008 447.659 108.004 446.903 107.766C446.148 107.528 445.496 107.069 445.048 106.458C444.6 105.847 444.378 105.118 444.418 104.38C444.066 105.154 443.417 105.78 442.596 106.138C441.775 106.496 440.84 106.56 439.971 106.318C439.117 106.025 438.41 105.449 437.989 104.701C437.568 103.953 437.463 103.088 437.692 102.272L406.969 184.96L434.201 193.494L464.557 110.772C464.198 111.54 463.547 112.158 462.726 112.51C461.906 112.861 460.975 112.92 460.11 112.676Z" fill="#FFAB00"/>
<path d="M463.748 110.466C463.479 111.053 462.985 111.526 462.36 111.796C461.736 112.066 461.026 112.113 460.367 111.928C459.712 111.718 459.168 111.284 458.847 110.715C458.526 110.146 458.452 109.486 458.64 108.868V108.12L457.097 107.61L456.766 108.324C456.504 108.908 456.016 109.381 455.398 109.651C454.78 109.921 454.076 109.969 453.422 109.786C452.761 109.583 452.211 109.15 451.889 108.579C451.566 108.008 451.497 107.344 451.694 106.726V105.944L450.151 105.468L449.857 106.182C449.594 106.774 449.101 107.252 448.474 107.523C447.848 107.794 447.135 107.837 446.476 107.644C445.82 107.434 445.277 107 444.955 106.431C444.634 105.862 444.56 105.202 444.749 104.584V103.836L443.205 103.326L442.874 104.04C442.612 104.624 442.125 105.097 441.507 105.367C440.889 105.637 440.184 105.685 439.53 105.502C438.869 105.299 438.32 104.866 437.997 104.295C437.675 103.724 437.605 103.06 437.803 102.442L437.987 101.728L436.406 101.184L405.757 184.688L405.5 185.436L434.312 194.514L464.961 111.01L465.218 110.262L463.638 109.752L463.748 110.466ZM433.65 192.508L407.925 184.45L437.105 105.4C437.629 106.164 438.42 106.74 439.346 107.032C440.015 107.239 440.728 107.295 441.425 107.194C442.122 107.094 442.783 106.84 443.352 106.454C443.552 107.082 443.912 107.657 444.402 108.129C444.892 108.602 445.498 108.958 446.168 109.168C446.839 109.378 447.554 109.436 448.253 109.336C448.953 109.237 449.616 108.983 450.188 108.596C450.385 109.228 450.745 109.806 451.238 110.28C451.732 110.754 452.342 111.11 453.017 111.316C453.683 111.528 454.395 111.589 455.092 111.494C455.789 111.4 456.451 111.152 457.023 110.772C457.219 111.395 457.575 111.965 458.062 112.433C458.548 112.901 459.15 113.253 459.816 113.458C460.746 113.748 461.753 113.748 462.683 113.458L433.65 192.508Z" fill="#00162C"/>
<path d="M436.59 101.83L437.435 102.068L437.215 102.68L437.435 102.068L438.244 102.272L437.95 102.204L438.244 102.272L438.685 101.422L436.921 100.912L436.59 101.83Z" fill="#00162C"/>
<path d="M402.302 197.642C401.122 200.866 401.373 204.391 402.999 207.444C404.625 210.497 407.493 212.829 410.975 213.928L411.931 214.234C415.415 215.326 419.226 215.094 422.526 213.59C425.826 212.085 428.346 209.431 429.534 206.21L431.629 200.498L404.25 191.93L402.302 197.642Z" fill="#EE005E"/>
<path d="M401.494 197.404C400.87 199.098 400.614 200.89 400.741 202.676C400.867 204.462 401.373 206.207 402.23 207.812C403.087 209.416 404.278 210.849 405.735 212.027C407.191 213.204 408.885 214.105 410.718 214.676L411.673 214.982C413.505 215.559 415.441 215.796 417.372 215.679C419.302 215.562 421.189 215.093 422.923 214.301C424.657 213.508 426.205 212.406 427.479 211.059C428.752 209.711 429.725 208.144 430.342 206.448L432.731 199.988L403.883 190.91L401.494 197.404ZM430.526 200.804L428.726 205.768C427.899 208.203 426.258 210.332 424.039 211.848C421.819 213.364 419.136 214.187 416.378 214.2C414.967 214.199 413.566 213.992 412.225 213.588L411.269 213.282C408.004 212.252 405.313 210.068 403.784 207.207C402.255 204.346 402.013 201.042 403.111 198.016L404.948 193.052L430.526 200.804Z" fill="#20171F"/>
<path d="M406.984 184.928L404.372 192.043L431.584 200.593L434.196 193.479L406.984 184.928Z" fill="white"/>
<path d="M434.459 192.78L407.264 184.212C407.044 184.147 406.806 184.164 406.6 184.259C406.394 184.355 406.236 184.521 406.161 184.722L403.552 191.828C403.507 191.925 403.484 192.029 403.484 192.134C403.484 192.239 403.507 192.343 403.552 192.44C403.67 192.617 403.853 192.749 404.066 192.814L431.261 201.382H431.519C431.702 201.38 431.881 201.327 432.031 201.23C432.182 201.133 432.298 200.996 432.364 200.838L434.973 193.732C435.046 193.534 435.046 193.318 434.973 193.12C434.918 193.033 434.844 192.958 434.755 192.899C434.666 192.84 434.565 192.8 434.459 192.78ZM431.041 199.58L405.316 191.556L407.374 185.946L433.099 193.97L431.041 199.58Z" fill="#00162C"/>
<path d="M443.411 103.947L425.075 153.95L426.711 154.463L445.047 104.46L443.411 103.947Z" fill="#00162C"/>
<path d="M449.684 107.319L431.31 157.31L432.945 157.825L451.319 107.834L449.684 107.319Z" fill="#00162C"/>
<path d="M456.664 109.37L438.29 159.361L439.926 159.876L458.299 109.885L456.664 109.37Z" fill="#00162C"/>
<path d="M441.184 199.07L453.752 191.726C451.523 186.149 448.665 180.804 445.226 175.78L431.225 180.608C429.087 177.766 426.741 175.062 424.205 172.516C421.668 169.985 418.942 167.622 416.047 165.444L422.331 153C417.185 149.445 411.655 146.391 405.83 143.888L396.9 154.836C389.992 152.143 382.703 150.379 375.254 149.6L373.233 136C366.82 135.586 360.377 135.803 354.013 136.646L352.984 150.246C345.557 151.443 338.354 153.618 331.595 156.706L322.224 146.506C316.592 149.394 311.296 152.812 306.422 156.706L313.22 168.198L312.963 168.436C307.482 173.115 302.755 178.496 298.925 184.416L285.584 180.676C282.52 185.945 280.057 191.494 278.234 197.234L290.325 203.456C288.362 210.283 287.496 217.34 287.753 224.4L274.706 227.8C275.186 233.786 276.331 239.711 278.124 245.48L291.538 244.596C293.915 251.307 297.331 257.663 301.681 263.466L292.861 272.782C294.808 275.143 296.881 277.412 299.072 279.582C301.277 281.792 303.629 283.9 306.017 285.872L316.748 278.46C322.666 282.911 329.252 286.541 336.299 289.238L334.425 301.614C340.453 303.675 346.698 305.145 353.057 306L357.798 294.236C365.366 295.019 373.017 294.779 380.51 293.522L386.132 305.15C392.449 303.916 398.608 302.07 404.507 299.642L401.567 287.028C408.268 283.966 414.456 280.027 419.942 275.332L420.236 275.094L432.107 282.268C436.665 278.116 440.741 273.535 444.271 268.6L434.128 259.216C437.983 253.223 440.867 246.739 442.691 239.972H457.391C458.783 234.153 459.522 228.217 459.596 222.258L445.19 219.368C444.886 212.462 443.537 205.63 441.184 199.07Z" fill="#A39CFF"/>
<path d="M459.706 221.578L445.925 218.824C445.642 212.23 444.406 205.701 442.25 199.41L454.23 192.372C454.406 192.291 454.542 192.151 454.611 191.98C454.679 191.81 454.674 191.622 454.598 191.454C452.328 185.837 449.447 180.449 445.998 175.372C445.893 175.217 445.734 175.098 445.547 175.037C445.361 174.975 445.157 174.973 444.969 175.032L431.592 179.656C429.547 176.963 427.299 174.407 424.867 172.006C422.457 169.586 419.879 167.314 417.149 165.206L423.14 153.238C423.23 153.072 423.254 152.882 423.207 152.701C423.16 152.52 423.045 152.361 422.882 152.252C417.69 148.669 412.111 145.593 406.235 143.072C406.055 142.988 405.85 142.966 405.654 143.009C405.459 143.053 405.287 143.16 405.169 143.31L396.68 153.85C390.062 151.358 383.117 149.689 376.026 148.886L374.078 136C374.061 135.819 373.973 135.651 373.831 135.526C373.689 135.401 373.502 135.327 373.307 135.32C366.831 134.915 360.327 135.143 353.903 136C353.707 136.016 353.525 136.098 353.39 136.229C353.255 136.36 353.176 136.533 353.168 136.714L352.175 149.6C345.116 150.761 338.265 152.821 331.816 155.72L322.886 146.2C322.754 146.066 322.577 145.977 322.384 145.946C322.191 145.915 321.993 145.945 321.82 146.03C316.139 148.914 310.794 152.332 305.87 156.23C305.748 156.369 305.681 156.543 305.681 156.723C305.681 156.903 305.748 157.077 305.87 157.216L312.338 168.164C306.998 172.707 302.35 177.9 298.52 183.6L285.842 180.2C285.65 180.144 285.443 180.151 285.256 180.219C285.069 180.287 284.912 180.412 284.813 180.574C281.733 185.883 279.269 191.479 277.463 197.268C277.403 197.446 277.41 197.637 277.483 197.81C277.557 197.983 277.692 198.128 277.867 198.22L289.296 204C287.502 210.483 286.685 217.165 286.871 223.856L274.486 227.256C274.295 227.303 274.128 227.41 274.014 227.56C273.9 227.709 273.846 227.89 273.861 228.072C274.324 234.107 275.482 240.08 277.316 245.888C277.372 246.061 277.49 246.212 277.65 246.317C277.809 246.421 278.002 246.474 278.198 246.466L290.95 245.616C293.253 251.991 296.493 258.043 300.578 263.602L292.199 272.442C292.074 272.587 292.006 272.767 292.006 272.952C292.006 273.137 292.074 273.317 292.199 273.462C294.221 275.91 296.315 278.256 298.484 280.262C300.704 282.48 303.047 284.591 305.503 286.586C305.653 286.699 305.842 286.761 306.036 286.761C306.23 286.761 306.418 286.699 306.569 286.586L316.748 279.548C322.43 283.715 328.698 287.147 335.381 289.748L333.47 301.444C333.446 301.627 333.486 301.812 333.586 301.971C333.685 302.13 333.838 302.256 334.021 302.328C340.09 304.462 346.384 306 352.8 306.918C352.981 306.924 353.159 306.874 353.306 306.775C353.453 306.677 353.559 306.535 353.609 306.374L358.129 295.222C365.333 295.904 372.605 295.664 379.738 294.508L385.103 305.592C385.183 305.756 385.322 305.89 385.496 305.97C385.67 306.051 385.869 306.073 386.059 306.034C392.45 304.779 398.682 302.91 404.654 300.458C404.832 300.384 404.976 300.256 405.063 300.095C405.15 299.934 405.175 299.75 405.132 299.574L402.302 287.572C408.715 284.532 414.66 280.713 419.979 276.216L431.298 283.016C431.456 283.114 431.641 283.166 431.831 283.166C432.021 283.166 432.206 283.114 432.364 283.016C437.008 278.783 441.159 274.111 444.749 269.076C444.871 268.937 444.938 268.763 444.938 268.583C444.938 268.403 444.871 268.229 444.749 268.09L435.047 259.114C438.677 253.399 441.423 247.242 443.205 240.822H457.17C457.364 240.82 457.552 240.759 457.705 240.649C457.858 240.538 457.967 240.384 458.015 240.21C459.41 234.346 460.149 228.364 460.22 222.36C460.229 222.197 460.184 222.035 460.093 221.896C460.001 221.757 459.866 221.646 459.706 221.578ZM456.619 239.258H442.691C442.499 239.255 442.313 239.315 442.165 239.427C442.017 239.539 441.917 239.696 441.882 239.87C440.067 246.554 437.207 252.957 433.393 258.876C433.28 259.013 433.218 259.18 433.218 259.352C433.218 259.524 433.28 259.691 433.393 259.828L443.168 268.6C439.875 273.156 436.108 277.403 431.923 281.282L420.604 274.482C420.45 274.374 420.263 274.316 420.071 274.316C419.879 274.316 419.691 274.374 419.538 274.482L419.318 274.686C413.898 279.311 407.799 283.203 401.2 286.246C401.029 286.326 400.893 286.456 400.812 286.617C400.732 286.777 400.713 286.958 400.759 287.13L403.552 299.098C398.109 301.294 392.447 302.991 386.647 304.164L381.281 293.114C381.203 292.956 381.07 292.828 380.904 292.748C380.737 292.668 380.547 292.641 380.363 292.672C372.942 293.913 365.367 294.153 357.872 293.386C357.685 293.374 357.499 293.416 357.341 293.508C357.182 293.6 357.059 293.735 356.99 293.896L352.506 305.048C346.618 304.18 340.834 302.791 335.234 300.9L337.145 289.204C337.183 289.029 337.152 288.847 337.057 288.691C336.963 288.535 336.811 288.415 336.63 288.354C329.661 285.674 323.14 282.091 317.263 277.712C317.115 277.607 316.934 277.55 316.748 277.55C316.562 277.55 316.381 277.607 316.234 277.712L306.091 284.716C303.849 282.88 301.718 280.942 299.696 278.936C297.675 276.93 295.801 274.856 293.963 272.612L302.342 263.772C302.456 263.635 302.517 263.468 302.517 263.296C302.517 263.124 302.456 262.957 302.342 262.82C298.034 257.076 294.666 250.774 292.346 244.12C292.278 243.956 292.157 243.816 291.999 243.718C291.841 243.621 291.654 243.571 291.464 243.576L278.712 244.426C277.14 239.167 276.107 233.782 275.625 228.344L287.973 224.944C288.151 224.888 288.307 224.784 288.418 224.644C288.53 224.504 288.593 224.336 288.598 224.162C288.356 217.205 289.21 210.253 291.134 203.524C291.175 203.347 291.155 203.163 291.075 202.998C290.996 202.833 290.862 202.696 290.693 202.606L279.3 196.962C281.015 191.689 283.292 186.586 286.099 181.73L298.741 185.13C298.924 185.18 299.119 185.174 299.298 185.113C299.477 185.052 299.63 184.938 299.733 184.79C303.506 178.951 308.159 173.639 313.551 169.014L313.919 168.708C314.023 168.575 314.079 168.414 314.079 168.249C314.079 168.084 314.023 167.923 313.919 167.79L307.487 156.842C311.994 153.286 316.854 150.132 322.004 147.424L330.897 157.046C331.025 157.173 331.193 157.261 331.377 157.298C331.561 157.334 331.753 157.318 331.926 157.25C338.616 154.195 345.744 152.042 353.094 150.858C353.283 150.834 353.456 150.749 353.584 150.619C353.712 150.488 353.785 150.32 353.792 150.144L354.785 137.326C360.64 136.577 366.562 136.372 372.461 136.714L374.372 149.566C374.389 149.741 374.472 149.905 374.606 150.03C374.74 150.154 374.918 150.231 375.107 150.246C382.479 151.014 389.694 152.754 396.533 155.414C396.709 155.483 396.904 155.497 397.09 155.454C397.276 155.411 397.441 155.314 397.562 155.176L406.051 144.636C411.395 146.975 416.489 149.776 421.265 153L415.275 165.104C415.19 165.262 415.166 165.443 415.206 165.616C415.246 165.789 415.348 165.944 415.496 166.056C418.364 168.214 421.065 170.554 423.581 173.06C426.108 175.572 428.429 178.254 430.526 181.084C430.636 181.225 430.793 181.328 430.972 181.377C431.152 181.426 431.344 181.419 431.519 181.356L444.859 176.8C447.977 181.425 450.599 186.322 452.687 191.42L440.706 198.458C440.542 198.55 440.419 198.693 440.359 198.861C440.298 199.029 440.304 199.212 440.375 199.376C442.642 205.898 443.88 212.689 444.05 219.538C444.056 219.718 444.128 219.891 444.256 220.027C444.383 220.163 444.557 220.255 444.749 220.286L458.456 223.04C458.415 228.488 457.799 233.92 456.619 239.258Z" fill="#00162C"/>
<mask id="mask0_17_1960" style="mask-type:luminance" maskUnits="userSpaceOnUse" x="184" y="154" width="407" height="377">
<path d="M184.678 342.426C184.678 379.546 196.576 415.832 218.866 446.696C241.156 477.559 272.839 501.615 309.907 515.82C346.974 530.025 387.763 533.742 427.114 526.5C466.465 519.258 502.611 501.384 530.982 475.136C559.352 448.888 578.673 415.447 586.5 379.041C594.327 342.634 590.31 304.898 574.956 270.604C559.602 236.31 533.601 206.999 500.241 186.376C466.881 165.753 427.659 154.746 387.538 154.746C333.736 154.746 282.137 174.52 244.094 209.716C206.051 244.913 184.678 292.65 184.678 342.426Z" fill="white"/>
</mask>
<g mask="url(#mask0_17_1960)">
<path d="M388.838 173.292C388.838 173.292 386.266 153.436 348.854 161.46C321.843 167.274 316.955 165.302 316.955 165.302C318.116 168.158 320.027 170.7 322.517 172.701C325.006 174.701 327.996 176.097 331.214 176.76C331.214 176.76 311.7 174.482 312.839 192.91C313.978 211.338 326.143 213.922 326.363 222.422C326.584 230.922 309.826 240.136 327.282 252.104C344.738 264.072 383.73 285.662 409.492 250.37C434.335 216.166 412.285 157.822 388.838 173.292Z" fill="#00162C"/>
<path d="M396.629 169.926C394.019 169.945 391.469 170.653 389.279 171.966C388.213 168.566 383.546 158.774 364.84 158.774C359.352 158.849 353.89 159.499 348.56 160.712C339.358 162.992 329.923 164.371 320.41 164.826C319.323 164.884 318.233 164.792 317.176 164.554L315.448 163.874L316 165.54C317.822 170.128 321.498 173.882 326.253 176.012C322.336 176.322 318.658 177.885 315.853 180.432C314.277 182.143 313.106 184.14 312.416 186.295C311.726 188.45 311.532 190.715 311.847 192.944C312.121 200.686 315.29 208.101 320.814 213.922C323.315 216.202 324.908 219.198 325.334 222.422C325.007 225.264 323.921 227.987 322.174 230.344C318.499 236.498 314.089 244.148 326.62 252.75C343.783 264.514 359.695 270.498 373.66 270.498C388.36 270.498 400.525 263.698 410.043 250.812C424.963 230.412 423.493 200.05 413.424 182.54C408.904 174.414 402.877 169.926 396.629 169.926ZM408.793 249.928C399.606 262.508 387.809 268.9 373.807 268.9C360.32 268.9 344.407 262.882 327.796 251.458C316.441 243.672 320.189 237.28 323.827 231.058C325.74 228.459 326.904 225.452 327.208 222.32C326.788 218.747 325.064 215.413 322.321 212.868C317.016 207.296 313.964 200.195 313.684 192.774C313.42 190.754 313.61 188.706 314.243 186.758C314.875 184.809 315.936 183.003 317.359 181.452C318.975 180.078 320.869 179.013 322.931 178.319C324.994 177.625 327.184 177.314 329.377 177.406C330.479 177.406 331.214 177.406 331.251 177.406L331.435 175.978C328.609 175.383 325.965 174.206 323.7 172.534C321.435 170.862 319.606 168.739 318.352 166.322C321.475 166.594 329.377 166.322 349.075 162.242C354.272 161.058 359.598 160.419 364.951 160.338C385.972 160.338 387.919 172.85 387.993 173.36V174.686L389.169 173.938C397.07 168.668 405.596 172.374 411.88 183.288C421.876 200.39 423.31 229.97 408.793 249.928Z" fill="#00162C"/>
<path d="M405.964 218.478L409.639 242.278C412.418 240.068 414.48 237.189 415.596 233.959C416.712 230.73 416.838 227.278 415.96 223.986C414.526 216.982 405.964 218.478 405.964 218.478Z" fill="white"/>
<path d="M405.78 217.696C405.561 217.737 405.368 217.857 405.244 218.029C405.12 218.201 405.075 218.411 405.118 218.614C405.163 218.819 405.291 219 405.475 219.12C405.66 219.24 405.887 219.29 406.111 219.26C406.441 219.26 413.865 218.002 415.114 224.122C415.937 227.263 415.795 230.553 414.704 233.623C413.614 236.693 411.617 239.42 408.94 241.496C408.788 241.592 408.674 241.731 408.615 241.892C408.556 242.054 408.555 242.229 408.613 242.39C408.672 242.552 408.785 242.691 408.937 242.788C409.089 242.884 409.271 242.932 409.455 242.924C409.622 242.973 409.802 242.973 409.969 242.924C412.892 240.663 415.077 237.694 416.277 234.349C417.478 231.004 417.648 227.415 416.768 223.986C416.528 222.888 416.048 221.847 415.356 220.927C414.665 220.007 413.776 219.229 412.746 218.639C411.717 218.05 410.567 217.662 409.369 217.5C408.171 217.337 406.949 217.404 405.78 217.696Z" fill="#0E0E27"/>
<path d="M408.61 293.21C397.254 288.246 363.885 288.96 345.657 296.61C327.429 304.26 331.435 321.226 336.763 342.442C342.46 364.168 368.185 395.958 368.993 438.118C369.802 480.278 367.523 534.644 367.523 534.644H454.253C454.253 534.644 456.017 382.766 421.913 317.996C415.114 305.11 414.967 296.1 408.61 293.21Z" fill="white"/>
<path d="M417.209 305.008C414.894 298.888 413.24 294.434 408.83 292.496C401.364 289.97 393.438 288.815 385.494 289.096C371.664 288.846 357.919 291.158 345.069 295.896C325.885 304.09 330.369 321.872 335.845 342.51C338.606 351.284 342.222 359.807 346.649 367.976C355.873 386.778 367.413 410.17 368.038 438.016C368.993 479.632 366.604 533.93 366.568 534.474C366.56 534.582 366.58 534.69 366.624 534.79C366.669 534.891 366.737 534.98 366.825 535.052C366.895 535.135 366.984 535.202 367.086 535.249C367.188 535.296 367.299 535.322 367.413 535.324H454.143C454.367 535.324 454.582 535.242 454.741 535.095C454.899 534.948 454.988 534.749 454.988 534.542C454.988 533.012 456.385 381.712 422.575 317.52C420.52 313.451 418.729 309.273 417.209 305.008ZM453.408 533.862H368.442C368.736 526.858 370.757 476.98 369.875 438.084C369.214 409.966 357.637 386.37 348.303 367.432C343.943 359.354 340.364 350.934 337.609 342.272C332.464 322.314 327.98 305.11 345.877 297.46C358.482 292.86 371.947 290.618 385.494 290.864C393.174 290.518 400.852 291.569 408.095 293.958C411.77 295.59 413.35 299.534 415.445 305.552C417.006 309.927 418.859 314.208 420.994 318.37C453.518 379.808 453.481 521.962 453.408 533.862Z" fill="#0E0E27"/>
<path d="M328.568 234.9C328.525 238.273 329.496 241.592 331.371 244.485C333.246 247.379 335.952 249.734 339.189 251.288L336.984 227.488C336.984 227.488 328.274 227.794 328.568 234.9Z" fill="white"/>
<path d="M339.556 250.574C336.472 249.067 333.896 246.804 332.107 244.034C330.318 241.264 329.386 238.093 329.413 234.866C329.156 228.644 336.763 228.304 337.021 228.304C337.251 228.287 337.466 228.19 337.623 228.032C337.78 227.875 337.867 227.668 337.866 227.454C337.831 227.25 337.721 227.063 337.553 226.926C337.385 226.789 337.171 226.712 336.947 226.706C335.752 226.66 334.559 226.839 333.442 227.233C332.324 227.626 331.304 228.226 330.445 228.996C329.585 229.766 328.904 230.689 328.443 231.71C327.981 232.73 327.749 233.827 327.76 234.934C327.716 238.434 328.723 241.877 330.67 244.878C332.617 247.88 335.426 250.323 338.785 251.934H339.115C339.289 251.932 339.459 251.883 339.603 251.792C339.747 251.702 339.858 251.573 339.924 251.424C339.967 251.265 339.955 251.097 339.889 250.944C339.823 250.791 339.706 250.662 339.556 250.574Z" fill="#0E0E27"/>
<path d="M396.445 271.586L358.63 276.04C358.857 281.752 358.276 287.467 356.902 293.04C356.902 293.04 373.55 298.48 383.546 297.494C388.974 296.921 394.029 294.655 397.879 291.068C396.9 284.614 396.421 278.103 396.445 271.586Z" fill="white"/>
<path d="M397.291 271.654C397.314 271.535 397.302 271.412 397.257 271.299C397.212 271.185 397.134 271.085 397.033 271.008C396.944 270.922 396.835 270.855 396.714 270.814C396.593 270.773 396.463 270.758 396.335 270.77L358.519 275.258C358.413 275.267 358.31 275.294 358.215 275.34C358.12 275.386 358.036 275.448 357.968 275.524C357.9 275.6 357.848 275.688 357.817 275.782C357.785 275.877 357.774 275.976 357.784 276.074C357.995 281.718 357.415 287.364 356.057 292.87C356.017 293.059 356.051 293.254 356.152 293.422C356.253 293.59 356.414 293.72 356.608 293.788C364.465 296.346 372.662 297.902 380.974 298.412C381.867 298.465 382.763 298.465 383.656 298.412C389.214 297.789 394.387 295.468 398.356 291.816C398.458 291.725 398.535 291.612 398.579 291.488C398.624 291.364 398.636 291.231 398.614 291.102C397.677 284.656 397.235 278.157 397.291 271.654ZM383.473 296.712C382.664 296.712 381.819 296.712 380.974 296.712C373.105 296.242 365.342 294.79 357.895 292.394C359.12 287.215 359.663 281.918 359.512 276.618L395.527 272.368C395.595 278.487 396.074 284.596 396.96 290.66C393.316 294.007 388.57 296.137 383.473 296.712Z" fill="#0E0E27"/>
<path d="M404.53 203.756C399.422 181.792 377.225 187.64 377.225 187.64C353.742 182.03 337.829 196.514 336.8 203.994C335.699 216.688 336.08 229.456 337.939 242.074C340.071 252.274 340.438 269.274 351.574 278.658C357.343 283.486 369.177 277.4 372.889 286.648C386.413 286.07 398.393 282.772 407.213 273.252C413.718 266.18 411.329 251.9 410.557 242.074C409.298 229.21 407.286 216.419 404.53 203.756Z" fill="white"/>
<path d="M411.439 242.006C410.139 229.111 408.115 216.287 405.376 203.586C401.701 188.388 390.235 186.144 383.62 186.144C381.469 186.136 379.324 186.353 377.225 186.79C373.826 185.986 370.333 185.575 366.825 185.566C348.229 185.566 336.837 197.5 335.955 203.892C334.82 216.665 335.202 229.514 337.094 242.21C337.498 244.148 337.866 246.358 338.233 248.704C339.814 258.904 341.908 271.518 351.022 279.304C353.884 281.181 357.378 282.05 360.871 281.752C365.612 281.922 370.096 282.092 371.896 286.988C371.957 287.14 372.068 287.271 372.213 287.362C372.358 287.454 372.53 287.501 372.705 287.498C388.544 286.818 399.643 282.466 407.617 273.898C413.571 267.506 412.432 255.674 411.55 246.154C411.66 244.624 411.513 243.264 411.439 242.006ZM406.552 272.606C398.981 280.766 388.471 284.948 373.477 285.696C371.014 280.324 365.686 280.12 360.982 279.984C357.888 280.247 354.791 279.527 352.198 277.944C343.452 270.6 341.504 258.258 339.961 248.33C339.593 245.984 339.226 243.74 338.821 241.768C337.002 229.238 336.62 216.565 337.682 203.96C338.491 198.214 349.516 186.96 366.862 186.96C370.309 186.972 373.741 187.383 377.078 188.184C377.223 188.219 377.375 188.219 377.519 188.184C379.527 187.727 381.588 187.498 383.656 187.504C391.006 187.504 400.635 190.326 403.722 203.722C406.464 216.341 408.476 229.087 409.749 241.904C409.749 243.196 409.969 244.556 410.116 245.95C410.925 255.368 411.991 266.826 406.552 272.742V272.606Z" fill="#0E0E27"/>
<path d="M410.08 237.416C406.427 239.528 402.185 240.603 397.879 240.51C391.888 240.51 388.471 238.13 383.84 237.484C378.189 236.637 372.404 237.856 367.707 240.884C362.635 244.284 358.005 247.684 349.846 247.684C345.865 247.761 341.933 246.858 338.454 245.066C340.218 255.266 341.394 270.362 351.574 278.896C357.343 283.724 369.177 277.638 372.889 286.886C386.413 286.308 398.393 283.01 407.213 273.49C413.718 266.418 411.329 252.138 410.557 242.312C410.484 240.816 410.3 239.218 410.08 237.416ZM391.521 251.526C388.475 253.355 385.19 254.817 381.745 255.878C378.298 256.866 374.694 257.303 371.088 257.17C369.843 257.153 368.653 256.69 367.769 255.878C366.885 255.067 366.375 253.97 366.347 252.818C366.357 251.658 366.859 250.547 367.746 249.727C368.633 248.906 369.833 248.441 371.088 248.432H373.66H374.836H375.535H376.196L377.299 248.228L379.393 247.684L381.378 247.004H381.672L382.701 246.528C384.133 245.871 385.52 245.133 386.854 244.318C387.951 243.754 389.241 243.606 390.454 243.904C391.667 244.202 392.708 244.923 393.358 245.916C393.846 246.897 393.928 248.01 393.589 249.043C393.251 250.077 392.515 250.96 391.521 251.526Z" fill="#00162C"/>
<path d="M386.266 243.298C384.722 244.182 383.436 244.862 382.186 245.44L381.194 245.882L380.165 246.256L378.989 246.664C378.291 246.868 377.629 247.038 376.931 247.174L375.902 247.378H374.763H373.624H370.978C370.231 247.389 369.495 247.539 368.813 247.82C368.131 248.1 367.518 248.505 367.009 249.01C366.048 249.922 365.496 251.137 365.465 252.41C365.511 253.767 366.114 255.057 367.152 256.017C368.19 256.977 369.584 257.535 371.051 257.578H372.043C375.42 257.616 378.782 257.157 382.003 256.218C385.515 255.148 388.862 253.663 391.962 251.798C393.285 251.023 394.234 249.805 394.608 248.398C394.917 247.152 394.679 245.844 393.946 244.76C393.101 243.666 391.84 242.907 390.416 242.636C388.992 242.365 387.509 242.602 386.266 243.298ZM392.917 248.398C392.66 249.417 391.989 250.306 391.043 250.88C388.071 252.674 384.859 254.103 381.488 255.13C378.134 256.081 374.631 256.506 371.125 256.388C370.1 256.371 369.121 255.992 368.39 255.328C367.658 254.664 367.23 253.765 367.192 252.818C367.19 252.371 367.282 251.927 367.465 251.513C367.648 251.098 367.917 250.722 368.258 250.404C368.967 249.705 369.943 249.29 370.978 249.248V248.398V249.18H373.624H374.836H376.159L377.262 248.976C377.997 248.976 378.695 248.636 379.43 248.398C380.165 248.16 380.275 248.126 380.716 247.99L381.819 247.582L382.885 247.106C384.171 246.494 385.531 245.78 387.111 244.862C388.01 244.419 389.057 244.31 390.04 244.556C391.024 244.802 391.868 245.386 392.403 246.188C392.842 246.849 393.023 247.629 392.917 248.398Z" fill="#00162C"/>
<path d="M411.439 242.006C411.439 240.748 411.145 239.15 410.925 237.348V236.09L409.749 236.77C406.225 238.768 402.158 239.794 398.026 239.728C395.073 239.662 392.159 239.098 389.426 238.062C387.71 237.462 385.939 237.006 384.134 236.702C378.272 235.827 372.27 237.042 367.339 240.102L366.568 240.612C361.937 244.409 355.996 246.554 349.81 246.664C345.96 246.73 342.159 245.863 338.785 244.148L337.241 243.332L337.498 244.964C337.719 246.154 337.903 247.412 338.123 248.738C339.703 258.938 341.798 271.518 350.912 279.338C353.774 281.215 357.268 282.083 360.761 281.786C365.502 281.956 369.985 282.126 371.786 287.022L372.007 287.566H372.631C388.471 286.886 399.569 282.534 407.544 273.966C413.497 267.574 412.358 255.742 411.476 246.222C411.66 244.624 411.513 243.264 411.439 242.006ZM406.552 272.606C398.981 280.766 388.471 284.948 373.477 285.696C371.014 280.324 365.686 280.12 360.982 279.984C357.888 280.247 354.791 279.527 352.198 277.944C343.452 270.6 341.504 258.258 339.961 248.364C339.961 247.582 339.74 246.834 339.593 246.12C342.823 247.478 346.336 248.163 349.883 248.126C356.374 247.998 362.603 245.732 367.45 241.734L368.221 241.224C372.783 238.417 378.323 237.312 383.73 238.13C385.439 238.404 387.113 238.837 388.728 239.422C391.652 240.509 394.765 241.097 397.915 241.156C401.921 241.216 405.877 240.339 409.418 238.606C409.418 239.864 409.675 241.02 409.749 242.006C409.822 242.992 409.969 244.658 410.116 246.052C410.925 255.368 411.991 266.826 406.552 272.742V272.606Z" fill="#00162C"/>
<path d="M387.552 244.284C383.633 248.304 378.234 250.826 372.411 251.356C372.298 251.356 372.187 251.377 372.083 251.419C371.98 251.461 371.888 251.522 371.812 251.599C371.735 251.675 371.677 251.766 371.641 251.865C371.605 251.964 371.592 252.068 371.602 252.172C371.602 252.273 371.624 252.373 371.667 252.466C371.71 252.559 371.773 252.643 371.852 252.713C371.931 252.783 372.025 252.838 372.127 252.873C372.229 252.909 372.338 252.925 372.448 252.92C378.761 252.441 384.625 249.71 388.801 245.304C388.882 245.231 388.947 245.144 388.991 245.048C389.035 244.951 389.058 244.848 389.058 244.743C389.058 244.638 389.035 244.535 388.991 244.439C388.947 244.342 388.882 244.255 388.801 244.182C388.712 244.112 388.609 244.06 388.498 244.027C388.387 243.994 388.27 243.982 388.154 243.992C388.037 244.001 387.924 244.032 387.821 244.082C387.718 244.132 387.626 244.201 387.552 244.284Z" fill="#0E0E27"/>
<path d="M364.069 214.262L341.467 216.71C340.913 216.773 340.378 216.941 339.898 217.204C339.417 217.468 339 217.82 338.674 218.24C338.356 218.667 338.139 219.151 338.038 219.661C337.937 220.171 337.953 220.695 338.086 221.198L339.373 226.23C339.818 227.911 340.86 229.405 342.333 230.471C343.806 231.538 345.624 232.116 347.494 232.112H348.487L361.092 230.718C363.116 230.494 364.981 229.592 366.335 228.182C367.689 226.773 368.438 224.954 368.442 223.068V217.9C368.46 217.419 368.368 216.94 368.172 216.495C367.976 216.05 367.679 215.648 367.303 215.316C366.897 214.91 366.39 214.602 365.827 214.419C365.263 214.235 364.66 214.181 364.069 214.262ZM366.751 223.034C366.717 224.526 366.098 225.955 365.009 227.055C363.921 228.156 362.437 228.854 360.835 229.018L348.193 230.378C346.564 230.597 344.906 230.244 343.546 229.388C342.185 228.532 341.221 227.236 340.843 225.754L339.52 220.722C339.443 220.439 339.432 220.143 339.489 219.856C339.546 219.568 339.669 219.296 339.85 219.056C340.034 218.816 340.269 218.614 340.541 218.462C340.813 218.31 341.116 218.211 341.431 218.172L364.069 215.724H364.51C364.804 215.723 365.095 215.777 365.367 215.882C365.638 215.987 365.884 216.142 366.09 216.336C366.3 216.527 366.467 216.754 366.58 217.005C366.694 217.256 366.752 217.526 366.751 217.798V223.034Z" fill="#0E0E27"/>
<path d="M399.9 210.352L377.299 212.8C376.74 212.863 376.202 213.034 375.72 213.304C375.239 213.574 374.825 213.935 374.506 214.364C374.195 214.787 373.982 215.266 373.881 215.769C373.779 216.272 373.792 216.79 373.918 217.288L375.241 222.32C375.671 224.004 376.704 225.505 378.171 226.579C379.638 227.653 381.455 228.237 383.326 228.236H384.318L396.923 226.876C398.944 226.645 400.804 225.741 402.157 224.333C403.509 222.925 404.262 221.11 404.273 219.226V213.99C404.292 213.509 404.2 213.03 404.003 212.585C403.807 212.139 403.511 211.738 403.134 211.406C402.728 211 402.221 210.692 401.658 210.509C401.094 210.325 400.491 210.271 399.9 210.352ZM402.583 219.158C402.576 220.653 401.978 222.094 400.901 223.209C399.825 224.324 398.344 225.036 396.739 225.21L384.097 226.604C382.464 226.822 380.802 226.464 379.44 225.601C378.079 224.739 377.118 223.434 376.747 221.946L375.535 216.948C375.461 216.659 375.453 216.359 375.51 216.066C375.567 215.774 375.688 215.496 375.865 215.248C376.051 215.013 376.287 214.816 376.559 214.67C376.831 214.524 377.133 214.431 377.446 214.398L400.084 211.916H400.341C400.635 211.915 400.926 211.969 401.198 212.074C401.469 212.179 401.715 212.334 401.921 212.528C402.339 212.917 402.576 213.442 402.583 213.99V219.158Z" fill="#0E0E27"/>
<path d="M367.009 217.356C366.854 217.508 366.767 217.708 366.767 217.917C366.767 218.126 366.854 218.327 367.009 218.478C367.173 218.608 367.381 218.68 367.597 218.682C367.713 218.686 367.829 218.667 367.937 218.626C368.045 218.585 368.142 218.523 368.221 218.444C368.958 217.674 369.974 217.18 371.077 217.055C372.181 216.93 373.295 217.182 374.212 217.764C374.403 217.883 374.636 217.929 374.863 217.891C375.09 217.852 375.291 217.734 375.424 217.56C375.487 217.475 375.531 217.38 375.554 217.279C375.577 217.179 375.578 217.075 375.558 216.974C375.538 216.873 375.496 216.776 375.435 216.69C375.374 216.604 375.296 216.53 375.204 216.472C373.955 215.673 372.434 215.322 370.926 215.484C369.418 215.647 368.025 216.312 367.009 217.356Z" fill="#0E0E27"/>
<path d="M393.91 204.572C388.994 202.699 383.56 202.33 378.401 203.518C378.294 203.552 378.195 203.606 378.11 203.676C378.026 203.746 377.958 203.832 377.91 203.927C377.862 204.022 377.835 204.125 377.831 204.23C377.827 204.335 377.846 204.44 377.887 204.538C377.969 204.733 378.13 204.891 378.335 204.98C378.54 205.069 378.774 205.081 378.989 205.014C383.78 203.968 388.805 204.336 393.358 206.068H393.652C393.828 206.055 393.997 205.998 394.14 205.902C394.282 205.806 394.393 205.675 394.461 205.524C394.51 205.33 394.481 205.127 394.38 204.952C394.278 204.776 394.111 204.641 393.91 204.572Z" fill="#0E0E27"/>
<path d="M360.835 201.512C355.566 201.455 350.416 202.956 346.135 205.796C346.037 205.849 345.951 205.919 345.884 206.002C345.816 206.086 345.767 206.181 345.739 206.283C345.712 206.384 345.707 206.49 345.724 206.593C345.741 206.696 345.781 206.795 345.841 206.884C345.92 206.998 346.029 207.092 346.157 207.157C346.285 207.222 346.429 207.257 346.576 207.258C346.719 207.302 346.873 207.302 347.017 207.258C351.042 204.572 355.871 203.11 360.835 203.076C361.059 203.103 361.285 203.047 361.465 202.919C361.644 202.792 361.761 202.603 361.79 202.396C361.819 202.189 361.758 201.979 361.62 201.813C361.483 201.647 361.279 201.539 361.055 201.512H360.835Z" fill="#0E0E27"/>
<path d="M354.808 220.858C354.35 220.858 353.902 220.984 353.521 221.219C353.141 221.454 352.844 221.789 352.669 222.18C352.493 222.572 352.447 223.002 352.537 223.418C352.626 223.833 352.847 224.215 353.17 224.515C353.494 224.814 353.907 225.018 354.356 225.101C354.805 225.184 355.271 225.141 355.694 224.979C356.117 224.817 356.478 224.542 356.733 224.19C356.987 223.838 357.123 223.424 357.123 223C357.123 222.432 356.879 221.887 356.445 221.485C356.011 221.084 355.422 220.858 354.808 220.858Z" fill="#00162C"/>
<path d="M354.808 220.076C353.969 220.076 353.165 220.384 352.573 220.932C351.98 221.481 351.647 222.225 351.647 223C351.647 223.776 351.98 224.519 352.573 225.068C353.165 225.616 353.969 225.924 354.808 225.924C355.646 225.924 356.45 225.616 357.042 225.068C357.635 224.519 357.968 223.776 357.968 223C357.968 222.225 357.635 221.481 357.042 220.932C356.45 220.384 355.646 220.076 354.808 220.076ZM354.808 224.326C354.514 224.333 354.225 224.258 353.977 224.111C353.73 223.964 353.536 223.752 353.42 223.502C353.304 223.253 353.272 222.976 353.328 222.709C353.383 222.442 353.524 222.197 353.732 222.005C353.94 221.813 354.205 221.682 354.493 221.631C354.782 221.58 355.08 221.609 355.351 221.717C355.621 221.824 355.85 222.003 356.008 222.232C356.167 222.461 356.248 222.728 356.241 223C356.241 223.352 356.09 223.689 355.821 223.938C355.552 224.186 355.188 224.326 354.808 224.326Z" fill="#00162C"/>
<path d="M388.875 217.186C388.414 217.179 387.961 217.3 387.575 217.533C387.189 217.766 386.886 218.1 386.706 218.493C386.527 218.885 386.478 219.319 386.566 219.737C386.654 220.156 386.875 220.541 387.201 220.842C387.527 221.144 387.943 221.349 388.396 221.43C388.848 221.512 389.317 221.467 389.741 221.3C390.166 221.134 390.527 220.854 390.778 220.497C391.03 220.139 391.161 219.721 391.153 219.294C391.144 218.738 390.901 218.207 390.475 217.813C390.05 217.42 389.476 217.195 388.875 217.186Z" fill="#00162C"/>
<path d="M388.875 216.37C388.25 216.37 387.639 216.542 387.119 216.863C386.599 217.184 386.194 217.641 385.955 218.175C385.716 218.709 385.653 219.297 385.775 219.865C385.897 220.432 386.198 220.953 386.64 221.362C387.082 221.771 387.645 222.049 388.258 222.162C388.871 222.275 389.507 222.217 390.084 221.995C390.662 221.774 391.155 221.399 391.503 220.919C391.85 220.438 392.035 219.872 392.035 219.294C392.035 218.519 391.702 217.775 391.11 217.226C390.517 216.678 389.713 216.37 388.875 216.37ZM388.875 220.654C388.53 220.603 388.215 220.44 387.988 220.194C387.761 219.948 387.637 219.635 387.637 219.311C387.637 218.988 387.761 218.675 387.988 218.428C388.215 218.182 388.53 218.019 388.875 217.968C389.22 218.019 389.535 218.182 389.762 218.428C389.988 218.675 390.113 218.988 390.113 219.311C390.113 219.635 389.988 219.948 389.762 220.194C389.535 220.44 389.22 220.603 388.875 220.654Z" fill="#00162C"/>
<path d="M349.589 294.366C349.589 294.366 314.971 294.366 296.743 302.05C278.515 309.734 271.789 321.226 277.265 342.442C282.888 364.168 303.431 397.93 304.387 440.056C304.44 471.669 302.428 503.256 298.36 534.644H385.09C385.09 534.644 390.382 434.99 362.231 337.104C358.262 323.198 349.589 294.366 349.589 294.366Z" fill="#5E5AD7"/>
<path d="M350.434 294.162C350.368 293.995 350.248 293.85 350.09 293.747C349.933 293.643 349.745 293.587 349.552 293.584C348.119 293.584 314.346 293.584 296.375 301.336C277.045 309.598 271.091 321.94 276.31 342.646C278.62 350.536 281.405 358.3 284.652 365.902C292.7 385.962 302.696 410.952 303.394 440.09C303.421 471.657 301.409 503.197 297.367 534.542C297.347 534.658 297.356 534.777 297.394 534.889C297.432 535.002 297.499 535.104 297.588 535.188C297.662 535.275 297.757 535.345 297.865 535.392C297.974 535.439 298.093 535.463 298.213 535.46H384.943C385.158 535.452 385.363 535.372 385.519 535.234C385.674 535.096 385.77 534.911 385.788 534.712C385.788 533.692 390.749 433.8 362.929 336.9C359.144 323.164 350.508 294.468 350.434 294.162ZM384.244 533.862H299.315C303.323 502.731 305.311 471.407 305.269 440.056C304.57 410.646 294.501 385.656 286.416 365.256C283.205 357.703 280.432 349.997 278.11 342.17C272.929 322.11 278.404 310.652 297.11 302.696C313.611 295.624 343.966 295.114 348.964 295.08C350.214 299.228 357.784 324.558 361.423 337.206C387.883 429.618 384.649 524.444 384.244 533.862Z" fill="#00162C"/>
<path d="M492.694 429.992C479.353 429.38 464.543 440.94 461.603 449.814C458.663 458.688 474.613 478.34 486.593 478.986C498.574 479.632 506.659 472.968 502.69 469.16C500.264 466.78 490.011 468.208 490.011 468.208C495.405 467.047 500.68 465.454 505.777 463.448C508.583 462.52 510.93 460.683 512.383 458.275C513.836 455.868 514.296 453.055 513.678 450.358L492.694 429.992Z" fill="white"/>
<path d="M514.303 449.814L493.318 429.414C493.249 429.342 493.164 429.284 493.069 429.243C492.974 429.202 492.872 429.179 492.767 429.176C479.096 428.53 463.955 440.056 460.758 449.576C459.435 453.554 461.493 459.776 466.234 466.032C470.974 472.288 478.876 479.36 486.556 479.632H488.173C496.626 479.632 502.616 476.232 504.16 472.832C504.538 472.095 504.66 471.267 504.508 470.464C504.357 469.66 503.94 468.919 503.314 468.344C501.728 467.194 499.739 466.625 497.728 466.746C500.007 466.066 502.8 465.114 506.107 463.924C509.092 462.909 511.583 460.937 513.128 458.366C514.672 455.795 515.167 452.796 514.523 449.916C514.455 449.873 514.381 449.838 514.303 449.814ZM505.446 462.7C500.411 464.694 495.197 466.275 489.864 467.426C489.752 467.442 489.645 467.479 489.549 467.535C489.453 467.59 489.37 467.663 489.305 467.748C489.24 467.834 489.194 467.931 489.17 468.033C489.146 468.135 489.145 468.241 489.166 468.344C489.21 468.549 489.338 468.73 489.523 468.85C489.707 468.97 489.935 469.02 490.158 468.99C492.168 468.737 494.193 468.601 496.222 468.582C500.301 468.582 501.624 469.296 502.065 469.704C502.462 470.057 502.726 470.518 502.818 471.02C502.911 471.521 502.827 472.037 502.579 472.492C501.293 475.246 495.817 478.238 488.173 478.238H486.63C480.052 477.898 472.334 471.438 467.667 465.182C463 458.926 461.272 453.554 462.412 450.12C465.315 441.45 479.39 430.842 491.812 430.842H492.473L513.053 450.834C513.546 453.328 513.048 455.903 511.65 458.084C510.252 460.265 508.048 461.904 505.446 462.7Z" fill="#0E0E27"/>
<path d="M500.007 319.492C468.034 297.528 428.455 292.292 428.455 292.292L473.326 384.67C479.647 389.974 506.401 402.18 506.401 402.18C497.73 409.199 490.529 417.636 485.16 427.068C503.535 439.376 516.324 476.232 516.324 476.232C516.324 476.232 579.387 432.882 577.917 405.206C576.631 378.618 526.43 337.614 500.007 319.492Z" fill="#5955CC"/>
<path d="M500.485 318.846C468.696 297.018 428.932 291.646 428.565 291.646L428.308 293.21C428.712 293.21 468.034 298.718 499.456 320.41C525.732 338.43 575.749 379.4 577.108 405.41C578.431 430.536 524.666 469.534 516.802 475.11C514.56 468.922 502.91 438.628 486.299 427C491.559 417.9 498.557 409.756 506.953 402.962C507.068 402.878 507.158 402.768 507.216 402.644C507.273 402.519 507.297 402.383 507.283 402.248C507.266 402.117 507.213 401.992 507.13 401.885C507.046 401.778 506.935 401.692 506.806 401.636C506.548 401.636 480.015 389.43 473.731 384.228L472.591 385.418C478.214 390.144 499.345 400.038 504.711 402.418C496.448 409.399 489.549 417.646 484.315 426.796C484.224 426.962 484.2 427.152 484.247 427.333C484.294 427.514 484.409 427.673 484.572 427.782C502.616 439.818 515.332 476.164 515.442 476.538C515.483 476.658 515.554 476.767 515.65 476.855C515.746 476.944 515.864 477.01 515.993 477.048H516.25C516.418 477.097 516.598 477.097 516.765 477.048C519.374 475.28 580.159 433.12 578.725 405.342C577.66 378.618 527.018 337.036 500.485 318.846Z" fill="#00162C"/>
<path d="M397.879 291.068C397.879 291.068 433.563 342.408 433.563 431.794C433.563 521.18 435.106 534.644 435.106 534.644H491.885C491.885 534.644 484.535 355.26 471.415 320.07C458.296 284.88 397.879 291.068 397.879 291.068Z" fill="#5E5AD7"/>
<path d="M479.941 366.548C479.83 366.561 479.722 366.594 479.625 366.645C479.527 366.696 479.442 366.765 479.374 366.848C479.305 366.93 479.255 367.024 479.226 367.124C479.198 367.225 479.191 367.329 479.206 367.432C486.556 428.802 490.562 524.002 490.966 534.032H435.841C435.547 530.292 434.335 509.96 434.335 432.032C434.335 350.432 404.383 300.044 399.275 292.02C408.279 291.442 458.994 289.742 470.533 320.58C470.616 320.775 470.776 320.933 470.982 321.022C471.187 321.111 471.421 321.123 471.636 321.056C471.844 320.987 472.015 320.845 472.111 320.66C472.207 320.476 472.221 320.264 472.15 320.07C459.178 284.948 398.43 290.218 397.805 290.218C397.66 290.237 397.521 290.287 397.4 290.364C397.279 290.44 397.179 290.542 397.107 290.66C397.036 290.78 396.999 290.914 396.999 291.051C396.999 291.188 397.036 291.322 397.107 291.442C397.438 291.952 432.607 343.632 432.607 431.726C432.607 519.82 434.188 534.542 434.188 534.678C434.222 534.864 434.324 535.034 434.479 535.158C434.633 535.282 434.829 535.353 435.033 535.358H491.812C491.923 535.362 492.033 535.343 492.135 535.302C492.237 535.26 492.327 535.198 492.4 535.12C492.487 535.048 492.556 534.959 492.6 534.858C492.645 534.758 492.664 534.65 492.657 534.542C492.657 533.522 488.431 431.726 480.823 367.194C480.796 367.001 480.688 366.826 480.524 366.706C480.359 366.585 480.15 366.529 479.941 366.548Z" fill="#0E0E27"/>
<path d="M499.456 403.2C500.374 406.6 510.775 403.2 510.775 403.2L514.78 397.352C514.78 397.352 498.537 399.664 499.456 403.2Z" fill="#3700FF"/>
<path d="M514.891 398.304L514.67 396.74C513.31 396.74 501.256 398.61 498.978 401.67C498.796 401.916 498.67 402.193 498.606 402.485C498.543 402.778 498.545 403.078 498.61 403.37C498.708 403.726 498.886 404.059 499.133 404.346C499.38 404.633 499.691 404.869 500.044 405.036C500.968 405.457 501.991 405.656 503.02 405.614C505.762 405.464 508.469 404.972 511.069 404.152L510.481 402.622C508.496 403.268 502.91 404.696 500.852 403.676C500.713 403.606 500.591 403.509 500.496 403.392C500.401 403.274 500.335 403.139 500.301 402.996C500.301 402.996 500.301 402.792 500.301 402.554C501.808 400.684 510.04 399.018 514.891 398.304Z" fill="#00162C"/>
<path d="M370.206 234.22C369.691 233.574 370.206 232.282 370.206 231.874L368.626 231.262C368.299 231.863 368.129 232.527 368.129 233.2C368.129 233.873 368.299 234.537 368.626 235.138C368.982 235.552 369.444 235.877 369.97 236.085C370.496 236.292 371.07 236.376 371.639 236.328H372.301V234.764C371.602 234.764 370.61 234.73 370.206 234.22Z" fill="#0E0E27"/>
<path d="M274.546 261.726C274.546 244.726 271.201 227.726 275.391 220.348C277.927 215.792 268.592 206.136 259.846 223.17C258.265 226.264 260.397 240.17 258.596 245.066C257.751 247.446 255.656 245.066 252.128 242.958C238.126 234.526 224.97 242.958 228.792 253.158C228.792 253.158 216.113 253.158 218.833 264.548C217.663 266.131 217.038 268.003 217.038 269.92C217.038 271.837 217.663 273.709 218.833 275.292C218.833 275.292 214.79 278.488 218.833 286.512C222.875 294.536 234.635 295.522 234.635 295.522C234.635 295.522 233.533 305.144 242.463 306.028L241.434 351.418L288.694 348.018C288.694 348.018 277.192 287.906 275.281 281.48C272.855 273.388 274.546 268.594 274.546 261.726Z" fill="white"/>
<path d="M275.097 267.506C275.097 265.67 275.428 263.8 275.428 261.726C275.428 256.15 275.06 250.676 274.729 245.372C274.031 234.73 273.443 225.55 276.163 220.688C276.588 219.848 276.768 218.919 276.684 217.994C276.6 217.069 276.256 216.181 275.685 215.418C275.154 214.56 274.389 213.845 273.467 213.344C272.546 212.843 271.499 212.573 270.43 212.562C267.637 212.562 263.374 214.296 259.074 222.762C258.237 226.104 258.013 229.552 258.412 232.962C258.836 236.908 258.675 240.889 257.935 244.794C257.935 245.202 257.677 245.27 257.677 245.27C256.727 244.939 255.853 244.443 255.105 243.808L252.753 242.278C249.219 240.036 245.056 238.796 240.772 238.708C238.597 238.631 236.433 239.039 234.464 239.897C232.494 240.755 230.776 242.038 229.453 243.638C228.49 244.901 227.842 246.346 227.556 247.869C227.27 249.392 227.353 250.955 227.8 252.444C224.606 252.655 221.627 254.009 219.494 256.218C218.576 257.397 217.957 258.751 217.683 260.182C217.41 261.612 217.489 263.082 217.914 264.48C216.839 266.108 216.27 267.979 216.27 269.886C216.27 271.794 216.839 273.664 217.914 275.292C216.848 276.584 214.9 280.188 218.355 286.92C221.809 293.652 231.181 295.896 234.01 296.304C233.679 298.646 234.301 301.018 235.754 302.959C237.207 304.901 239.389 306.273 241.875 306.81L240.589 351.418C240.575 351.532 240.592 351.647 240.637 351.753C240.681 351.86 240.753 351.955 240.846 352.03C241.006 352.165 241.217 352.238 241.434 352.234L288.694 348.834C288.924 348.802 289.133 348.693 289.282 348.528C289.335 348.427 289.362 348.317 289.362 348.205C289.362 348.093 289.335 347.983 289.282 347.882C288.805 345.434 277.743 287.668 275.869 281.276C274.669 276.773 274.407 272.1 275.097 267.506ZM242.316 350.636L243.565 306.062C243.575 305.961 243.563 305.859 243.529 305.763C243.496 305.666 243.441 305.577 243.369 305.501C243.297 305.425 243.208 305.363 243.109 305.319C243.011 305.275 242.903 305.25 242.794 305.246C234.856 304.464 235.885 295.964 235.885 295.624C235.9 295.516 235.891 295.406 235.86 295.301C235.828 295.196 235.774 295.098 235.701 295.012C235.539 294.868 235.334 294.773 235.113 294.74C235.113 294.74 224.088 293.754 220.009 286.172C215.929 278.59 219.531 275.972 219.678 275.972C219.828 275.832 219.913 275.643 219.913 275.445C219.913 275.248 219.828 275.058 219.678 274.918C218.616 273.474 218.048 271.768 218.048 270.022C218.048 268.276 218.616 266.57 219.678 265.126C219.762 264.918 219.762 264.688 219.678 264.48C219.27 263.271 219.161 261.993 219.358 260.739C219.555 259.486 220.054 258.289 220.817 257.238C222.936 255.273 225.793 254.141 228.792 254.076C228.929 254.076 229.065 254.045 229.186 253.986C229.308 253.927 229.412 253.841 229.49 253.736C229.562 253.629 229.6 253.505 229.6 253.379C229.6 253.253 229.562 253.129 229.49 253.022C228.926 251.65 228.732 250.171 228.924 248.714C229.116 247.257 229.689 245.865 230.593 244.658C231.753 243.259 233.261 242.14 234.988 241.394C236.715 240.649 238.611 240.299 240.515 240.374C244.466 240.508 248.293 241.688 251.54 243.774C252.349 244.284 253.12 244.794 253.782 245.27C254.794 246.172 256.073 246.776 257.457 247.004C258.082 247.004 258.927 246.766 259.368 245.508C260.253 241.437 260.5 237.269 260.103 233.132C259.77 229.977 259.931 226.793 260.581 223.68C264.733 215.656 268.519 214.432 270.393 214.432C271.149 214.465 271.883 214.676 272.526 215.045C273.169 215.414 273.7 215.928 274.068 216.54C274.457 217.061 274.697 217.664 274.768 218.294C274.839 218.924 274.737 219.56 274.472 220.144C271.532 225.38 272.157 234.764 272.855 245.61C273.223 250.914 273.553 256.388 273.553 261.896C273.553 263.902 273.553 265.738 273.259 267.54C272.598 272.364 272.96 277.261 274.325 281.956C276.052 287.872 286.122 340.198 287.555 347.576L242.316 350.636Z" fill="#0E0E27"/>
<path d="M263.3 296.678C263.189 296.664 263.076 296.67 262.967 296.697C262.859 296.723 262.757 296.77 262.668 296.833C262.579 296.896 262.505 296.975 262.449 297.065C262.394 297.156 262.358 297.255 262.345 297.358L258.412 322.144C258.38 322.351 258.434 322.561 258.564 322.732C258.694 322.903 258.889 323.021 259.111 323.062C259.317 323.064 259.517 322.995 259.672 322.87C259.828 322.745 259.929 322.571 259.956 322.382L263.888 297.596C263.926 297.403 263.887 297.204 263.779 297.036C263.671 296.867 263.501 296.74 263.3 296.678Z" fill="#0E0E27"/>
<path d="M242.536 259.618C238.31 256.218 235.186 255.232 233.018 256.218C230.85 257.204 230.629 260.366 230.629 260.502C230.629 260.71 230.718 260.908 230.877 261.055C231.035 261.202 231.25 261.284 231.475 261.284C231.699 261.284 231.914 261.202 232.072 261.055C232.231 260.908 232.32 260.71 232.32 260.502C232.32 260.502 232.32 258.258 233.716 257.646C234.562 257.272 236.656 257.204 241.397 260.842C245.293 263.834 246.616 267.098 245.072 269.784C243.529 272.47 238.09 274.816 231.622 273.184C226.806 271.248 222.633 268.162 219.531 264.242C219.474 264.134 219.393 264.04 219.292 263.964C219.192 263.889 219.074 263.835 218.949 263.806C218.823 263.778 218.692 263.775 218.565 263.799C218.438 263.822 218.319 263.871 218.214 263.942C218.11 264.013 218.024 264.104 217.962 264.209C217.901 264.315 217.865 264.431 217.857 264.551C217.849 264.67 217.87 264.79 217.918 264.901C217.966 265.012 218.04 265.112 218.134 265.194C221.458 269.4 225.955 272.691 231.144 274.714C232.812 275.181 234.546 275.422 236.289 275.428C238.299 275.554 240.309 275.187 242.116 274.363C243.923 273.539 245.463 272.288 246.579 270.736C248.563 267.166 246.91 263.018 242.536 259.618Z" fill="#0E0E27"/>
<path d="M243.712 271.79C243.565 271.945 243.484 272.145 243.484 272.351C243.484 272.557 243.565 272.757 243.712 272.912C245.041 273.756 245.988 275.023 246.374 276.47C246.761 277.918 246.559 279.447 245.807 280.766C244.275 282.765 242.065 284.232 239.527 284.934C236.99 285.636 234.272 285.534 231.805 284.642C227.032 282.664 222.956 279.483 220.045 275.462C219.924 275.286 219.731 275.162 219.511 275.118C219.29 275.073 219.059 275.111 218.869 275.224C218.679 275.337 218.545 275.515 218.497 275.719C218.449 275.923 218.49 276.136 218.612 276.312C221.704 280.689 226.129 284.12 231.328 286.172C232.899 286.623 234.534 286.852 236.179 286.852C238.354 286.918 240.511 286.464 242.442 285.535C244.373 284.606 246.013 283.233 247.204 281.548C248.159 279.914 248.436 278.014 247.983 276.204C247.529 274.394 246.376 272.8 244.741 271.722C244.584 271.632 244.4 271.59 244.215 271.602C244.03 271.614 243.854 271.68 243.712 271.79Z" fill="#0E0E27"/>
<path d="M240.258 289.606C240.026 289.596 239.798 289.667 239.621 289.806C239.444 289.945 239.33 290.141 239.302 290.354C238.898 294.842 235.26 294.774 234.856 294.74C234.63 294.739 234.411 294.814 234.242 294.952C234.073 295.09 233.964 295.281 233.937 295.488C233.927 295.699 234.005 295.905 234.156 296.064C234.307 296.222 234.518 296.321 234.745 296.338C235.567 296.338 236.38 296.186 237.137 295.89C237.894 295.594 238.579 295.161 239.151 294.615C239.724 294.07 240.172 293.424 240.469 292.715C240.767 292.007 240.907 291.25 240.883 290.49C240.901 290.299 240.85 290.108 240.737 289.947C240.623 289.787 240.454 289.667 240.258 289.606Z" fill="#0E0E27"/>
<path d="M249.85 289.334L253.525 259.754C253.525 259.754 241.801 275.02 249.85 289.334Z" fill="white"/>
<path d="M252.606 259.278C252.606 259.278 240.883 275.122 248.931 289.674C248.998 289.803 249.102 289.912 249.232 289.99C249.361 290.068 249.511 290.112 249.666 290.116C249.798 290.151 249.938 290.151 250.07 290.116C250.173 290.073 250.265 290.011 250.34 289.933C250.415 289.855 250.471 289.764 250.506 289.664C250.541 289.565 250.552 289.46 250.541 289.356C250.529 289.253 250.494 289.152 250.438 289.062C242.72 275.462 253.745 260.468 253.855 260.298C253.918 260.213 253.962 260.118 253.985 260.017C254.008 259.917 254.009 259.813 253.989 259.712C253.969 259.611 253.927 259.514 253.866 259.428C253.805 259.342 253.727 259.268 253.635 259.21C253.477 259.12 253.293 259.078 253.108 259.09C252.924 259.103 252.748 259.168 252.606 259.278Z" fill="#0E0E27"/>
<path d="M281.675 292.156C281.675 292.156 257.935 298.242 221.589 326.904C220.823 357.102 222.766 387.307 227.395 417.208C230.152 434.208 238.42 448.318 254.995 454.37C293.031 468.344 312.619 440.974 312.619 414.352L296.008 371.002L281.675 292.156Z" fill="#5E5AD7"/>
<path d="M293.288 452.16C283.145 458.518 270.025 458.96 255.289 453.656C240.552 448.352 231.254 435.874 228.241 417.106C223.676 387.359 221.734 357.317 222.434 327.278C254.26 302.39 276.31 294.638 281.014 293.21L295.162 371.138L296.853 370.866L282.557 292.02C282.53 291.914 282.48 291.815 282.41 291.727C282.341 291.64 282.253 291.566 282.153 291.51C282.045 291.459 281.925 291.433 281.804 291.433C281.682 291.433 281.563 291.459 281.455 291.51C281.234 291.51 257.053 297.97 221.001 326.394C220.907 326.463 220.831 326.551 220.78 326.651C220.729 326.751 220.704 326.861 220.707 326.972C219.991 357.227 221.945 387.485 226.55 417.446C229.6 436.554 239.339 449.61 254.664 455.22C260.911 457.627 267.595 458.919 274.362 459.028C281.455 459.093 288.397 457.134 294.244 453.418C306.114 445.972 313.501 430.978 313.501 414.318H311.773C311.773 430.502 304.681 444.986 293.288 452.16Z" fill="#00162C"/>
<path d="M252.312 249.418C241.691 241.258 240.772 250.608 240.772 250.608L229.123 253.736C232.333 257.82 236.675 261.027 241.691 263.018C253.194 266.146 262.933 257.51 252.312 249.418Z" fill="white"/>
<path d="M252.863 248.738C248.894 245.678 245.513 244.624 243.271 245.542C242.318 246.045 241.513 246.758 240.929 247.618C240.346 248.478 240.002 249.459 239.927 250.472C239.917 250.575 239.929 250.678 239.962 250.777C239.996 250.875 240.05 250.967 240.122 251.046C240.193 251.125 240.281 251.19 240.38 251.237C240.48 251.285 240.588 251.314 240.699 251.322C240.811 251.336 240.925 251.329 241.034 251.3C241.142 251.271 241.243 251.221 241.33 251.154C241.416 251.087 241.487 251.003 241.536 250.909C241.586 250.815 241.614 250.713 241.618 250.608C241.618 250.608 241.948 247.752 243.933 247.004C245.917 246.256 248.38 247.344 251.761 249.962C255.142 252.58 256.942 256.184 255.436 258.904C253.929 261.624 248.453 263.936 242.022 262.134C237.205 260.183 233.024 257.1 229.894 253.192C229.816 253.117 229.721 253.057 229.617 253.017C229.513 252.976 229.401 252.955 229.288 252.955C229.175 252.955 229.063 252.976 228.959 253.017C228.855 253.057 228.76 253.117 228.682 253.192C228.502 253.314 228.382 253.497 228.348 253.701C228.313 253.905 228.367 254.113 228.498 254.28C231.821 258.486 236.318 261.777 241.507 263.8C243.171 264.292 244.906 264.544 246.652 264.548C248.676 264.648 250.692 264.243 252.489 263.376C254.287 262.509 255.799 261.211 256.869 259.618C258.853 256.218 257.347 252.206 252.863 248.738Z" fill="#0E0E27"/>
<path d="M450.027 387.186L442.677 390.994L450.468 370.594C450.504 370.46 450.504 370.32 450.468 370.186C449.843 367.704 435.511 309.292 412.652 290.966C412.488 290.823 412.271 290.743 412.046 290.743C411.82 290.743 411.603 290.823 411.439 290.966C411.358 291.039 411.294 291.126 411.25 291.222C411.206 291.319 411.183 291.422 411.183 291.527C411.183 291.632 411.206 291.735 411.25 291.832C411.294 291.928 411.358 292.015 411.439 292.088C433.195 309.496 447.638 366.174 448.667 370.288L440.178 392.592C440.125 392.747 440.121 392.912 440.167 393.069C440.212 393.225 440.306 393.367 440.435 393.476C440.581 393.568 440.754 393.617 440.931 393.617C441.108 393.617 441.281 393.568 441.427 393.476L449.329 389.294C449.145 414.692 443.485 516.522 443.412 517.576C443.407 517.679 443.424 517.781 443.462 517.878C443.5 517.975 443.558 518.063 443.633 518.139C443.708 518.215 443.799 518.276 443.9 518.32C444 518.363 444.109 518.388 444.22 518.392C444.438 518.392 444.648 518.314 444.805 518.175C444.963 518.036 445.056 517.845 445.066 517.644C445.066 516.59 450.982 410.816 450.982 387.934C450.985 387.798 450.949 387.664 450.878 387.544C450.807 387.425 450.704 387.325 450.578 387.254C450.406 387.179 450.214 387.155 450.027 387.186Z" fill="#0E0E27"/>
<path d="M347.972 393.238L363.664 396.4C363.841 396.443 364.027 396.429 364.194 396.361C364.361 396.293 364.498 396.175 364.583 396.026C364.691 395.887 364.749 395.721 364.749 395.55C364.749 395.379 364.691 395.213 364.583 395.074L337.719 371.274C337.388 366.786 334.044 314.63 341.688 294.944C341.76 294.745 341.747 294.529 341.651 294.339C341.555 294.149 341.384 294 341.173 293.924C340.959 293.857 340.724 293.869 340.519 293.958C340.314 294.047 340.153 294.205 340.071 294.4C331.839 315.174 335.845 369.37 336.028 371.682C336.032 371.779 336.056 371.874 336.1 371.962C336.145 372.049 336.208 372.128 336.286 372.192L361.202 394.326L347.164 391.47C347.018 391.449 346.869 391.46 346.729 391.501C346.589 391.543 346.461 391.613 346.355 391.708C346.217 391.848 346.139 392.029 346.135 392.218C352.088 416.97 375.13 516.08 375.535 517.066C375.576 517.246 375.682 517.408 375.836 517.525C375.989 517.643 376.181 517.708 376.38 517.712C376.492 517.692 376.599 517.651 376.694 517.592C376.788 517.533 376.869 517.456 376.931 517.367C376.993 517.278 377.034 517.178 377.053 517.074C377.072 516.97 377.068 516.863 377.041 516.76C376.674 515.876 354.33 419.826 347.972 393.238Z" fill="#0E0E27"/>
<path d="M403.06 298.718C402.952 298.687 402.838 298.677 402.724 298.687C402.611 298.698 402.502 298.73 402.402 298.781C402.303 298.831 402.216 298.9 402.145 298.983C402.075 299.066 402.024 299.161 401.995 299.262C401.995 299.262 399.569 306.81 382.223 306.81C372.125 306.973 362.105 305.154 352.823 301.472C352.724 301.425 352.616 301.397 352.505 301.388C352.394 301.38 352.283 301.392 352.177 301.423C352.071 301.455 351.973 301.506 351.889 301.572C351.804 301.639 351.734 301.72 351.684 301.812C351.579 302.002 351.559 302.222 351.628 302.425C351.697 302.629 351.849 302.799 352.051 302.9C361.629 306.717 371.981 308.584 382.407 308.374C401.223 308.374 403.759 300.01 403.832 299.67C403.866 299.559 403.872 299.443 403.849 299.329C403.826 299.216 403.776 299.109 403.701 299.017C403.626 298.925 403.53 298.85 403.418 298.798C403.307 298.746 403.185 298.719 403.06 298.718Z" fill="#0E0E27"/>
</g>
</g>
<defs>
<clipPath id="clip0_17_1960">
<rect width="735" height="510" fill="white"/>
</clipPath>
</defs>
</svg>
