<svg width="592" height="669" viewBox="0 0 592 669" fill="none" xmlns="http://www.w3.org/2000/svg">
<path d="M181.598 658.109C181.598 652.098 237.778 647.227 307.075 647.227C376.373 647.227 432.549 652.098 432.549 658.109C432.549 664.12 376.373 668.991 307.075 668.991C237.778 668.991 181.598 664.112 181.598 658.109Z" fill="#E9EFFF"/>
<path d="M138.369 623.378C141.003 633.597 133.652 639.551 129.029 642.659C128.442 639.46 126.741 626.361 138.369 623.378Z" fill="#A6A2E1"/>
<path d="M137.895 625.645C137.759 625.646 137.624 625.615 137.5 625.554C137.381 625.497 137.273 625.415 137.183 625.311C137.093 625.208 137.022 625.087 136.975 624.953C136.928 624.82 136.905 624.678 136.908 624.535C136.91 624.392 136.939 624.251 136.991 624.12C151.363 587.912 173.605 560.967 189.622 547.825C189.726 547.731 189.845 547.66 189.974 547.618C190.103 547.576 190.238 547.564 190.371 547.581C190.505 547.598 190.633 547.646 190.75 547.72C190.866 547.794 190.967 547.893 191.048 548.012C191.128 548.13 191.186 548.266 191.217 548.409C191.248 548.553 191.253 548.703 191.23 548.849C191.207 548.994 191.157 549.134 191.084 549.258C191.011 549.382 190.916 549.488 190.804 549.57C175.003 562.549 153.019 589.177 138.801 624.994C138.724 625.188 138.597 625.353 138.436 625.469C138.275 625.585 138.087 625.646 137.895 625.645ZM177.232 554.483C158.319 559.722 151.72 545.71 146.317 535.24C152.201 534.12 172.475 528.439 177.232 554.483ZM163.671 568.65C149.914 576.887 142.243 567.443 136.132 560.498C140.516 558.329 155.248 549.449 163.671 568.65ZM151.961 587C141.969 596.928 133.838 590.74 127.463 586.289C130.74 583.507 141.433 572.822 151.961 587ZM141.999 605.694C137.599 613.525 131.77 611.372 127.267 609.945C128.782 607.659 133.484 599.241 141.999 605.694ZM182.876 563.806C175.436 580.906 185.28 589.657 192.532 596.663C194.462 591.239 202.49 572.924 182.876 563.806Z" fill="#A6A2E1"/>
<path d="M168.401 579.521C159.982 592.988 167.295 601.902 172.626 608.946C174.92 604.608 183.992 590.191 168.401 579.521ZM153.888 600.846C150.669 611.444 157 615.774 161.709 619.286C162.472 615.963 165.955 604.604 153.888 600.846ZM145.026 615.974C142.154 621.652 145.369 624.888 147.719 627.458C148.478 625.641 151.573 619.547 145.026 615.974Z" fill="#A6A2E1"/>
<path d="M271.173 574.15C248.797 568.367 234.123 585.691 231.67 615.407C252.795 616.167 276.308 601.251 271.173 574.15Z" fill="#CED3F8"/>
<path d="M267.896 500.165C285.83 458.988 263.839 423.78 217.329 407.455C207.883 448.178 222.588 499.612 267.896 500.165Z" fill="#A6A2E1"/>
<path d="M267.896 501.255C267.735 501.255 267.576 501.212 267.434 501.129C267.292 501.047 267.169 500.928 267.078 500.782C262.613 493.533 256.055 480.744 249.13 467.205C240.759 450.839 231.268 432.281 223.186 419.094C223.107 418.976 223.05 418.841 223.019 418.698C222.989 418.555 222.985 418.407 223.007 418.262C223.03 418.117 223.079 417.979 223.151 417.855C223.224 417.732 223.318 417.626 223.429 417.544C223.539 417.462 223.664 417.405 223.795 417.377C223.926 417.349 224.06 417.351 224.191 417.382C224.321 417.413 224.444 417.472 224.553 417.557C224.662 417.642 224.754 417.75 224.824 417.875C232.955 431.123 242.463 449.73 250.855 466.138C257.756 479.635 264.279 492.383 268.717 499.552C268.818 499.715 268.877 499.907 268.887 500.104C268.896 500.302 268.857 500.499 268.773 500.674C268.689 500.85 268.563 500.996 268.409 501.098C268.255 501.201 268.079 501.255 267.899 501.255H267.896Z" fill="#CED3F8"/>
<path d="M462.952 99.8216C483.94 84.621 482.511 58.777 463 34.2805C446.543 52.1798 439.587 83.9246 462.952 99.8216Z" fill="#5652CC"/>
<path d="M463.886 103.395C497.598 118.266 524.243 95.0335 534.483 49.2691C501.623 42.562 461.685 59.7232 463.886 103.395Z" fill="#807DFB"/>
<path d="M463.886 104.484C463.681 104.484 463.481 104.413 463.314 104.282C463.147 104.15 463.021 103.965 462.953 103.751C462.886 103.537 462.881 103.306 462.939 103.089C462.996 102.871 463.114 102.679 463.275 102.539C468.771 97.7926 478.53 90.7487 488.866 83.2885C501.362 74.2726 515.528 64.0493 525.514 55.499C525.615 55.4015 525.734 55.3279 525.862 55.2826C525.99 55.2373 526.125 55.2213 526.259 55.2355C526.393 55.2498 526.523 55.294 526.641 55.3656C526.759 55.4371 526.862 55.5343 526.945 55.6514C527.028 55.7685 527.088 55.903 527.122 56.0465C527.155 56.1901 527.162 56.3397 527.142 56.4863C527.121 56.6329 527.074 56.7734 527.002 56.8991C526.931 57.0248 526.837 57.1331 526.726 57.2174C516.675 65.8245 502.479 76.0705 489.951 85.1129C479.646 92.5466 469.918 99.5678 464.498 104.254C464.323 104.403 464.108 104.484 463.886 104.484Z" fill="#5652CC"/>
<path d="M274.092 549.858C278.857 535.543 279.729 496.156 250.734 485.017C237.613 479.975 233.903 479.487 228.939 482.368C225.717 484.26 223.88 487.583 220.764 486.565C215.065 484.695 221.633 461.667 201.562 452.742C181.492 443.817 172.241 457.727 166.848 455.252C161.455 452.776 162.328 442.871 151.954 442.485C141.58 442.099 140.574 460.471 127.167 461.955C113.221 463.503 90.605 471.588 91.9103 485.861C93.2156 500.134 103.933 498.352 110.116 505.543C116.299 512.735 118.216 540.978 138.819 538.692C159.291 536.421 166.587 532.348 177.954 557.239C189.32 582.129 214.938 585.429 225.7 578.279C236.462 571.13 235.837 578.98 231.141 585.172C226.446 591.364 237.733 592.897 245.857 588.155C253.98 583.412 268.112 567.833 274.092 549.858Z" fill="#E9EDF7"/>
<path d="M279.743 555.535C279.508 555.535 279.28 555.443 279.101 555.274C226.583 505.91 160.308 487.595 115.79 486.91C115.661 486.908 115.532 486.878 115.413 486.821C115.294 486.764 115.186 486.682 115.095 486.58C115.004 486.477 114.933 486.356 114.885 486.223C114.837 486.09 114.813 485.948 114.815 485.804C114.829 485.519 114.94 485.25 115.125 485.051C115.311 484.851 115.559 484.737 115.818 484.729C160.679 485.422 227.455 503.878 280.354 553.616C280.506 553.759 280.616 553.949 280.668 554.162C280.72 554.374 280.712 554.599 280.646 554.807C280.58 555.015 280.458 555.195 280.297 555.325C280.136 555.455 279.943 555.529 279.743 555.535Z" fill="#A6A2E1"/>
<path d="M154.544 491.243C154.346 491.243 154.153 491.178 153.989 491.056C153.825 490.934 153.698 490.761 153.624 490.558C152.373 487.122 148.976 472.39 150.223 463.276C150.262 462.99 150.403 462.733 150.614 462.561C150.825 462.389 151.09 462.317 151.35 462.36C151.609 462.403 151.843 462.558 151.999 462.791C152.154 463.024 152.22 463.315 152.181 463.602C151.006 472.167 154.3 486.554 155.461 489.748C155.525 489.915 155.55 490.096 155.535 490.275C155.519 490.455 155.464 490.627 155.373 490.777C155.282 490.928 155.159 491.05 155.014 491.135C154.869 491.22 154.708 491.263 154.544 491.262V491.243ZM130.664 506.122C130.486 506.123 130.311 506.069 130.159 505.967C130.045 505.894 129.946 505.796 129.866 505.68C129.787 505.564 129.73 505.431 129.698 505.29C129.666 505.149 129.66 505.002 129.68 504.858C129.7 504.715 129.746 504.577 129.816 504.453C131.708 500.967 139.55 490.668 143.82 487.421C143.927 487.335 144.048 487.275 144.176 487.242C144.305 487.209 144.438 487.205 144.568 487.229C144.698 487.254 144.822 487.307 144.933 487.385C145.044 487.463 145.14 487.565 145.214 487.685C145.289 487.804 145.342 487.939 145.369 488.081C145.396 488.223 145.396 488.37 145.371 488.512C145.346 488.655 145.295 488.791 145.222 488.911C145.148 489.032 145.053 489.135 144.943 489.215C140.942 492.243 133.288 502.303 131.516 505.573C131.43 505.739 131.306 505.876 131.156 505.973C131.007 506.069 130.837 506.121 130.664 506.122ZM196.444 503.499C196.261 503.499 196.081 503.443 195.925 503.337C195.769 503.23 195.643 503.078 195.561 502.897C193.974 499.408 189.152 488.791 191.642 471.652C191.657 471.505 191.698 471.363 191.764 471.234C191.83 471.105 191.919 470.993 192.025 470.903C192.132 470.813 192.254 470.748 192.384 470.712C192.514 470.676 192.65 470.67 192.782 470.693C192.915 470.716 193.041 470.769 193.155 470.848C193.268 470.927 193.366 471.031 193.442 471.153C193.518 471.275 193.57 471.413 193.596 471.558C193.622 471.703 193.621 471.852 193.593 471.997C191.189 488.443 195.816 498.59 197.33 501.925C197.446 502.183 197.465 502.482 197.382 502.756C197.299 503.029 197.121 503.256 196.887 503.386C196.749 503.46 196.598 503.499 196.444 503.499ZM160.504 517.614C160.316 517.613 160.132 517.553 159.973 517.442C159.815 517.33 159.689 517.171 159.609 516.983C159.53 516.795 159.501 516.586 159.526 516.381C159.55 516.175 159.627 515.982 159.748 515.823C164.131 510.044 175.419 497.735 179.973 495.763C180.215 495.669 180.481 495.682 180.714 495.799C180.948 495.917 181.13 496.13 181.224 496.393C181.318 496.656 181.315 496.949 181.216 497.21C181.117 497.471 180.93 497.679 180.695 497.791C176.59 499.567 165.636 511.455 161.266 517.22C161.173 517.343 161.056 517.442 160.925 517.51C160.793 517.578 160.649 517.613 160.504 517.614ZM212.967 533.711C212.779 533.712 212.594 533.653 212.436 533.542C212.277 533.43 212.15 533.272 212.071 533.084C211.992 532.896 211.963 532.687 211.987 532.482C212.012 532.276 212.09 532.083 212.211 531.925C212.805 531.137 213.43 530.278 214.086 529.377C217.521 524.635 221.832 518.73 227.198 515.865C227.432 515.751 227.697 515.742 227.938 515.84C228.178 515.937 228.375 516.133 228.486 516.387C228.598 516.641 228.616 516.933 228.536 517.201C228.457 517.469 228.286 517.693 228.06 517.825C223.096 520.475 218.957 526.152 215.629 530.74C214.962 531.656 214.33 532.526 213.729 533.321C213.636 533.444 213.519 533.543 213.387 533.61C213.256 533.677 213.112 533.712 212.967 533.711ZM244.363 527.882C244.201 527.884 244.043 527.841 243.9 527.759C243.757 527.676 243.635 527.556 243.545 527.409C239.863 521.455 237.018 508.106 237.173 497.61C237.177 497.324 237.282 497.052 237.467 496.851C237.651 496.651 237.9 496.539 238.159 496.539H238.18C238.309 496.541 238.437 496.572 238.556 496.629C238.675 496.686 238.783 496.768 238.873 496.872C238.963 496.975 239.034 497.096 239.081 497.229C239.128 497.363 239.151 497.505 239.148 497.648C238.987 507.742 241.69 520.543 245.177 526.179C245.279 526.342 245.339 526.533 245.349 526.731C245.36 526.929 245.321 527.127 245.237 527.302C245.154 527.478 245.028 527.624 244.873 527.727C244.719 527.829 244.543 527.883 244.363 527.882ZM349.838 533.113C346.231 529.067 352.538 476.13 361.805 476.8C369.019 477.318 368.675 485.767 368.332 488.821C367.796 493.636 365.814 505.123 369.111 504.998C375.078 504.771 376.72 475.017 377.524 467.795C378.328 460.574 381.677 446.789 388.265 443.314C394.853 439.839 397.883 439.26 395.822 451.811C393.761 464.362 386.946 488.526 394.197 483.73C401.448 478.935 402.785 458.817 407.401 447.599C412.018 436.38 424.233 416.755 428.557 424.669C432.418 431.747 414.663 462.398 420.386 463.174C424.968 463.795 426.892 453.484 434.15 439.385C441.408 425.286 448.384 412.057 456.388 416.035C462.811 419.234 456.436 427.179 452.609 434.836C448.783 442.493 443.823 453.382 448.288 452.716C452.754 452.05 468.173 412.621 479.595 415.244C487.152 416.97 481.432 424.23 477.438 433.412C473.443 442.595 472.656 446.157 474.566 446.414C476.476 446.671 483.689 435.248 487.502 428.855C491.315 422.462 498.765 414.737 504.292 418.443C509.819 422.148 502.75 431.69 499.394 434.555C496.038 437.421 493.95 441.709 494.729 442.803C495.509 443.897 507.188 435.328 510.245 442.652C513.302 449.976 501.417 456.959 494.166 455.979C486.915 454.998 477.084 453.946 476.757 456.861C476.431 459.775 484.83 460.914 491.445 461.811C498.061 462.708 500.507 464.73 500.291 466.675C499.566 473.155 490.329 477.451 485.52 476.792C480.711 476.134 454.018 468.579 453.537 472.882C453.056 477.186 463.33 478.863 468.675 479.586C474.02 480.309 486.485 482 485.682 489.222C484.878 496.444 467.648 498.053 457.545 495.978C447.443 493.904 431.312 489.165 430.938 492.515C430.564 495.865 442.923 502.034 449.411 502.913C455.9 503.791 467.881 501.751 466.889 510.638C465.896 519.525 455.79 519.987 443.05 518.261C437.726 517.542 424.566 515.611 417.974 509.707C410.465 502.992 405.722 501.001 404.234 502.852C401.239 506.531 408.566 511.47 414.519 513.688C420.472 515.906 439.343 521.561 434.665 531.077C429.986 540.592 415.858 531.773 409.857 528.844C403.856 525.914 383.535 513.579 381.051 518.458C378.568 523.336 390.855 526.69 394.561 528.181C398.268 529.673 405.052 535.452 402.118 537.947C399.185 540.441 356.271 540.327 349.838 533.113Z" fill="#A6A2E1"/>
<path d="M356.611 542.417C360.284 527.545 378.915 512.137 392.518 514.321C406.12 516.505 407.762 530.789 415.429 529.722C423.096 528.655 433.171 514.275 443.187 517.882C460.984 524.29 446.341 554.218 459.012 560.43C471.684 566.641 478.887 549.381 491.559 553.132C504.231 556.883 490.844 580.819 503.489 591.626C516.133 602.432 539.182 630.755 522.749 643.454C509.761 653.488 505.732 631.784 498.889 631.504C491.081 631.183 489.529 642.046 480.996 639.616C468.939 636.186 469.52 618.022 459.205 617.008C448.889 615.993 444.984 630.437 434.188 621.213C420.822 609.794 438.193 587.447 416.346 582.931C394.5 578.416 401.036 609.146 387.193 608.454C372.079 607.697 376.246 577.962 366.137 580.123C352.38 583.064 350.916 565.486 356.611 542.417Z" fill="#E9EDF7"/>
<path d="M504.488 622.844C504.39 622.844 504.293 622.829 504.2 622.799C503.949 622.715 503.738 622.524 503.615 622.27C503.491 622.015 503.464 621.716 503.54 621.44C503.578 621.304 504.423 617.874 501.136 614.759C499.762 613.446 497.281 613.272 494.156 613.052C488.502 612.674 480.759 612.11 472.57 604.415C468.177 600.285 467.177 596.588 466.291 593.325C465.405 590.062 464.601 587.083 460.599 583.666C455.876 579.631 453.2 579.619 450.366 579.604C447.725 579.604 444.99 579.581 441.009 576.198C436.918 572.704 435.798 568.707 434.898 565.498C433.968 562.167 433.291 559.763 430.062 558.359C426.153 556.66 421.78 557.432 416.717 558.321C409.73 559.555 401.816 560.971 392.548 556.345C387.969 554.074 384.73 550.316 381.594 546.686C379.719 544.51 377.946 542.454 375.919 540.725C372.399 537.697 367.05 538.563 362.753 539.245C360.754 539.563 359.03 539.835 357.762 539.661C357.628 539.651 357.498 539.61 357.379 539.542C357.26 539.474 357.154 539.381 357.069 539.266C356.984 539.152 356.921 539.02 356.883 538.878C356.846 538.737 356.835 538.588 356.851 538.441C356.867 538.295 356.911 538.153 356.978 538.025C357.046 537.898 357.136 537.786 357.244 537.698C357.351 537.61 357.474 537.547 357.605 537.513C357.735 537.479 357.87 537.475 358.002 537.5C359.009 537.632 360.613 537.379 362.468 537.087C366.892 536.387 372.945 535.429 377.129 539.003C379.272 540.834 381.182 543.045 383.026 545.183C386.029 548.662 389.13 552.258 393.359 554.358C402.087 558.696 409.696 557.356 416.401 556.171C421.529 555.267 426.362 554.415 430.787 556.33C434.909 558.121 435.816 561.391 436.784 564.854C437.688 568.075 438.622 571.402 442.218 574.479C445.653 577.424 447.845 577.435 450.373 577.447C453.269 577.447 456.556 577.473 461.808 581.966C466.311 585.812 467.263 589.324 468.184 592.719C469.066 595.982 469.901 599.063 473.851 602.776C481.532 610.002 488.9 610.52 494.279 610.899C497.776 611.145 500.534 611.338 502.42 613.124C506.711 617.197 505.477 621.894 505.422 622.091C505.359 622.309 505.235 622.5 505.067 622.635C504.899 622.771 504.696 622.844 504.488 622.844Z" fill="white"/>
<path d="M158.285 432.319C152.874 432.365 147.479 431.671 142.223 430.252C130.661 427.012 122.447 420.248 117.814 410.154C109.869 392.833 115.286 377.932 121.019 362.152C127.126 345.347 133.443 327.97 122.777 306.675C122.696 306.551 122.639 306.408 122.611 306.257C122.583 306.107 122.584 305.951 122.615 305.801C122.645 305.651 122.704 305.509 122.787 305.386C122.871 305.263 122.977 305.16 123.099 305.086C123.221 305.011 123.356 304.966 123.496 304.952C123.635 304.939 123.775 304.959 123.906 305.009C124.038 305.06 124.159 305.141 124.26 305.247C124.362 305.353 124.442 305.481 124.495 305.623C135.614 327.822 129.118 345.687 122.843 362.962C117.278 378.272 112.022 392.731 119.566 409.169C123.931 418.677 131.712 425.066 142.697 428.14C163.307 433.916 189.952 426.459 203.812 415.911C204.028 415.746 204.295 415.683 204.553 415.734C204.811 415.786 205.04 415.949 205.19 416.187C205.339 416.425 205.397 416.718 205.35 417.003C205.303 417.288 205.155 417.54 204.939 417.705C194.146 425.926 175.766 432.319 158.285 432.319ZM168.14 160.139C167.967 160.14 167.797 160.09 167.648 159.995C167.498 159.901 167.373 159.764 167.286 159.6C167.199 159.435 167.153 159.249 167.152 159.058C167.151 158.868 167.196 158.681 167.281 158.515C173.66 146.059 184.429 137.089 194.84 128.413C213.015 113.273 228.709 100.2 217.168 72.8873C210.449 56.9676 201.621 47.2629 190.931 44.0494C178.325 40.2644 163.29 45.1849 144.954 59.0645C125.958 73.4475 101.996 81.4263 92.6901 81.4263C92.4277 81.4263 92.1761 81.3114 91.9906 81.107C91.805 80.9026 91.7008 80.6253 91.7008 80.3362C91.7008 80.0471 91.805 79.7698 91.9906 79.5654C92.1761 79.361 92.4277 79.2461 92.6901 79.2461C101.745 79.2461 125.165 71.4187 143.834 57.2704C162.675 42.9858 178.253 37.9669 191.45 41.945C202.73 45.3515 211.984 55.4385 218.961 71.9676C231.162 100.877 214.09 115.117 196.018 130.154C185.782 138.693 175.182 147.512 169.002 159.587C168.916 159.755 168.79 159.894 168.639 159.991C168.487 160.088 168.315 160.139 168.14 160.139ZM489.058 341.304C481.034 341.267 473.055 339.983 465.357 337.489C444.139 330.737 427.482 314.802 418.448 292.618C410.057 272.016 409.73 248.928 417.566 230.866C434.864 191.002 470.65 195.499 471.011 195.548C471.144 195.56 471.273 195.602 471.391 195.671C471.508 195.74 471.612 195.834 471.696 195.948C471.78 196.062 471.842 196.194 471.879 196.335C471.915 196.477 471.925 196.625 471.909 196.77C471.892 196.916 471.849 197.057 471.781 197.184C471.714 197.31 471.624 197.421 471.517 197.509C471.411 197.596 471.289 197.659 471.159 197.694C471.029 197.728 470.895 197.733 470.763 197.709C470.678 197.709 461.973 196.574 451.332 200.196C441.549 203.542 428.059 211.74 419.352 231.804C411.76 249.299 412.097 271.698 420.252 291.728C429.042 313.303 445.255 328.821 465.903 335.396C511.375 349.87 547.312 320.396 559.304 283.799C559.395 283.527 559.58 283.307 559.819 283.186C560.058 283.065 560.33 283.053 560.577 283.154C560.823 283.254 561.023 283.458 561.133 283.721C561.243 283.984 561.253 284.284 561.162 284.556C554.775 304.178 542.18 320.604 525.689 330.82C514.503 337.735 501.884 341.347 489.058 341.304Z" fill="#F1F1F6"/>
<path d="M190.777 434.59C187.28 431.161 184.785 426.667 183.607 421.676C182.429 416.685 182.62 411.421 184.157 406.55C185.694 401.679 188.507 397.419 192.241 394.31C195.975 391.2 200.462 389.381 205.134 389.081C209.806 388.781 214.454 390.015 218.49 392.626C222.526 395.238 225.769 399.109 227.808 403.751C229.847 408.393 230.592 413.597 229.947 418.705C229.302 423.812 227.297 428.595 224.185 432.447C220.013 437.613 214.149 440.741 207.884 441.143C201.618 441.544 195.465 439.187 190.777 434.59Z" fill="#423EAF"/>
<path d="M208.58 411.653C208.66 410.611 208.536 409.562 208.216 408.578C207.896 407.594 207.388 406.697 206.725 405.949L206.663 405.888C206.564 405.774 205.334 404.552 205.228 404.446C202.521 401.796 198.447 401.978 196.121 404.859C193.796 407.739 194.105 412.217 196.808 414.87L198.32 416.354V416.331C199.07 416.97 199.937 417.423 200.862 417.66C201.786 417.896 202.745 417.91 203.675 417.701C202.212 419.79 198.966 428.92 206.028 433.076L214.358 422.758L222.722 412.463C217.714 405.388 210.274 409.813 208.58 411.653Z" fill="#807DFB"/>
<path d="M75.0169 64.4582C78.2731 61.2238 82.3266 59.1259 86.6649 58.4299C91.0031 57.7339 95.4312 58.471 99.3893 60.5481C103.347 62.6251 106.658 65.9487 108.901 70.0987C111.145 74.2487 112.222 79.0387 111.995 83.8629C111.768 88.6871 110.248 93.3289 107.627 97.2013C105.007 101.074 101.403 104.003 97.271 105.618C93.1394 107.234 88.6659 107.463 84.4161 106.277C80.1663 105.091 76.3312 102.542 73.3956 98.9547C71.4464 96.5724 69.9421 93.7903 68.9686 90.7674C67.9952 87.7444 67.5716 84.5398 67.7222 81.3365C67.8727 78.1331 68.5944 74.9938 69.8461 72.0979C71.0977 69.2019 72.8548 66.6059 75.0169 64.4582Z" fill="#E9EDF7"/>
<path d="M92.5526 85.0788C93.4243 85.2687 94.3228 85.2493 95.1871 85.022C96.0513 84.7947 96.861 84.3648 97.5609 83.7616L97.6158 83.7049C97.7223 83.614 98.8833 82.4785 98.9898 82.3801C101.508 79.8744 101.772 75.6769 99.5772 72.9933C97.3822 70.3097 93.566 70.1697 91.0447 72.6716L89.6363 74.0682H89.6535C89.0344 74.7722 88.5604 75.6152 88.264 76.5395C87.9676 77.4638 87.8557 78.4477 87.936 79.424C86.3215 77.7094 78.9397 73.4361 74.7009 80.2567L82.574 89.8895L90.4332 99.4996C96.9082 95.0939 93.9266 87.0054 92.5526 85.0788Z" fill="#CED3F8"/>
<path d="M540.693 270.945C543.07 266.686 546.539 263.299 550.662 261.213C554.785 259.126 559.377 258.434 563.858 259.223C568.338 260.012 572.506 262.248 575.833 265.646C579.161 269.045 581.499 273.455 582.552 278.318C583.605 283.181 583.326 288.279 581.75 292.967C580.174 297.655 577.372 301.723 573.698 304.657C570.024 307.591 565.643 309.258 561.109 309.448C556.575 309.638 552.092 308.343 548.226 305.725C545.658 303.987 543.427 301.708 541.659 299.02C539.891 296.331 538.62 293.284 537.921 290.055C537.221 286.825 537.106 283.475 537.582 280.196C538.057 276.917 539.115 273.774 540.693 270.945Z" fill="#423EAF"/>
<path d="M563.587 285.775C564.504 285.682 565.391 285.373 566.19 284.869C566.988 284.365 567.679 283.677 568.214 282.853L568.259 282.781C568.338 282.656 569.19 281.157 569.262 281.025C571.1 277.728 570.248 273.455 567.359 271.517C564.47 269.579 560.64 270.646 558.802 273.939L557.772 275.782H557.796C557.369 276.681 557.124 277.67 557.076 278.682C557.028 279.695 557.179 280.707 557.518 281.649C555.457 280.468 547 278.621 544.599 286.736L554.952 293.746L565.301 300.76C570.567 294.318 565.463 287.247 563.587 285.775Z" fill="#807DFB"/>
<path d="M217.089 191.332V177.936C217.088 170.327 214.344 163.029 209.46 157.649C204.577 152.269 197.954 149.246 191.048 149.246H113.589C106.683 149.246 100.06 152.269 95.1762 157.649C90.2927 163.029 87.5488 170.327 87.5479 177.936V215.347C87.5506 222.956 90.2954 230.251 95.1786 235.63C100.062 241.009 106.684 244.03 113.589 244.03H191.048C197.954 244.03 204.578 241.007 209.461 235.626C214.345 230.245 217.089 222.946 217.089 215.336C221.702 215.336 230.602 216.244 236.702 225.506C236.702 209.719 228.18 195.862 217.089 191.332Z" fill="#A6A2E1"/>
<path d="M19.6104 274.155V287.557C19.6113 295.167 22.3553 302.464 27.2388 307.845C32.1223 313.225 38.7453 316.248 45.6511 316.248H123.107C126.527 316.248 129.913 315.507 133.073 314.065C136.232 312.623 139.103 310.51 141.522 307.846C143.94 305.182 145.859 302.019 147.168 298.538C148.477 295.057 149.151 291.326 149.151 287.557V250.139C149.151 246.37 148.477 242.639 147.169 239.157C145.86 235.676 143.941 232.512 141.523 229.848C139.104 227.183 136.233 225.07 133.073 223.628C129.914 222.186 126.527 221.444 123.107 221.445H45.6511C38.7447 221.445 32.1212 224.468 27.2376 229.849C22.354 235.23 19.6104 242.529 19.6104 250.139C14.9972 250.139 6.09712 249.231 0 239.969C0 255.763 8.5188 269.624 19.6104 274.155Z" fill="#6B67E9"/>
<path d="M571.478 185.559V172.168C571.478 164.558 568.734 157.259 563.85 151.878C558.967 146.497 552.343 143.474 545.437 143.474H467.981C461.075 143.474 454.451 146.497 449.567 151.878C444.684 157.259 441.94 164.558 441.94 172.168V209.586C441.942 217.195 444.686 224.492 449.57 229.871C454.453 235.251 461.076 238.273 467.981 238.273H545.44C552.345 238.272 558.966 235.249 563.849 229.87C568.732 224.491 571.476 217.195 571.478 209.586C576.091 209.586 584.991 210.495 591.088 219.757C591.088 203.947 582.569 190.094 571.478 185.559Z" fill="#5652CC"/>
<path d="M357.868 124.685V111.29C357.869 103.68 360.613 96.3829 365.497 91.0026C370.38 85.6222 377.003 82.5996 383.909 82.5996H461.368C468.274 82.5996 474.897 85.6222 479.781 91.0026C484.664 96.3829 487.408 103.68 487.409 111.29V148.701C487.411 152.471 486.74 156.204 485.432 159.687C484.124 163.171 482.206 166.336 479.788 169.003C477.37 171.669 474.498 173.785 471.338 175.228C468.177 176.671 464.79 177.414 461.368 177.414H383.909C377.003 177.414 370.379 174.391 365.496 169.01C360.612 163.628 357.868 156.33 357.868 148.72C353.255 148.72 344.355 149.628 338.255 158.89C338.255 143.073 346.777 129.216 357.868 124.685Z" fill="#A6A2E1"/>
<path d="M34.484 269.238C34.4833 264.081 35.8706 259.039 38.4704 254.751C41.0702 250.462 44.7657 247.119 49.0896 245.145C53.4136 243.171 58.1716 242.654 62.7622 243.66C67.3527 244.666 71.5695 247.149 74.8793 250.795C78.1891 254.442 80.4431 259.088 81.3565 264.146C82.2698 269.204 81.8014 274.447 80.0105 279.212C78.2195 283.977 75.1865 288.049 71.2949 290.915C67.4034 293.78 62.8281 295.309 58.1477 295.309C55.0402 295.31 51.9629 294.637 49.0917 293.327C46.2205 292.017 43.6117 290.097 41.4141 287.676C39.2166 285.255 37.4735 282.38 36.2844 279.217C35.0954 276.053 34.4836 272.662 34.484 269.238Z" fill="#807DFB"/>
<path d="M61.8575 268.632C62.6143 268.008 63.2408 267.211 63.6947 266.297C64.1485 265.383 64.4193 264.373 64.4888 263.333V263.246C64.4888 263.087 64.5094 261.263 64.5094 261.104C64.5094 257.115 61.6755 253.882 58.1752 253.882C54.675 253.882 51.8445 257.118 51.8445 261.108V263.333H51.8686C51.9377 264.373 52.2088 265.384 52.6633 266.298C53.1178 267.213 53.7453 268.009 54.5032 268.632C52.1159 268.818 43.7654 272.213 45.6443 280.79H70.7198C72.1763 271.994 64.2277 268.818 61.8575 268.632Z" fill="#6B67E9"/>
<path d="M425.758 129.999C425.757 124.843 427.144 119.801 429.743 115.513C432.343 111.225 436.038 107.882 440.361 105.908C444.684 103.933 449.442 103.416 454.032 104.42C458.622 105.425 462.839 107.907 466.149 111.552C469.46 115.198 471.715 119.843 472.629 124.9C473.544 129.958 473.077 135.2 471.287 139.965C469.498 144.73 466.466 148.804 462.576 151.67C458.686 154.537 454.112 156.068 449.432 156.07C446.324 156.072 443.246 155.399 440.374 154.089C437.502 152.78 434.892 150.86 432.694 148.439C430.495 146.018 428.751 143.143 427.561 139.979C426.371 136.815 425.758 133.424 425.758 129.999Z" fill="#E9EDF7"/>
<path d="M453.145 129.401C453.902 128.777 454.528 127.981 454.982 127.067C455.435 126.152 455.705 125.141 455.773 124.102V124.011C455.773 123.852 455.794 122.032 455.794 121.873C455.794 117.884 452.96 114.651 449.459 114.651C445.959 114.651 443.132 117.884 443.129 121.873V124.106H443.156C443.224 125.145 443.495 126.157 443.949 127.071C444.403 127.985 445.03 128.781 445.787 129.405C443.383 129.591 435.05 132.989 436.928 141.566H462.004C463.464 132.751 455.512 129.575 453.145 129.401Z" fill="#CED3F8"/>
<path d="M139.118 252.213H91.8657C91.4721 252.213 91.0947 252.041 90.8164 251.734C90.5381 251.428 90.3818 251.012 90.3818 250.578C90.3818 250.144 90.5381 249.728 90.8164 249.422C91.0947 249.115 91.4721 248.943 91.8657 248.943H139.118C139.511 248.943 139.889 249.115 140.167 249.422C140.445 249.728 140.601 250.144 140.601 250.578C140.601 251.012 140.445 251.428 140.167 251.734C139.889 252.041 139.511 252.213 139.118 252.213ZM139.118 264.651H91.8485C91.6479 264.661 91.4473 264.627 91.2591 264.55C91.0708 264.472 90.8988 264.354 90.7534 264.201C90.608 264.048 90.4922 263.865 90.4131 263.661C90.334 263.458 90.2932 263.239 90.2932 263.017C90.2932 262.796 90.334 262.577 90.4131 262.374C90.4922 262.17 90.608 261.986 90.7534 261.834C90.8988 261.681 91.0708 261.562 91.2591 261.485C91.4473 261.408 91.6479 261.374 91.8485 261.384H139.118C139.318 261.374 139.519 261.408 139.707 261.485C139.895 261.562 140.067 261.681 140.213 261.834C140.358 261.986 140.474 262.17 140.553 262.374C140.632 262.577 140.673 262.796 140.673 263.017C140.673 263.239 140.632 263.458 140.553 263.661C140.474 263.865 140.358 264.048 140.213 264.201C140.067 264.354 139.895 264.472 139.707 264.55C139.519 264.627 139.318 264.661 139.118 264.651ZM139.118 277.092H91.8485C91.4549 277.092 91.0775 276.92 90.7992 276.613C90.5209 276.306 90.3646 275.89 90.3646 275.457C90.3646 275.023 90.5209 274.607 90.7992 274.301C91.0775 273.994 91.4549 273.822 91.8485 273.822H139.118C139.511 273.822 139.889 273.994 140.167 274.301C140.445 274.607 140.601 275.023 140.601 275.457C140.601 275.89 140.445 276.306 140.167 276.613C139.889 276.92 139.511 277.092 139.118 277.092ZM139.118 289.529H91.8485C91.4549 289.529 91.0775 289.357 90.7992 289.051C90.5209 288.744 90.3646 288.328 90.3646 287.894C90.3646 287.461 90.5209 287.045 90.7992 286.738C91.0775 286.431 91.4549 286.259 91.8485 286.259H139.118C139.511 286.259 139.889 286.431 140.167 286.738C140.445 287.045 140.601 287.461 140.601 287.894C140.601 288.328 140.445 288.744 140.167 289.051C139.889 289.357 139.511 289.529 139.118 289.529Z" fill="#423EAF"/>
<path d="M416.246 119.193H371.801C371.407 119.193 371.03 119.021 370.752 118.714C370.473 118.408 370.317 117.992 370.317 117.558C370.317 117.124 370.473 116.708 370.752 116.402C371.03 116.095 371.407 115.923 371.801 115.923H416.236C416.63 115.923 417.007 116.095 417.285 116.402C417.564 116.708 417.72 117.124 417.72 117.558C417.72 117.992 417.564 118.408 417.285 118.714C417.007 119.021 416.63 119.193 416.236 119.193H416.246ZM416.246 131.615H371.801C371.407 131.615 371.03 131.443 370.752 131.137C370.473 130.83 370.317 130.414 370.317 129.98C370.317 129.547 370.473 129.131 370.752 128.824C371.03 128.517 371.407 128.345 371.801 128.345H416.236C416.63 128.345 417.007 128.517 417.285 128.824C417.564 129.131 417.72 129.547 417.72 129.98C417.72 130.414 417.564 130.83 417.285 131.137C417.007 131.443 416.63 131.615 416.236 131.615H416.246ZM175.082 212.482C173.989 212.486 172.906 212.25 171.896 211.79C170.886 211.329 169.969 210.652 169.198 209.798C168.193 208.699 166.835 208.082 165.419 208.082C164.004 208.082 162.645 208.699 161.641 209.798C160.078 211.514 157.961 212.477 155.755 212.477C153.549 212.477 151.432 211.514 149.869 209.798C148.865 208.698 147.507 208.081 146.091 208.081C144.675 208.081 143.316 208.698 142.312 209.798C140.751 211.516 138.636 212.481 136.43 212.481C134.224 212.481 132.108 211.516 130.547 209.798C129.541 208.695 128.179 208.076 126.76 208.076C125.341 208.076 123.979 208.695 122.973 209.798C121.411 211.515 119.295 212.479 117.089 212.479C114.883 212.479 112.767 211.515 111.205 209.798C111.067 209.647 110.958 209.466 110.883 209.268C110.808 209.069 110.77 208.857 110.77 208.642C110.77 208.427 110.808 208.215 110.883 208.016C110.958 207.818 111.067 207.638 111.205 207.486C111.343 207.334 111.506 207.213 111.686 207.131C111.866 207.049 112.059 207.007 112.254 207.007C112.449 207.007 112.642 207.049 112.822 207.131C113.002 207.213 113.166 207.334 113.303 207.486C114.309 208.591 115.671 209.211 117.091 209.211C118.51 209.211 119.872 208.591 120.878 207.486C122.44 205.771 124.555 204.807 126.76 204.807C128.965 204.807 131.081 205.771 132.643 207.486C133.645 208.589 135.004 209.208 136.421 209.208C137.838 209.208 139.197 208.589 140.2 207.486C141.761 205.768 143.877 204.802 146.084 204.802C148.29 204.802 150.407 205.768 151.968 207.486C152.972 208.585 154.331 209.202 155.746 209.202C157.162 209.202 158.52 208.585 159.525 207.486C161.088 205.771 163.204 204.809 165.409 204.809C167.614 204.809 169.73 205.771 171.293 207.486C172.296 208.589 173.655 209.208 175.072 209.208C176.488 209.208 177.847 208.589 178.85 207.486C180.411 205.77 182.526 204.806 184.731 204.806C186.936 204.806 189.051 205.77 190.612 207.486C190.873 207.796 191.015 208.205 191.008 208.628C191.001 209.051 190.845 209.454 190.574 209.753C190.303 210.053 189.937 210.225 189.553 210.233C189.17 210.241 188.798 210.086 188.516 209.798C187.512 208.698 186.154 208.081 184.738 208.081C183.322 208.081 181.963 208.698 180.959 209.798C180.189 210.652 179.273 211.328 178.264 211.789C177.256 212.249 176.174 212.485 175.082 212.482ZM175.082 199.314C173.989 199.318 172.906 199.082 171.896 198.622C170.886 198.161 169.969 197.484 169.198 196.63C168.193 195.531 166.835 194.914 165.419 194.914C164.004 194.914 162.645 195.531 161.641 196.63C160.078 198.346 157.961 199.309 155.755 199.309C153.549 199.309 151.432 198.346 149.869 196.63C148.865 195.53 147.507 194.913 146.091 194.913C144.675 194.913 143.316 195.53 142.312 196.63C140.751 198.348 138.636 199.313 136.43 199.313C134.224 199.313 132.108 198.348 130.547 196.63C129.541 195.527 128.179 194.908 126.76 194.908C125.341 194.908 123.979 195.527 122.973 196.63C121.411 198.347 119.295 199.311 117.089 199.311C114.883 199.311 112.767 198.347 111.205 196.63C111.067 196.479 110.958 196.298 110.883 196.1C110.808 195.901 110.77 195.689 110.77 195.474C110.77 195.259 110.808 195.047 110.883 194.848C110.958 194.65 111.067 194.47 111.205 194.318C111.343 194.166 111.506 194.045 111.686 193.963C111.866 193.881 112.059 193.839 112.254 193.839C112.449 193.839 112.642 193.881 112.822 193.963C113.002 194.045 113.166 194.166 113.303 194.318C114.309 195.423 115.671 196.043 117.091 196.043C118.51 196.043 119.872 195.423 120.878 194.318C122.44 192.603 124.555 191.641 126.76 191.641C128.965 191.641 131.08 192.603 132.643 194.318C133.645 195.421 135.004 196.04 136.421 196.04C137.838 196.04 139.197 195.421 140.2 194.318C141.762 192.601 143.878 191.638 146.084 191.638C148.29 191.638 150.406 192.601 151.968 194.318C152.972 195.417 154.331 196.034 155.746 196.034C157.162 196.034 158.52 195.417 159.525 194.318C161.088 192.603 163.204 191.641 165.409 191.641C167.614 191.641 169.73 192.603 171.293 194.318C172.296 195.421 173.655 196.04 175.072 196.04C176.488 196.04 177.847 195.421 178.85 194.318C180.411 192.602 182.526 191.638 184.731 191.638C186.936 191.638 189.051 192.602 190.612 194.318C190.873 194.628 191.015 195.037 191.008 195.46C191.001 195.883 190.845 196.286 190.574 196.585C190.303 196.885 189.937 197.057 189.553 197.065C189.17 197.073 188.798 196.918 188.516 196.63C187.512 195.531 186.153 194.914 184.738 194.914C183.322 194.914 181.964 195.531 180.959 196.63C180.19 197.484 179.274 198.161 178.265 198.622C177.256 199.083 176.174 199.318 175.082 199.314ZM175.082 186.15C173.988 186.154 172.905 185.919 171.895 185.458C170.885 184.996 169.968 184.318 169.198 183.462C168.193 182.363 166.835 181.746 165.419 181.746C164.004 181.746 162.645 182.363 161.641 183.462C160.078 185.179 157.962 186.143 155.755 186.143C153.548 186.143 151.432 185.179 149.869 183.462C148.865 182.362 147.507 181.745 146.091 181.745C144.675 181.745 143.316 182.362 142.312 183.462C141.54 184.314 140.623 184.99 139.614 185.452C138.604 185.913 137.522 186.15 136.43 186.15C135.337 186.15 134.255 185.913 133.246 185.452C132.236 184.99 131.319 184.314 130.547 183.462C129.543 182.363 128.184 181.746 126.769 181.746C125.353 181.746 123.995 182.363 122.99 183.462C121.427 185.178 119.311 186.141 117.104 186.141C114.898 186.141 112.782 185.178 111.218 183.462C110.94 183.156 110.784 182.74 110.784 182.306C110.784 181.872 110.94 181.456 111.218 181.15C111.497 180.843 111.874 180.671 112.268 180.671C112.661 180.671 113.039 180.843 113.317 181.15C114.323 182.253 115.685 182.872 117.104 182.872C118.524 182.872 119.885 182.253 120.891 181.15C122.453 179.434 124.568 178.47 126.774 178.47C128.979 178.47 131.095 179.434 132.656 181.15C133.66 182.25 135.019 182.868 136.435 182.868C137.851 182.868 139.209 182.25 140.213 181.15C141.774 179.432 143.891 178.466 146.097 178.466C148.304 178.466 150.42 179.432 151.982 181.15C152.987 182.247 154.345 182.863 155.76 182.863C157.175 182.863 158.533 182.247 159.539 181.15C161.101 179.433 163.217 178.469 165.423 178.469C167.629 178.469 169.745 179.433 171.307 181.15C172.311 182.25 173.669 182.868 175.085 182.868C176.501 182.868 177.86 182.25 178.864 181.15C179.636 180.299 180.553 179.624 181.562 179.163C182.571 178.703 183.652 178.465 184.745 178.465C185.837 178.465 186.918 178.703 187.927 179.163C188.936 179.624 189.853 180.299 190.625 181.15C190.903 181.456 191.059 181.871 191.059 182.304C191.059 182.737 190.903 183.152 190.625 183.459C190.347 183.765 189.971 183.937 189.578 183.937C189.185 183.937 188.808 183.765 188.53 183.459C187.526 182.358 186.167 181.741 184.751 181.741C183.335 181.741 181.977 182.358 180.973 183.459C180.202 184.316 179.285 184.995 178.273 185.457C177.262 185.919 176.177 186.155 175.082 186.15Z" fill="#BBC0E6"/>
<path d="M175.374 235.192C174.98 235.192 174.601 235.019 174.323 234.711L166.707 226.32C166.446 226.01 166.304 225.601 166.311 225.178C166.318 224.755 166.474 224.351 166.745 224.052C167.016 223.753 167.382 223.581 167.766 223.573C168.149 223.564 168.521 223.72 168.803 224.007L175.374 231.244L188.533 216.744C188.811 216.438 189.188 216.266 189.581 216.266C189.974 216.266 190.351 216.438 190.629 216.744C190.907 217.05 191.063 217.465 191.063 217.898C191.063 218.331 190.907 218.746 190.629 219.053L176.422 234.711C176.144 235.018 175.767 235.191 175.374 235.192Z" fill="#F6F6FB"/>
<path d="M505.209 190.873C505.211 190.019 505.442 189.184 505.874 188.474C506.306 187.764 506.919 187.211 507.637 186.885C508.354 186.559 509.142 186.475 509.903 186.643C510.664 186.811 511.362 187.223 511.91 187.829C512.457 188.434 512.83 189.204 512.98 190.043C513.131 190.881 513.052 191.75 512.755 192.54C512.457 193.329 511.954 194.003 511.308 194.477C510.663 194.952 509.904 195.204 509.129 195.204C508.613 195.204 508.103 195.091 507.627 194.874C507.15 194.656 506.718 194.337 506.354 193.935C505.99 193.532 505.701 193.055 505.505 192.53C505.308 192.004 505.208 191.442 505.209 190.873ZM524.94 190.873C524.942 190.02 525.174 189.186 525.605 188.478C526.037 187.769 526.65 187.217 527.366 186.892C528.082 186.567 528.87 186.483 529.629 186.65C530.389 186.818 531.086 187.23 531.633 187.834C532.18 188.438 532.553 189.207 532.704 190.044C532.855 190.881 532.777 191.749 532.48 192.538C532.184 193.326 531.682 194 531.038 194.475C530.394 194.949 529.637 195.203 528.863 195.204C528.347 195.204 527.836 195.092 527.36 194.875C526.883 194.657 526.45 194.338 526.086 193.936C525.721 193.534 525.432 193.056 525.236 192.531C525.039 192.005 524.939 191.442 524.94 190.873ZM493.321 190.873C493.32 190.019 493.088 189.184 492.656 188.474C492.225 187.764 491.611 187.211 490.895 186.885C490.178 186.559 489.389 186.475 488.629 186.643C487.868 186.81 487.17 187.222 486.622 187.827C486.074 188.432 485.701 189.202 485.55 190.041C485.399 190.879 485.478 191.748 485.775 192.537C486.072 193.326 486.575 194.001 487.219 194.476C487.864 194.95 488.623 195.204 489.398 195.204C489.914 195.204 490.425 195.092 490.901 194.875C491.378 194.657 491.811 194.338 492.175 193.936C492.54 193.534 492.829 193.056 493.025 192.531C493.222 192.005 493.322 191.442 493.321 190.873Z" fill="white"/>
<path d="M372.505 141.562H377.146V146.676H372.505V141.562ZM382.556 141.562H387.197V146.676H382.556V141.562ZM392.61 141.562H397.251V146.676H392.61V141.562ZM402.664 141.562H407.305V146.676H402.664V141.562ZM412.715 141.562H417.356V146.676H412.715V141.562Z" fill="#BBC0E6"/>
<path d="M276.019 268.844C262.623 278.004 240.168 320.529 232.213 323.598C224.381 326.626 198.131 306.543 189.581 297.103C187.522 299.292 185.265 301.243 182.845 302.925C187.022 309.738 219.981 355.021 233.405 353.049C246.829 351.077 257.536 336.161 269.17 326.301C280.804 316.441 276.019 268.844 276.019 268.844Z" fill="#ED9F00"/>
<path d="M189.581 297.122C184.391 293.583 185.542 287.145 181.371 282.485C177.201 277.826 176.645 277.088 175.982 278.409C175.319 279.73 180.252 285.918 179.073 285.813C177.033 285.635 169.133 271.467 167.051 272.13C165.615 272.584 170.977 281.214 173.869 284.84C170.125 284.264 164.729 269.787 163.156 271.486C162.098 272.622 167.621 284.734 171.606 287.16C168.099 286.706 162.984 274.393 161.205 275.298C159.769 276.032 165.241 286.959 168.806 289.302C165.715 288.208 162.682 282.47 161.751 283.507C160.6 284.787 166.989 293.193 173.316 298.602C178.321 302.883 179.31 300.79 182.852 302.943C186.823 300.918 189.581 297.122 189.581 297.122Z" fill="#F0CCC0"/>
<path d="M181.1 304.011C181.1 304.011 190.375 296.062 190.91 295.442C192.892 296.956 196.307 301.119 196.52 301.119C194.998 302.864 186.016 312.156 185.641 312.156C184.82 311.229 181.1 304.011 181.1 304.011Z" fill="#FCBA06"/>
<path d="M268.356 389.094C267.762 401.047 258.099 570.649 258.099 635.153H268.487C274.326 619.161 323.577 419.518 327.52 389.094H268.356Z" fill="#362E94"/>
<path d="M268.487 639.343V635.153H258.103C258.023 637.739 257.622 640.302 256.911 642.768C259.611 643.911 263.561 640.959 268.487 639.343Z" fill="#F0CCC0"/>
<path d="M268.486 639.343C263.561 640.959 259.61 643.912 256.907 642.75C255.478 643.885 234.411 652.242 232.268 653.858C230.124 655.475 230.392 658.109 232.718 658.109C236.112 658.109 264.086 656.75 264.086 656.75C264.653 657.432 265.117 658.109 265.117 658.109H271.499C273.412 654.46 272.897 643.529 268.486 639.343Z" fill="#20196F"/>
<path d="M354.317 389.094C354.911 401.047 364.574 570.649 364.574 635.153H354.186C348.347 619.161 299.096 419.518 295.152 389.094H354.317Z" fill="#423EAF"/>
<path d="M354.186 639.343V635.153H364.587C364.667 637.739 365.068 640.302 365.779 642.768C363.062 643.911 359.112 640.959 354.186 639.343Z" fill="#F0CCC0"/>
<path d="M354.186 639.343C359.112 640.959 363.062 643.912 365.766 642.75C367.195 643.885 388.262 652.242 390.405 653.858C392.548 655.475 392.28 658.083 389.955 658.083C386.561 658.083 358.587 656.724 358.587 656.724C358.02 657.405 357.556 658.083 357.556 658.083H351.164C349.261 654.46 349.776 643.529 354.186 639.343Z" fill="#20196F"/>
<path d="M321.152 263.852C312.356 263.292 303.534 263.515 294.771 264.518C286.046 276.422 306.316 283.947 321.152 263.852Z" fill="#E19100"/>
<path d="M439.313 287.065C417.105 307.213 402.081 312.315 392.765 318.689C383.535 310.328 369.348 289.132 352.517 273.33C352.483 273.292 352.452 273.246 352.417 273.212C351.963 272.719 351.476 272.263 350.961 271.85L350.937 271.827C336.737 260.328 286.702 261.694 272.914 270.438C258.59 279.522 274.463 339.419 266.697 389.09H356.642C353.383 366.671 354.805 340.79 355.839 319.011C370.108 333.288 389.646 348.057 397.831 345.104C415.821 338.621 436.802 310.282 447.007 294.813C447.007 294.817 442.019 289.881 439.313 287.065Z" fill="#FCBA06"/>
<path d="M355.839 319.011C370.108 333.292 389.646 348.061 397.831 345.108C415.182 338.856 435.307 312.277 445.873 296.52L445.368 293.186C445.269 293.091 445.169 292.989 445.066 292.887C440.003 301.649 399.776 339.749 391.003 336.793C382.103 333.799 357.257 308.326 353.056 308.326C348.855 308.326 342.178 360.082 346.873 389.094H356.639C353.383 366.664 354.805 340.793 355.839 319.011Z" fill="#ED9F00"/>
<path d="M440.731 285.445C445.616 281.414 443.953 275.112 447.735 270.063C451.517 265.014 452.005 264.227 452.774 265.48C453.544 266.732 449.126 273.375 450.305 273.156C452.317 272.777 459.05 257.898 461.173 258.352C462.64 258.667 457.989 267.773 455.399 271.679C459.084 270.741 463.299 255.782 465.017 257.334C466.157 258.364 461.616 270.96 457.855 273.769C461.314 272.978 465.412 260.211 467.263 260.941C468.754 261.532 464.172 272.947 460.819 275.631C463.825 274.238 466.37 268.227 467.38 269.17C468.627 270.336 462.938 279.329 457.075 285.336C452.438 290.086 451.28 288.099 447.928 290.589C443.785 288.958 440.731 285.445 440.731 285.445Z" fill="#F0CCC0"/>
<path d="M449.731 291.479C449.731 291.479 439.859 284.465 439.271 283.909C437.42 285.62 434.352 290.105 434.143 290.124C435.798 291.717 445.478 300.097 445.863 300.059C446.605 299.034 449.731 291.479 449.731 291.479Z" fill="#FFD03E"/>
<path d="M318.442 246.161C317.696 249.726 315.718 258.878 316.69 263.636C312.224 273.606 292.126 273.757 297.657 265.983C299.182 263.844 299.676 259.344 299.158 257.94C297.382 253.137 294.593 258.992 292.119 251.32C289.237 242.376 289.715 225.438 293.816 221.176C298.405 216.403 307.178 210.957 317.545 219.348C326.002 226.206 319.953 238.916 318.442 246.161Z" fill="#F8D8D0"/>
<path d="M310.912 236.96C308.401 236.71 310.366 229.613 308.69 227.679C306.704 225.408 299.539 223.375 292.404 223.421C285.27 223.466 281.828 212.823 286.733 209.125C291.638 205.427 295.201 211.706 298.68 210.854C302.733 209.863 302.541 204.518 308.298 205.737C313.629 206.873 310.668 212.1 313.993 213.47C317.428 214.885 323.086 210.328 326.813 216.907C329.561 221.785 324.529 223.875 324.566 228.954C324.587 232.126 330.801 242.202 322.784 245.23C314.766 248.258 317.349 239.87 318.088 236.361C318.826 232.853 317.586 230.336 315.979 230.078C314.371 229.821 314.495 237.315 310.912 236.96Z" fill="#362E94"/>
<path d="M381.419 5.09429L370.252 0.207851C369.823 0.0181982 369.356 -0.0431788 368.899 0.0299385C368.442 0.103056 368.01 0.308068 367.648 0.624201L358.222 8.83765C357.86 9.15242 357.579 9.56696 357.408 10.0394C357.238 10.5119 357.183 11.0256 357.25 11.5288L358.992 24.6325C359.058 25.1352 359.244 25.6099 359.529 26.0086C359.815 26.4072 360.191 26.7159 360.62 26.9035L371.787 31.7937C372.216 31.982 372.683 32.0424 373.14 31.9686C373.597 31.8949 374.029 31.6896 374.391 31.3735L383.82 23.1601C384.182 22.8453 384.463 22.4308 384.634 21.9583C384.805 21.4858 384.859 20.9721 384.792 20.469L383.051 7.36528C382.983 6.86222 382.797 6.38748 382.511 5.98882C382.225 5.59016 381.848 5.28164 381.419 5.09429ZM530.8 587.231L543.774 607.504C544.094 608.005 544.528 608.404 545.033 608.661C545.538 608.919 546.095 609.025 546.649 608.969C547.203 608.914 547.734 608.698 548.188 608.345C548.642 607.991 549.003 607.511 549.236 606.955L558.682 584.438C558.911 583.883 559.004 583.271 558.952 582.664C558.899 582.057 558.704 581.475 558.384 580.978C558.064 580.48 557.632 580.083 557.13 579.827C556.628 579.571 556.073 579.464 555.522 579.517L533.098 581.762C532.547 581.82 532.02 582.035 531.568 582.388C531.117 582.74 530.757 583.216 530.525 583.77C530.292 584.323 530.195 584.934 530.244 585.541C530.292 586.148 530.484 586.731 530.8 587.231Z" fill="#FFD03E"/>
<path d="M12.9569 380.479L19.9917 399.783C20.1656 400.259 20.4501 400.676 20.8167 400.993C21.1832 401.31 21.619 401.515 22.0801 401.587C22.5413 401.66 23.0116 401.597 23.444 401.406C23.8763 401.215 24.2553 400.902 24.5431 400.498L36.1878 384.139C36.4752 383.735 36.6609 383.254 36.7264 382.746C36.7918 382.237 36.7346 381.719 36.5606 381.242C36.3865 380.766 36.1017 380.348 35.7348 380.032C35.3678 379.715 34.9317 379.51 34.4703 379.438L15.7942 376.505C15.3343 376.434 14.8655 376.497 14.4347 376.688C14.0038 376.879 13.626 377.191 13.3389 377.593C13.0517 377.996 12.8653 378.474 12.7983 378.98C12.7313 379.486 12.7859 380.003 12.9569 380.479Z" fill="#FCBA06"/>
</svg>
