<svg width="1635" height="1440" viewBox="0 0 1635 1440" fill="none" xmlns="http://www.w3.org/2000/svg">
<path d="M312.258 1126.55C312.258 1126.55 206.026 1027.56 280.614 777.907C355.198 528.264 481.769 361.478 673.881 382.997C865.994 404.52 854.254 601.618 1076.19 669.226C1298.12 736.838 1475.96 847.853 1324.67 1126.55L312.258 1126.55Z" fill="#F0F7FA"/>
<path d="M1054.47 825.317C1054.47 825.317 1063.87 853.738 1072.9 862.642C1081.93 871.546 1091.11 861.082 1098.83 869.722C1106.57 878.357 1115.35 882.24 1127.37 878.102C1139.38 873.965 1161.76 895.81 1161.76 895.81C1161.76 895.81 1158.08 878.165 1145.41 871.287C1132.74 864.409 1128.74 849.889 1116.1 848.942C1103.45 847.997 1078.83 855.802 1054.47 825.317Z" fill="#9FE6D1"/>
<path d="M1039.02 702.874C1039.02 702.874 1043.95 749.39 1054.81 775.037C1065.67 800.683 1097.25 798.508 1104.66 821.548C1112.06 844.588 1113.54 856.761 1134.77 865.891C1155.99 875.016 1160.93 904.142 1160.93 904.142C1160.93 904.142 1176.72 886.756 1153.03 859.588C1129.34 832.416 1150.07 789.383 1113.05 775.905C1076.03 762.432 1039.02 702.874 1039.02 702.874Z" fill="#67CFB0"/>
<path d="M1141.92 613.546C1141.92 613.546 1135.51 640.498 1126.62 657.452C1117.74 674.405 1122.18 691.359 1133.04 714.83C1143.9 738.302 1147.6 748.301 1140.2 764.17C1132.79 780.039 1134.03 803.726 1149.33 826.33C1164.63 848.938 1160.93 904.142 1160.93 904.142C1160.93 904.142 1187.33 881.323 1180.67 844.805C1174.01 808.292 1170.55 802.421 1175.24 778.08C1179.93 753.734 1170.31 734.39 1173.27 716.136C1176.23 697.877 1164.88 695.049 1158.46 660.71C1152.04 626.366 1141.92 613.546 1141.92 613.546Z" fill="#9FE6D1"/>
<path d="M1312.95 636.802C1312.95 636.802 1266.55 672.447 1237.92 688.095C1209.3 703.747 1213.49 745.91 1207.08 759.604C1200.66 773.299 1170.06 817.857 1173.02 840.46C1175.98 863.064 1160.93 904.142 1160.93 904.142C1160.93 904.142 1181.9 895.665 1191.28 860.02C1200.66 824.376 1208.06 818.29 1231.26 797.424C1254.46 776.558 1237.18 753.518 1261.37 721.785C1285.56 690.053 1307.27 684.835 1312.95 636.802Z" fill="#67CFB0"/>
<path d="M1302.34 906.97C1302.34 906.97 1291.97 843.067 1258.9 830.462C1225.84 817.853 1174.27 847.867 1161.31 886.982C1161.31 886.982 1178.94 866.544 1196.71 865.67C1214.48 864.802 1229.78 847.416 1247.55 860.458C1265.32 873.494 1282.59 863.064 1302.34 906.97Z" fill="#9FE6D1"/>
<path d="M1110.82 883.987H1214.47V913.546H1110.82V883.987Z" fill="#FAA8B8"/>
<path d="M1127.97 1087.43L1118.13 913.546H1207.17L1197.33 1087.43H1127.97Z" fill="#FAA8B8"/>
<path d="M1118.75 924.528L1118.13 913.546H1207.17L1207.09 914.942L1118.75 924.528Z" fill="#F0738C"/>
<path d="M1239.05 1127.55C1238.78 1127.55 1238.52 1127.47 1238.31 1127.31C1238.11 1127.16 1237.97 1126.95 1237.93 1126.71L1217.03 1015.53H1163.78V1126.55C1163.78 1126.81 1163.65 1127.06 1163.44 1127.24C1163.23 1127.42 1162.94 1127.52 1162.65 1127.52C1162.35 1127.52 1162.07 1127.42 1161.86 1127.24C1161.65 1127.06 1161.52 1126.81 1161.51 1126.55V1015.53H1108.27L1087.38 1126.71C1087.35 1126.84 1087.3 1126.97 1087.22 1127.08C1087.14 1127.19 1087.04 1127.29 1086.92 1127.36C1086.8 1127.44 1086.66 1127.49 1086.51 1127.52C1086.37 1127.55 1086.22 1127.56 1086.07 1127.54C1085.92 1127.52 1085.78 1127.47 1085.66 1127.4C1085.53 1127.33 1085.42 1127.24 1085.33 1127.13C1085.25 1127.03 1085.18 1126.9 1085.15 1126.78C1085.12 1126.65 1085.11 1126.52 1085.14 1126.39L1106.17 1014.42C1106.18 1014.39 1106.19 1014.35 1106.19 1014.32L1118.98 946.276C1119.02 946.042 1119.16 945.83 1119.37 945.677C1119.57 945.523 1119.83 945.439 1120.1 945.439H1205.2C1205.76 945.439 1206.23 945.793 1206.32 946.276L1219.11 1014.32C1219.12 1014.35 1219.12 1014.38 1219.13 1014.42L1240.17 1126.39C1240.19 1126.53 1240.19 1126.68 1240.14 1126.82C1240.1 1126.96 1240.02 1127.09 1239.91 1127.2C1239.81 1127.31 1239.67 1127.4 1239.52 1127.46C1239.37 1127.52 1239.21 1127.55 1239.05 1127.55ZM1163.78 1013.53H1216.66L1204.24 947.441H1163.78V1013.53ZM1108.65 1013.53H1161.51V947.441H1121.06L1108.65 1013.53Z" fill="#353640"/>
<path d="M321.327 467.688H649.259V501.274H321.327V467.688Z" fill="#5E5AD7"/>
<path d="M321.327 501.273H649.259V655.133H321.327V501.273Z" fill="#CAD9FC"/>
<path d="M475.283 528.979H585.39V539.054H475.283V528.979ZM475.283 549.97H619.708V555.005H475.283V549.97ZM475.283 568.022H613.038V573.058H475.283V568.022ZM475.283 586.075H622.57V591.11H475.283V586.075ZM475.283 604.123H621.616V609.158H475.283V604.123ZM475.283 622.176H594.448V627.211H475.283V622.176ZM345.159 526.459H462.415V629.731H345.159V526.459Z" fill="white"/>
<path d="M345.159 629.731L390.045 578.098L414.167 605.846L427.912 590.04L462.416 629.731H393.408H345.159Z" fill="#5E5AD7"/>
<path d="M416.532 574.32C422.39 574.32 427.138 570.138 427.138 564.979C427.138 559.82 422.39 555.638 416.532 555.638C410.675 555.638 405.927 559.82 405.927 564.979C405.927 570.138 410.675 574.32 416.532 574.32Z" fill="#CAD9FC"/>
<path d="M1385 1127.55H249.997C249.702 1127.54 249.422 1127.43 249.216 1127.25C249.011 1127.06 248.896 1126.81 248.896 1126.55C248.896 1126.29 249.011 1126.04 249.216 1125.85C249.422 1125.67 249.702 1125.56 249.997 1125.55H1385C1385.3 1125.56 1385.58 1125.67 1385.78 1125.85C1385.99 1126.04 1386.11 1126.29 1386.11 1126.55C1386.11 1126.81 1385.99 1127.06 1385.78 1127.25C1385.58 1127.43 1385.3 1127.54 1385 1127.55Z" fill="#353640"/>
<path d="M360.24 1068.71H408.505C408.505 1082.57 402.123 1126.55 386.509 1126.55H347.105C342.8 1126.55 339.192 1123.2 336.232 1118.05H323.817C318.067 1118.05 312.825 1115.98 309.015 1112.63L308.982 1112.61C305.178 1109.25 302.818 1104.63 302.818 1099.56V1092.21C302.818 1087.14 305.172 1082.52 308.971 1079.17L308.998 1079.14C312.813 1075.79 318.062 1073.71 323.817 1073.71H325.31C325.179 1071.79 325.114 1070.1 325.114 1068.71L360.24 1068.71ZM332.352 1109.44C329.311 1101.01 327.294 1090.84 326.183 1082.32H323.817C320.722 1082.32 317.915 1083.43 315.893 1085.21L315.877 1085.23C314.833 1086.14 314.006 1087.23 313.442 1088.43C312.878 1089.63 312.589 1090.91 312.59 1092.21V1099.56C312.59 1102.28 313.85 1104.75 315.877 1106.54L315.893 1106.55C316.933 1107.47 318.168 1108.2 319.528 1108.69C320.888 1109.19 322.345 1109.44 323.817 1109.44L332.352 1109.44Z" fill="#F0738C"/>
<path d="M360.24 1068.71H408.505C408.505 1079.01 404.984 1105.9 396.776 1119.07C385.397 1120.63 373.717 1119.38 363.455 1112.69C347.835 1102.53 339.164 1085.02 334.347 1068.71H360.24Z" fill="#F2889E"/>
<path d="M370.355 1062.83C370.355 1062.83 352.026 1057.99 342.56 1045.88C333.088 1033.78 352.026 1028.66 377.685 1030.01C403.338 1031.35 398.455 1014.95 362.109 1021.67C325.757 1028.4 311.707 1004.18 331.562 995.573C351.416 986.966 399.675 984.274 408.531 996.648C417.394 1009.03 385.015 1003.92 374.327 1005.53C363.634 1007.14 410.673 1013.6 403.648 1030.28C396.624 1046.96 328.815 1026.24 370.355 1062.83Z" fill="white"/>
<path d="M831.278 351.283C850.369 351.283 865.847 364.915 865.847 381.73C865.847 387.086 864.278 392.122 861.52 396.495L861.351 396.764L861.221 396.965C844.93 422.04 845.126 433.628 845.126 433.628H817.43C817.43 433.628 817.621 422.051 801.364 397.004L801.168 396.701L801.031 396.495H801.037C798.188 391.979 796.697 386.896 796.704 381.73C796.703 364.915 812.181 351.283 831.278 351.283Z" fill="#FFAF18"/>
<path d="M836.188 434.628L836.143 434.628C835.993 434.622 835.847 434.591 835.711 434.536C835.576 434.481 835.454 434.403 835.353 434.306C835.252 434.21 835.173 434.097 835.121 433.973C835.07 433.85 835.047 433.719 835.053 433.587C835.066 433.287 836.126 410.162 837.477 393.046H825.077C826.428 410.163 827.489 433.287 827.502 433.587C827.508 433.719 827.484 433.85 827.433 433.973C827.381 434.097 827.303 434.21 827.201 434.306C827.1 434.403 826.978 434.481 826.843 434.536C826.707 434.591 826.561 434.622 826.412 434.628C825.77 434.655 825.257 434.22 825.231 433.668C825.218 433.367 824.152 410.125 822.799 393.046H818.322C814.537 393.046 812.275 391.008 812.119 387.455C811.906 382.627 815.905 375.206 819.78 374.941C821.293 374.84 823.22 375.656 823.816 380.145C824.191 382.977 824.562 386.775 824.916 391.045H837.639C837.992 386.775 838.363 382.978 838.738 380.145C839.333 375.657 841.254 374.835 842.771 374.941C846.645 375.205 850.645 382.626 850.433 387.456C850.277 391.008 848.016 393.046 844.232 393.046H839.755C838.402 410.125 837.337 433.366 837.323 433.667C837.311 433.925 837.187 434.169 836.975 434.349C836.764 434.528 836.482 434.628 836.188 434.628ZM839.917 391.044H844.232C845.164 391.044 848 391.044 848.162 387.378C848.36 382.863 844.581 377.071 842.595 376.936L842.565 376.935C842.006 376.935 841.311 377.989 840.995 380.377C840.628 383.153 840.264 386.864 839.917 391.044ZM819.987 376.935C819.976 376.935 819.966 376.935 819.956 376.936C817.97 377.072 814.191 382.863 814.39 387.377C814.552 391.044 817.39 391.044 818.323 391.044H822.638C822.29 386.864 821.927 383.153 821.559 380.377C821.242 377.989 820.547 376.935 819.987 376.935Z" fill="white"/>
<path d="M813.249 433.627H849.306V448.196H813.249V433.627Z" fill="#5E5AD7"/>
<path d="M831.277 342.545C830.976 342.545 830.687 342.439 830.474 342.251C830.261 342.064 830.141 341.809 830.141 341.544V313.45C830.15 313.19 830.274 312.943 830.486 312.762C830.698 312.581 830.982 312.48 831.277 312.48C831.573 312.48 831.857 312.581 832.069 312.762C832.281 312.943 832.405 313.19 832.414 313.45V341.544C832.414 341.675 832.384 341.806 832.327 341.927C832.27 342.048 832.186 342.159 832.081 342.252C831.975 342.345 831.85 342.418 831.712 342.469C831.574 342.519 831.427 342.545 831.277 342.545ZM886.099 431.014C885.798 431.014 885.508 430.908 885.295 430.721L862.738 410.858C862.632 410.765 862.548 410.655 862.491 410.533C862.434 410.412 862.405 410.282 862.405 410.15C862.405 410.019 862.434 409.889 862.491 409.767C862.548 409.646 862.632 409.535 862.738 409.442C862.843 409.349 862.968 409.276 863.106 409.225C863.244 409.175 863.392 409.149 863.541 409.149C863.69 409.149 863.838 409.175 863.976 409.225C864.114 409.276 864.239 409.349 864.345 409.442L886.902 429.305C887.061 429.445 887.168 429.624 887.212 429.818C887.255 430.011 887.233 430.212 887.147 430.395C887.061 430.578 886.916 430.734 886.729 430.844C886.543 430.954 886.323 431.013 886.099 431.014ZM799.013 354.314C798.864 354.315 798.717 354.289 798.579 354.238C798.441 354.188 798.316 354.114 798.21 354.022L775.652 334.159C775.448 333.97 775.336 333.718 775.34 333.457C775.344 333.196 775.464 332.947 775.673 332.762C775.883 332.578 776.166 332.473 776.462 332.469C776.758 332.466 777.044 332.564 777.259 332.744L799.817 352.606C799.976 352.746 800.084 352.924 800.128 353.118C800.171 353.313 800.149 353.514 800.063 353.696C799.977 353.879 799.831 354.035 799.644 354.145C799.458 354.255 799.238 354.314 799.013 354.314ZM908.804 382.73H876.905C876.61 382.722 876.329 382.613 876.124 382.426C875.918 382.24 875.803 381.99 875.803 381.73C875.803 381.469 875.918 381.219 876.124 381.033C876.329 380.846 876.61 380.737 876.905 380.729H908.804C909.099 380.737 909.379 380.846 909.585 381.033C909.79 381.219 909.905 381.469 909.905 381.73C909.905 381.99 909.79 382.24 909.585 382.426C909.379 382.613 909.099 382.722 908.804 382.73ZM785.651 382.73H753.746C753.45 382.722 753.17 382.613 752.965 382.426C752.759 382.24 752.644 381.99 752.644 381.73C752.644 381.469 752.759 381.219 752.965 381.033C753.17 380.846 753.45 380.737 753.746 380.729H785.651C785.946 380.737 786.226 380.846 786.432 381.033C786.637 381.219 786.752 381.469 786.752 381.73C786.752 381.99 786.637 382.24 786.432 382.426C786.226 382.613 785.946 382.722 785.651 382.73ZM863.541 354.314C863.317 354.314 863.097 354.255 862.911 354.145C862.724 354.035 862.579 353.879 862.493 353.696C862.407 353.513 862.384 353.312 862.428 353.118C862.471 352.924 862.579 352.746 862.738 352.606L885.295 332.743C885.508 332.556 885.797 332.45 886.099 332.45C886.4 332.45 886.689 332.556 886.902 332.743C887.115 332.931 887.235 333.186 887.235 333.451C887.235 333.716 887.115 333.971 886.902 334.159L864.345 354.021C864.123 354.217 863.832 354.314 863.541 354.314ZM776.455 431.014C776.231 431.013 776.011 430.955 775.824 430.845C775.637 430.735 775.492 430.578 775.406 430.396C775.32 430.213 775.297 430.011 775.341 429.817C775.385 429.623 775.493 429.445 775.651 429.305L798.21 409.442C798.425 409.262 798.711 409.164 799.007 409.167C799.303 409.171 799.586 409.276 799.796 409.461C800.005 409.645 800.125 409.894 800.128 410.155C800.132 410.416 800.021 410.668 799.817 410.857L777.259 430.72C777.037 430.916 776.746 431.014 776.455 431.014Z" fill="#FFAF18"/>
<path d="M944.572 493.886H1167.79V546.619H944.572V493.886Z" fill="#353640"/>
<path d="M962.792 509.793H1149.57V513.806H962.792V509.793ZM962.792 526.704H1116.05V530.717H962.792V526.704Z" fill="white"/>
<path d="M495.056 1051.78C500.8 1135.3 637.628 1126.27 757.2 1126.27H943.466C1023.95 1126.27 1136.63 1111.59 1081.44 894.912C1026.25 678.23 888.955 610.805 793.999 695.156C726.36 755.242 489.562 972.005 495.056 1051.78Z" fill="#FFAF18"/>
<path d="M828.684 671.895C816.683 677.602 805.053 685.339 794 695.155C743.892 739.67 600.977 870.154 532.476 967.243C578.584 1016.12 660.006 1042.75 788.251 1042.75C1126.29 1042.75 1056.15 874.599 960.721 762.869C932.256 729.543 883.331 698.731 828.684 671.895Z" fill="#F7832A"/>
<path d="M715.051 664.747C715.051 664.747 688.177 676.584 690.624 729.845C693.065 783.11 694.287 813.24 694.287 813.24L573.945 852.514L588.605 897.173C588.605 897.173 699.785 874.037 736.437 864.35C773.093 854.668 778.593 830.995 774.314 783.647C770.036 736.301 769.84 646.378 715.051 664.747Z" fill="#647EDD"/>
<path d="M790.474 1016.38C790.474 1016.38 827.61 1019.86 844.69 1030.68C861.77 1041.5 885.145 1090.46 883.107 1109.71C881.063 1128.96 816.976 1070.87 816.976 1070.87L778.45 1063.63C778.45 1063.63 747.31 1016.76 790.474 1016.38Z" fill="#4358A3"/>
<path d="M820.116 633.542C820.116 633.542 886.404 642.692 910.837 655.873C910.837 655.873 934.359 703.488 934.359 895.022H735.211C735.211 895.022 721.161 821.314 709.552 765.36C697.949 709.406 715.051 664.747 715.051 664.747L763.147 647.693C763.147 647.693 791.716 636.926 820.116 633.542Z" fill="#5E5AD7"/>
<path d="M920.358 691.037C926.882 724.781 934.359 787.018 934.359 895.022H735.21C735.21 895.022 732.741 882.077 729.024 862.925C804.049 855.317 878.954 816.193 878.954 816.193C878.954 816.193 872.239 760.234 869.792 742.747C867.351 725.266 872.73 694.066 872.73 694.066L920.358 691.037Z" fill="#647EDD"/>
<path d="M813.015 594.398C813.015 594.398 817.675 617.668 820.116 633.542C822.563 649.416 811.26 676.853 785.602 677.39C759.949 677.933 763.306 649.685 763.306 649.685L759.949 606.643C759.948 606.643 774.603 595.075 813.015 594.398Z" fill="#FCCAC3"/>
<path d="M708.86 560.866C708.86 560.866 719.466 622.172 734.714 640.272C749.958 658.373 799.678 644.357 816.252 610.498C832.826 576.633 787.749 490.805 708.86 560.866Z" fill="#F59A8E"/>
<path d="M708.86 560.866C708.86 560.866 718.926 619.033 733.537 638.775C751.762 651.754 796.136 637.445 811.614 605.827C819.157 590.4 813.914 564.202 798.518 546.859C779.471 529.805 748.416 525.734 708.86 560.866Z" fill="#FCCAC3"/>
<path d="M790.397 556.2C790.397 556.2 741.042 604.709 709.961 587.448C618.091 536.429 739.347 515.87 749.626 510.658C771.502 499.565 802.001 504.236 802.327 526.128C802.327 526.128 822.22 530.218 825.201 541.018C828.182 551.818 839.153 594.826 819.582 596.823C800.01 598.82 792.718 583.349 790.397 556.2Z" fill="#353640"/>
<path d="M792.403 593.875C806.355 543.864 838.831 588.638 805.036 599.28C805.036 599.28 789.602 606.85 792.403 593.875Z" fill="#FCCAC3"/>
<path d="M735.211 895.022H606.324C525.075 895.022 508.583 920.842 509.804 956.894C511.025 992.942 560.511 1028.45 663.75 1050.51C766.99 1072.57 814.028 1075.8 814.028 1075.8L830.521 1012.85L729.723 985.406C729.723 985.406 820.749 1003.16 883.059 1006.93C945.369 1010.69 996.86 956.304 934.36 895.022C934.359 895.022 820.748 878.338 735.211 895.022Z" fill="#353640"/>
<path d="M590.883 1029.61C611.212 1037.4 635.459 1044.47 663.749 1050.51C688.803 1055.86 710.532 1060.1 729.1 1063.46L820.42 1051.39L830.519 1012.85L729.722 985.407C729.722 985.407 818.263 1002.68 880.474 1006.77C891.042 982.474 895.985 951.658 871.449 927.836L865.094 913.762L777.376 936.985L623.43 929.449L739.499 956.891L590.883 1029.61Z" fill="#2A1D19"/>
<path d="M656.419 1008C656.419 1008 620.074 1015.8 610.302 1032.21C600.524 1048.62 604.497 1101.62 616.1 1118.03C627.709 1134.44 655.504 1057.23 655.504 1057.23L685.13 1047.82C685.13 1047.82 695.213 991.32 656.419 1008Z" fill="#4358A3"/>
<path d="M660.698 1002.09L682.078 1064.5C682.078 1064.5 868.398 1024.14 939.869 1001.55C1011.35 978.951 1016.83 881.137 932.942 894.826C849.051 908.515 660.698 1002.09 660.698 1002.09Z" fill="#353640"/>
<path d="M550.455 884.333H732.393C738.346 884.333 743.173 884.668 743.173 885.082V894.274C743.173 894.687 738.346 895.022 732.393 895.022H550.455C544.502 895.022 539.676 894.687 539.676 894.274V885.082C539.675 884.668 544.502 884.333 550.455 884.333Z" fill="#949899"/>
<path d="M416.768 759.461H598.705C604.659 759.461 610.779 763.711 612.374 768.955L647.839 885.527C649.434 890.77 645.901 895.021 639.948 895.021H458.011C452.057 895.021 445.937 890.77 444.342 885.527L408.877 768.955C407.282 763.711 410.815 759.461 416.768 759.461Z" fill="#D0D3D4"/>
<path d="M523.374 810.86C533.647 810.86 544.205 818.194 546.957 827.242C549.71 836.289 543.614 843.623 533.341 843.623C523.069 843.623 512.51 836.289 509.758 827.242C507.005 818.194 513.102 810.86 523.374 810.86Z" fill="white"/>
<path d="M791.389 866.482L750.127 860.621C743.429 859.666 744.465 867.802 744.465 867.802C744.465 867.802 723.902 867.533 716.794 867.446C709.688 867.36 706.527 878.208 709.192 884.069C711.852 889.93 721.667 898.282 733.652 906.053C745.63 913.82 783.574 902.972 783.574 902.972C783.574 902.972 805.204 903.264 804.872 902.242C804.54 901.214 791.389 866.482 791.389 866.482Z" fill="#FCCAC3"/>
<path d="M910.837 655.872C910.837 655.872 936.496 673.09 949.935 704.294C963.375 735.499 968.568 810.283 969.794 831.806C971.015 853.324 971.626 879.96 926.724 887.491C881.826 895.022 795.078 906.053 795.078 906.053L781.639 863.28L898.318 825.082C898.318 825.082 886.099 774.504 875.717 722.314C865.335 670.128 883.216 645.96 910.837 655.872Z" fill="#5E5AD7"/>
<path d="M323.414 806.309C324.182 806.309 324.94 806.338 325.692 806.381C326.248 787.531 343.775 772.397 365.319 772.397C386.563 772.397 403.905 787.118 404.908 805.613C406.832 805.286 408.816 805.113 410.848 805.113C428.108 805.113 442.104 817.44 442.104 832.642H291.33C292.496 817.93 306.415 806.309 323.414 806.309Z" fill="#CAD9FC"/>
<path d="M366.72 844.541H354.953V814.075H346.822L366.72 792.533L386.612 814.075H378.481V844.541H366.72Z" fill="#5E5AD7"/>
</svg>
