<svg width="608" height="389" viewBox="0 0 608 389" fill="none" xmlns="http://www.w3.org/2000/svg">
<path style="mix-blend-mode:multiply" d="M579.481 195.147H539.866L565.012 208.158L539.866 221.166H579.481L604.624 208.158L579.481 195.147Z" fill="url(#paint0_linear_6_725)"/>
<path d="M539.866 221.166L565.012 208.158V181.744L539.866 194.747V221.166Z" fill="#BBC0E6"/>
<path d="M539.866 221.166L514.72 208.158V181.744L539.866 194.747V221.166Z" fill="#CED3F8"/>
<path d="M539.866 194.747L514.72 181.744L539.866 168.739L565.012 181.744L539.866 194.747Z" fill="#F6F6FB"/>
<path style="mix-blend-mode:multiply" d="M391.332 343.768H342.581L373.526 359.78L342.581 375.787H391.332L422.273 359.78L391.332 343.768Z" fill="url(#paint1_linear_6_725)"/>
<path d="M342.581 375.787L373.526 359.78V327.274L342.581 343.276V375.787Z" fill="#E33C5C"/>
<path d="M342.58 375.787L311.635 359.78V327.274L342.58 343.276V375.787Z" fill="#FF5A72"/>
<path d="M342.58 343.276L311.635 327.274L342.58 311.27L373.525 327.274L342.58 343.276Z" fill="#FFAF6D"/>
<path style="mix-blend-mode:multiply" d="M397.725 361.767H369.679L387.481 370.979L369.679 380.187H397.725L415.525 370.979L397.725 361.767Z" fill="url(#paint2_linear_6_725)"/>
<path d="M369.679 380.187L387.481 370.979V352.278L369.679 361.484V380.187Z" fill="#423EAF"/>
<path d="M369.679 380.187L351.877 370.979V352.278L369.679 361.484V380.187Z" fill="#5652CC"/>
<path d="M369.679 361.484L351.877 352.278L369.679 343.072L387.481 352.278L369.679 361.484Z" fill="#807DFB"/>
<g style="mix-blend-mode:multiply">
<path d="M351.877 352.278L358.053 355.472L375.855 346.267L369.678 343.072L351.877 352.278Z" fill="#DAE0F5"/>
</g>
<g style="mix-blend-mode:multiply">
<path d="M361.173 375.787L358.053 355.472L351.877 352.278V370.979L361.173 375.787Z" fill="#DAE0F5"/>
</g>
<path style="mix-blend-mode:multiply" d="M42.6052 238.309H126.408V283.684H42.6052V238.309Z" fill="url(#paint3_linear_6_725)"/>
<path d="M42.6052 239.605L0 217.564L42.6052 195.523L85.2099 217.564L42.6052 239.605Z" fill="#F6F6FB"/>
<path d="M42.6052 283.684L0 261.643V217.564L42.6052 239.605V283.684Z" fill="#CED3F8"/>
<path d="M42.6052 283.684L85.2112 261.643V217.564L42.6052 239.605V283.684Z" fill="#BBC0E6"/>
<path d="M42.6052 202.907L39.1986 201.144L42.6052 199.382L46.0126 201.144L42.6052 202.907ZM50.5404 207.012L47.1343 205.249L50.5404 203.487L53.9479 205.249L50.5404 207.012ZM58.477 211.116L55.0683 209.354L58.477 207.591L61.881 209.354L58.477 211.116ZM66.4101 215.222L63.004 213.458L66.4101 211.696L69.8176 213.458L66.4101 215.222ZM74.3454 219.325L70.938 217.564L74.3454 215.802L77.7529 217.564L74.3454 219.325ZM34.6699 207.012L31.2633 205.249L34.6699 203.487L38.0773 205.249L34.6699 207.012ZM42.6052 211.116L39.1986 209.354L42.6052 207.591L46.0126 209.354L42.6052 211.116ZM50.5404 215.222L47.1343 213.458L50.5404 211.696L53.9479 213.458L50.5404 215.222ZM58.477 219.325L55.0683 217.564L58.477 215.802L61.881 217.564L58.477 219.325ZM66.4101 223.43L63.004 221.668L66.4101 219.906L69.8176 221.668L66.4101 223.43ZM26.7368 211.116L23.3289 209.354L26.7368 207.591L30.1442 209.354L26.7368 211.116ZM34.6699 215.222L31.2633 213.458L34.6699 211.696L38.0773 213.458L34.6699 215.222ZM42.6052 219.325L39.1986 217.564L42.6052 215.802L46.0126 217.564L42.6052 219.325ZM50.5404 223.43L47.1343 221.668L50.5404 219.906L53.9479 221.668L50.5404 223.43ZM58.477 227.534L55.0683 225.773L58.477 224.011L61.881 225.773L58.477 227.534ZM18.8011 215.222L15.3936 213.458L18.8011 211.696L22.2085 213.458L18.8011 215.222ZM26.7368 219.325L23.3289 217.564L26.7368 215.802L30.1442 217.564L26.7368 219.325ZM34.6699 223.43L31.2633 221.668L34.6699 219.906L38.0773 221.668L34.6699 223.43ZM42.6052 227.534L39.1986 225.773L42.6052 224.011L46.0126 225.773L42.6052 227.534ZM50.5404 231.641L47.1343 229.878L50.5404 228.116L53.9479 229.878L50.5404 231.641ZM10.8658 219.325L7.4592 217.564L10.8658 215.802L14.2732 217.564L10.8658 219.325ZM18.8011 223.43L15.3936 221.668L18.8011 219.906L22.2085 221.668L18.8011 223.43ZM26.7368 227.534L23.3289 225.773L26.7368 224.011L30.1442 225.773L26.7368 227.534ZM34.6699 231.641L31.2633 229.878L34.6699 228.116L38.0773 229.878L34.6699 231.641ZM42.6052 235.745L39.1986 233.984L42.6052 232.221L46.0126 233.984L42.6052 235.745ZM7.13791 228.638L3.73047 226.876V223.351L7.13791 225.113V228.638ZM15.071 232.742L11.6657 230.981V227.455L15.071 229.219V232.742ZM23.0063 236.848L19.5997 235.085V231.561L23.0063 233.322V236.848ZM30.9416 240.953L27.5354 239.19V235.666L30.9416 237.428V240.953ZM38.8769 245.058L35.4707 243.295V239.77L38.8769 241.532V245.058ZM7.13791 236.847L3.73047 235.085V231.561L7.13791 233.322V236.847ZM15.071 240.952L11.6657 239.19V235.666L15.071 237.428V240.952ZM23.0063 245.058L19.5997 243.295V239.77L23.0063 241.532V245.058ZM30.9416 249.163L27.5354 247.4V243.876L30.9416 245.637V249.163ZM38.8769 253.268L35.4707 251.506V247.98L38.8769 249.743V253.268ZM7.13791 245.057L3.73047 243.295V239.77L7.13791 241.532V245.057ZM15.071 249.163L11.6657 247.4V243.876L15.071 245.637V249.163ZM23.0063 253.268L19.5997 251.506V247.98L23.0063 249.743V253.268ZM30.9416 257.373L27.5354 255.61V252.086L30.9416 253.849V257.373ZM38.8769 261.478L35.4707 259.715V256.19L38.8769 257.952V261.478ZM7.13791 253.267L3.73047 251.506V247.98L7.13791 249.743V253.267ZM15.071 257.373L11.6657 255.61V252.086L15.071 253.849V257.373ZM23.0063 261.478L19.5997 259.715V256.19L23.0063 257.952V261.478ZM30.9416 265.584L27.5354 263.82V260.295L30.9416 262.057V265.584ZM38.8769 269.687L35.4707 267.925V264.399L38.8769 266.162V269.687ZM7.13791 261.478L3.73047 259.715V256.19L7.13791 257.952V261.478ZM15.071 265.584L11.6657 263.82V260.295L15.071 262.057V265.584ZM23.0063 269.687L19.5997 267.925V264.399L23.0063 266.162V269.687ZM30.9416 273.792L27.5354 272.03V268.504L30.9416 270.267V273.792ZM38.8769 277.897L35.4707 276.134V272.61L38.8769 274.373V277.897ZM78.0746 228.638L81.4812 226.876V223.351L78.0746 225.113V228.638ZM70.1402 232.742L73.5467 230.981V227.455L70.1402 229.219V232.742ZM62.2049 236.848L65.6115 235.085V231.561L62.2049 233.322V236.848ZM54.2696 240.953L57.6758 239.19V235.666L54.2696 237.428V240.953ZM46.3343 245.058L49.7418 243.295V239.77L46.3343 241.532V245.058ZM78.0746 236.847L81.4812 235.085V231.561L78.0746 233.322V236.847ZM70.1402 240.952L73.5467 239.19V235.666L70.1402 237.428V240.952ZM62.2049 245.058L65.6115 243.295V239.77L62.2049 241.532V245.058ZM54.2696 249.163L57.6758 247.4V243.876L54.2696 245.637V249.163ZM46.3343 253.268L49.7418 251.506V247.98L46.3343 249.743V253.268ZM78.0746 245.057L81.4812 243.295V239.77L78.0746 241.532V245.057ZM70.1402 249.163L73.5467 247.4V243.876L70.1402 245.637V249.163ZM62.2049 253.268L65.6115 251.506V247.98L62.2049 249.743V253.268ZM54.2696 257.373L57.6758 255.61V252.086L54.2696 253.849V257.373ZM46.3343 261.478L49.7418 259.715V256.19L46.3343 257.952V261.478ZM78.0746 253.267L81.4812 251.506V247.98L78.0746 249.743V253.267ZM70.1402 257.373L73.5467 255.61V252.086L70.1402 253.849V257.373ZM62.2049 261.478L65.6115 259.715V256.19L62.2049 257.952V261.478ZM54.2696 265.584L57.6758 263.82V260.295L54.2696 262.057V265.584ZM46.3343 269.687L49.7418 267.925V264.399L46.3343 266.162V269.687ZM78.0746 261.478L81.4812 259.715V256.19L78.0746 257.952V261.478ZM70.1402 265.584L73.5467 263.82V260.295L70.1402 262.057V265.584ZM62.2049 269.687L65.6115 267.925V264.399L62.2049 266.162V269.687ZM54.2696 273.792L57.6758 272.03V268.504L54.2696 270.267V273.792ZM46.3343 277.897L49.7418 276.134V272.61L46.3343 274.373V277.897Z" fill="#DAE0F5"/>
<path style="mix-blend-mode:multiply" d="M57.5374 203.248H50.5409L68.3435 212.46L50.5409 221.668H77.2772L85.2099 217.564L57.5374 203.248Z" fill="url(#paint4_linear_6_725)"/>
<path d="M50.5409 221.668L68.3435 212.46V193.759L50.5409 202.965V221.668Z" fill="#009AAA"/>
<path d="M50.5408 221.668L32.7386 212.46V193.759L50.5408 202.965V221.668Z" fill="#00B6BF"/>
<path d="M50.5408 202.965L32.7386 193.759L50.5408 184.553L68.3434 193.759L50.5408 202.965Z" fill="#00D6DC"/>
<path d="M208.131 117.677C208.131 112.482 204.022 106.108 199.001 103.51L138.184 72.049C133.164 69.4542 129.057 71.5775 129.057 76.7729V128.764C129.057 133.961 133.163 140.334 138.184 142.931L199.001 174.392C204.022 176.99 208.131 174.867 208.131 169.674V117.677Z" fill="#F6F6FB"/>
<path d="M208.131 169.674V117.677C208.131 112.482 204.022 106.108 199.001 103.51L138.184 72.049C135.704 70.7681 133.449 70.6402 131.8 71.4624L134.19 70.2167L134.195 70.2237C135.865 69.2667 138.21 69.3349 140.811 70.6809L201.628 102.142C206.649 104.738 210.756 111.114 210.756 116.309V168.3C210.756 171.021 209.623 172.887 207.834 173.684L205.667 174.818C207.189 173.917 208.131 172.15 208.131 169.674Z" fill="url(#paint5_linear_6_725)"/>
<path d="M147.463 114.84V110.559C148.043 110.871 148.689 111.071 149.359 111.148C149.575 111.148 149.788 111.102 149.98 111.014C150.171 110.925 150.337 110.797 150.462 110.64C150.824 110.175 151.044 109.634 151.1 109.07C151.217 108.105 151.263 107.134 151.239 106.163C151.239 103.856 151.342 102.301 151.549 101.499C151.756 100.696 152.129 100.158 152.669 99.8849C153.209 99.6111 153.996 99.5812 155.03 99.7954C156.195 100.132 157.307 100.599 158.341 101.186L159.254 101.659V105.922C157.979 105.262 157.16 104.913 156.797 104.874C156.65 104.845 156.496 104.855 156.354 104.901C156.212 104.948 156.088 105.03 155.996 105.137C155.824 105.351 155.737 105.827 155.737 106.564C155.737 107.313 155.686 108.707 155.582 110.747C155.571 111.638 155.42 112.524 155.134 113.377C154.962 113.886 154.644 114.346 154.212 114.71C153.708 115.04 153.117 115.245 152.497 115.304C153.138 116.009 153.696 116.773 154.16 117.582C154.601 118.371 154.934 119.205 155.151 120.066C155.41 121.164 155.56 122.28 155.6 123.401C155.68 125.417 155.72 126.698 155.721 127.245C155.69 127.85 155.783 128.454 155.996 129.028C156.193 129.451 156.477 129.837 156.832 130.166C157.569 130.75 158.382 131.252 159.254 131.659V135.94L158.341 135.467C157.066 134.84 155.87 134.093 154.772 133.238C153.943 132.552 153.237 131.757 152.677 130.879C152.118 130.013 151.73 129.067 151.531 128.083C151.302 126.666 151.204 125.234 151.238 123.802C151.238 121.614 151.146 120.146 150.962 119.397C150.774 118.46 150.385 117.565 149.816 116.761C149.183 115.986 148.383 115.332 147.463 114.84L147.463 114.84ZM187.216 135.405C186.636 135.094 185.991 134.894 185.32 134.817C185.105 134.817 184.893 134.863 184.702 134.952C184.511 135.041 184.348 135.171 184.225 135.329C183.87 135.796 183.648 136.333 183.579 136.895C183.462 137.854 183.416 138.819 183.441 139.784C183.441 142.091 183.34 143.65 183.139 144.462C182.938 145.273 182.568 145.815 182.028 146.089C181.487 146.362 180.694 146.389 179.648 146.169C178.484 145.833 177.372 145.365 176.338 144.778L175.425 144.306V140.025C176.654 140.661 177.459 140.997 177.838 141.032C177.991 141.061 178.15 141.051 178.297 141.005C178.445 140.959 178.575 140.877 178.675 140.77C178.852 140.558 178.944 140.092 178.95 139.369C178.956 138.647 179.005 137.287 179.097 135.289C179.103 134.364 179.259 133.445 179.562 132.561C179.753 132.03 180.102 131.557 180.571 131.192C181.037 130.875 181.598 130.691 182.182 130.661C181.464 129.84 180.84 128.955 180.321 128.021C179.759 126.888 179.387 125.685 179.217 124.454C179.091 123.556 178.999 121.678 178.942 118.818C178.966 118.177 178.887 117.535 178.709 116.914C178.539 116.506 178.275 116.135 177.933 115.826C177.169 115.225 176.327 114.709 175.425 114.288V110.025L176.338 110.497C177.611 111.124 178.807 111.868 179.907 112.718C180.737 113.398 181.441 114.193 181.993 115.072C182.547 115.943 182.935 116.891 183.139 117.877C183.374 119.295 183.475 120.729 183.441 122.162C183.391 123.632 183.478 125.102 183.699 126.559C183.888 127.498 184.281 128.395 184.854 129.199C185.49 129.975 186.293 130.63 187.216 131.125V135.405ZM159.771 118.658C159.771 117.535 160.65 117.08 161.736 117.641C162.307 117.975 162.783 118.425 163.125 118.955C163.466 119.485 163.663 120.079 163.7 120.69C163.7 121.813 162.82 122.268 161.736 121.707C161.164 121.373 160.688 120.922 160.346 120.392C160.005 119.863 159.808 119.268 159.771 118.657V118.658ZM166.629 122.205C166.629 121.083 167.509 120.628 168.594 121.189C169.166 121.523 169.642 121.973 169.983 122.503C170.324 123.033 170.522 123.627 170.559 124.238C170.559 125.361 169.679 125.816 168.594 125.255C168.022 124.92 167.546 124.47 167.205 123.94C166.863 123.411 166.666 122.816 166.629 122.205Z" fill="#CED3F8"/>
<path d="M173.487 125.753C173.487 124.63 174.367 124.175 175.452 124.737C176.024 125.071 176.5 125.521 176.841 126.051C177.183 126.581 177.38 127.175 177.417 127.786C177.417 128.909 176.537 129.363 175.452 128.802C174.88 128.468 174.404 128.018 174.063 127.488C173.721 126.958 173.524 126.364 173.487 125.753V125.753Z" fill="#CED3F8"/>
<path style="mix-blend-mode:multiply" d="M608 146.662L597.701 141.333C594.629 139.744 587.094 138.445 580.951 138.445H335.909C329.767 138.445 201.116 210.564 201.116 210.564C198.046 212.155 198.046 214.752 201.116 216.343L388.684 313.376C390.413 314.196 392.347 314.606 394.303 314.567H399.18L531.228 246.254L536.679 243.435H608V146.662Z" fill="url(#paint6_linear_6_725)"/>
<path d="M523.767 235.321C523.767 238.499 521.253 239.798 518.182 238.21L330.616 141.177C327.542 139.588 325.032 135.689 325.032 132.512V5.74541C325.032 2.56785 327.542 1.26831 330.616 2.85689L518.182 99.8895C521.253 101.479 523.766 105.378 523.766 108.556L523.767 235.321Z" fill="#423EAF"/>
<path d="M522.398 97.7097L334.829 0.676257C333.273 -0.127721 331.864 -0.189326 330.848 0.356217V0.353116L326.836 2.43765L326.848 2.43959C327.842 2.00796 329.163 2.10637 330.615 2.85688L518.182 99.8895C521.253 101.479 523.766 105.378 523.766 108.556V235.321C523.766 236.898 523.145 238.011 522.147 238.54V238.541L526.155 236.457L526.144 236.455C527.268 235.979 527.98 234.827 527.98 233.141V106.375C527.98 103.198 525.467 99.2987 522.397 97.7097H522.398Z" fill="url(#paint7_linear_6_725)"/>
<path d="M330.616 8.63388V133.411L518.182 230.444V105.667L330.616 8.63388Z" fill="white"/>
<path d="M390.991 306.205C387.921 307.794 382.895 307.794 379.824 306.205L192.256 209.172C189.187 207.584 189.187 204.984 192.256 203.395L320.106 137.255C323.175 135.668 328.2 135.668 331.272 137.255L518.841 234.29C521.911 235.878 521.911 238.476 518.841 240.066L390.991 306.205Z" fill="#F1F1F6"/>
<path d="M331.469 151.017L322.296 146.272L326.882 143.899L336.055 148.644L331.469 151.017ZM346.917 159.01L337.744 154.263L342.33 151.89L351.503 156.636L346.917 159.01ZM362.366 167.001L353.194 162.255L357.78 159.883L366.954 164.629L362.366 167.001ZM377.814 174.994L368.643 170.249L373.23 167.876L382.402 172.62L377.814 174.994ZM393.264 182.985L384.092 178.24L388.679 175.868L397.852 180.613L393.264 182.985ZM408.715 190.979L399.542 186.233L404.128 183.86L413.303 188.605L408.715 190.979ZM424.164 198.972L414.993 194.226L419.58 191.853L428.75 196.597L424.164 198.972ZM439.614 206.962L430.441 202.219L435.028 199.844L444.2 204.59L439.614 206.962ZM455.063 214.955L445.891 210.212L450.477 207.837L459.651 212.583L455.063 214.955ZM470.513 222.948L461.34 218.201L465.928 215.83L475.1 220.575L470.513 222.948ZM485.963 230.941L476.79 226.194L481.376 223.823L490.55 228.568L485.963 230.941ZM501.413 238.934L492.238 234.187L496.826 231.814L505.999 236.56L501.413 238.934ZM323.337 162.795L306.845 154.263L316.018 149.518L332.509 158.05L323.337 162.795ZM314.805 173.703L292.038 161.923L301.212 157.178L323.979 168.958L314.805 173.703ZM305.632 184.942L276.588 169.916L285.761 165.171L314.803 180.197L305.632 184.942ZM274.385 188.119L257.893 179.589L270.311 173.164L286.803 181.694L274.385 188.119ZM297.152 199.899L280.66 191.367L293.078 184.942L309.572 193.474L297.152 199.899ZM319.921 211.677L303.429 203.147L315.848 196.72L332.339 205.253L319.921 211.677ZM398.423 252.291L381.933 243.756L394.351 237.332L410.845 245.864L398.423 252.291ZM437.01 272.251L404.664 255.516L417.082 249.092L449.429 265.826L437.01 272.251ZM375.694 240.53L326.199 214.923L338.616 208.5L388.113 234.105L375.694 240.53ZM343.111 173.024L329.614 166.043L338.785 161.296L352.283 168.278L343.111 173.024ZM334.579 183.931L321.081 176.949L330.254 172.203L343.751 179.185L334.579 183.931ZM325.828 194.952L312.332 187.971L321.505 183.226L335.002 190.208L325.828 194.952ZM345.602 205.181L332.105 198.199L341.277 193.452L354.774 200.436L345.602 205.181ZM365.372 215.409L351.877 208.427L361.049 203.684L374.546 210.666L365.372 215.409ZM385.147 225.64L371.65 218.659L380.822 213.911L394.319 220.894L385.147 225.64ZM404.92 235.869L391.424 228.885L400.596 224.14L414.092 231.124L404.92 235.869ZM424.692 246.097L411.196 239.115L420.368 234.367L433.865 241.351L424.692 246.097ZM456.129 262.36L430.969 249.344L440.14 244.599L465.301 257.615L456.129 262.36ZM354.352 194.159L340.856 187.179L350.03 182.433L363.525 189.414L354.352 194.159ZM374.125 204.389L360.628 197.406L369.802 192.661L383.299 199.644L374.125 204.389ZM393.895 214.619L380.4 207.637L389.574 202.889L403.071 209.873L393.895 214.619ZM413.67 224.847L400.173 217.866L409.348 213.119L422.843 220.101L413.67 224.847ZM433.444 235.077L419.945 228.094L429.12 223.347L442.617 230.331L433.444 235.077ZM471.154 254.586L439.719 238.322L448.893 233.577L480.33 249.84L471.154 254.586ZM362.882 183.253L349.386 176.271L358.56 171.526L372.055 178.508L362.882 183.253ZM382.656 193.481L369.159 186.5L378.332 181.755L391.829 188.735L382.656 193.481ZM402.427 203.71L388.933 196.728L398.104 191.986L411.601 198.966L402.427 203.71ZM422.2 213.941L408.703 206.958L417.876 202.211L431.373 209.195L422.2 213.941ZM441.974 224.168L428.477 217.186L437.649 212.443L451.148 219.423L441.974 224.168ZM461.746 234.398L448.251 227.416L457.423 222.671L470.919 229.653L461.746 234.398ZM485.963 246.925L468.024 237.644L477.196 232.899L495.135 242.18L485.963 246.925Z" fill="#DAE0F5"/>
<path d="M494.714 226.414L346.494 149.736L350.948 147.433L499.165 224.112L494.714 226.414Z" fill="#6B67E9"/>
<path d="M375.691 250.438L300.057 211.309L253.058 235.624L328.692 274.751L375.691 250.438Z" fill="#DAE0F5"/>
<path d="M518.84 240.066L390.991 306.205C388.552 307.467 384.885 307.723 381.937 306.981C381.916 306.975 380.105 306.35 379.824 306.205L192.256 209.172C192.052 209.066 191.854 208.95 191.664 208.825C191.655 208.818 191.645 208.812 191.635 208.806C191.586 208.772 191.543 208.739 191.497 208.706C191.39 208.632 191.287 208.554 191.187 208.473C191.137 208.433 191.091 208.391 191.044 208.35C190.931 208.251 190.824 208.146 190.723 208.037L190.685 207.997C190.678 207.988 190.669 207.979 190.663 207.972C190.557 207.848 190.459 207.719 190.372 207.584C190.128 207.22 189.988 206.808 189.963 206.384H189.953V208.806H189.975C189.957 209.862 190.707 210.921 192.256 211.724L379.825 308.757C384.301 310.745 390.694 310.358 392.599 309.984C394.501 309.61 396.212 309.183 398.207 308.793L518.841 246.388C520.394 245.584 521.159 244.523 521.139 243.462V237.208C521.126 238.245 520.359 239.278 518.84 240.066Z" fill="url(#paint8_linear_6_725)"/>
<path d="M509.063 107.949L474.526 90.0829L339.734 20.3518C337.605 19.2515 335.862 20.1519 335.863 22.3554V34.3488C335.863 36.5531 337.605 39.2568 339.734 40.3579L474.526 110.089L509.063 127.956C511.193 129.058 512.935 128.157 512.935 125.954V113.959C512.935 111.755 511.193 109.052 509.063 107.949Z" fill="#FF826A"/>
<path d="M360.87 34.4426L492.229 102.398V116.303L360.87 48.3481V34.4426Z" fill="white"/>
<path d="M495.934 106.404V107.967L508.274 114.351V112.787L495.934 106.404ZM495.934 111.745L508.274 118.129V116.565L495.934 110.182V111.745ZM495.934 115.524L508.274 121.907V120.344L495.934 113.961V115.524Z" fill="#E33C5C"/>
<path d="M348.542 29.3541L352.103 31.1964C351.032 29.7591 349.625 28.5472 347.98 27.6446C344.182 25.6794 341.102 27.2726 341.102 31.203C341.117 32.2693 341.31 33.3275 341.675 34.3426L342.151 32.7517L348.542 29.3541ZM352.211 31.3406L351.266 34.5007C351.206 34.742 351.053 34.9565 350.834 35.1063C350.614 35.2562 350.343 35.3318 350.067 35.3198L347.836 35.2632L352.151 37.495L351.471 39.7694L349.929 38.9712L349.453 40.5637L346.592 39.0836L347.068 37.4911L341.838 34.7859C342.971 37.6934 345.295 40.4889 347.98 41.8779C351.779 43.8431 354.859 42.2499 354.859 38.3195C354.859 36.0405 353.822 33.4763 352.211 31.3406ZM345.731 34.1741L347.836 35.2628L348.646 32.5557L345.731 34.1741Z" fill="white"/>
<path d="M398.951 162.761L337.744 131.097V50.3695L398.951 82.0331V162.761ZM510.602 176.778L404.439 121.857V84.8727L510.602 139.793V176.778ZM510.602 220.121L404.439 165.201V127.002L510.602 181.923V220.121Z" fill="#DAE0F5"/>
<path d="M372.825 108.107L369.096 106.178V102.32L367.598 101.545V105.403L363.87 103.474V105.023L367.598 106.953V110.81L369.096 111.585V107.727L372.825 109.657V108.107Z" fill="white"/>
<path d="M430.441 118.181L412.766 109.037V105.938L430.441 115.081V118.181ZM486.477 147.17L438.19 122.19V119.09L486.477 144.07V147.17ZM422.83 152.941L412.766 147.735V144.635L422.83 149.841V152.941ZM486.477 185.867L430.579 156.95V153.85L486.477 182.768V185.867ZM435.291 170.045L412.766 158.392V155.292L435.291 166.945V170.045ZM486.477 196.525L443.04 174.054V170.954L486.477 193.425V196.525Z" fill="#807DFB"/>
<path d="M384.846 51.7516L383.633 51.1239L385.557 57.8734L386.895 58.5658L388.212 55.31L389.529 59.9285L390.868 60.6209L392.791 55.8617L391.578 55.234L390.199 58.8684L388.818 53.8066L387.606 53.179L386.226 56.8133L384.846 51.7516ZM375.311 46.8192L374.099 46.1915L376.023 52.9411L377.361 53.6334L378.678 50.3776L379.995 54.9961L381.333 55.6885L383.257 50.9294L382.045 50.3017L380.664 53.9361L379.284 48.8743L378.071 48.2466L376.692 51.881L375.311 46.8192ZM365.777 41.8868L364.565 41.2592L366.488 48.0087L367.826 48.7011L369.144 45.4457L370.461 50.0642L371.799 50.7562L373.723 45.997L372.51 45.3693L371.13 49.0041L369.75 43.9419L368.538 43.3142L367.158 46.949L365.777 41.8868ZM392.397 60.5271C392.412 60.7708 392.49 61.0079 392.627 61.2193C392.763 61.4306 392.952 61.6103 393.181 61.7438C393.258 61.7967 393.351 61.8291 393.448 61.8373C393.545 61.8454 393.642 61.829 393.729 61.7899C393.809 61.7387 393.872 61.6693 393.912 61.5889C393.951 61.5084 393.966 61.4199 393.954 61.3327C393.941 61.0918 393.864 60.8573 393.729 60.6486C393.595 60.4398 393.406 60.2628 393.18 60.1323C393.102 60.0797 393.009 60.0468 392.912 60.0373C392.814 60.0278 392.716 60.0418 392.627 60.0781C392.545 60.1261 392.48 60.1937 392.44 60.2731C392.399 60.3525 392.384 60.4405 392.397 60.5271Z" fill="#6B67E9"/>
<g style="mix-blend-mode:multiply">
<path d="M550.891 272.208L414.13 344.885H417.851L554.617 274.135L550.891 272.208Z" fill="#DAE0F5"/>
</g>
<path d="M550.891 272.208L528.59 260.671L391.829 331.424L414.129 342.961L550.891 272.208Z" fill="#00D6DC"/>
<path d="M394.749 329.914L398.71 331.962L398.161 332.249L394.198 330.199L394.749 329.914ZM406.673 323.747L410.63 325.797L410.082 326.083L406.121 324.03L406.673 323.747ZM418.593 317.579L422.553 319.631L422.002 319.915L418.042 317.865L418.593 317.579ZM430.513 311.414L434.473 313.462L433.925 313.749L429.963 311.697L430.513 311.414ZM442.434 305.245L446.399 307.297L445.846 307.579L441.882 305.531L442.434 305.245ZM454.356 299.079L458.317 301.128L457.769 301.416L453.805 299.362L454.356 299.079ZM466.276 292.913L470.238 294.961L469.689 295.244L465.723 293.195L466.276 292.913ZM478.195 286.744L482.159 288.794L481.611 289.079L477.645 287.03L478.195 286.744ZM490.115 280.577L494.082 282.627L493.529 282.912L489.567 280.863L490.115 280.577ZM502.041 274.411L506.002 276.46L505.451 276.744L501.491 274.697L502.041 274.411ZM513.96 268.243L517.923 270.293L517.373 270.578L513.409 268.527L513.96 268.243ZM525.332 262.361L529.293 264.411L529.843 264.126L525.883 262.075L525.332 262.361Z" fill="#F6F6FB"/>
<path d="M453.166 309.408L456.687 311.229L489.555 294.226L486.032 292.405L453.166 309.408ZM414.131 344.885L391.829 333.349V331.423L414.131 342.96V344.885Z" fill="#00B6BF"/>
<path d="M550.891 274.137L414.13 344.885V342.96L550.891 272.208V274.137Z" fill="#009AAA"/>
<path d="M396.446 329.036L398.43 330.061L397.88 330.348L395.896 329.321L396.446 329.036ZM398.155 328.152L400.138 329.176L399.588 329.465L397.604 328.437L398.155 328.152ZM399.864 327.268L401.847 328.293L401.297 328.581L399.313 327.553L399.864 327.268ZM401.573 326.384L403.555 327.409L403.006 327.697L401.022 326.669L401.573 326.384ZM403.281 325.5L405.264 326.525L404.715 326.813L402.731 325.785L403.281 325.5ZM404.99 324.616L406.973 325.641L406.423 325.929L404.439 324.901L404.99 324.616ZM408.37 322.867L410.353 323.892L409.803 324.18L407.819 323.153L408.37 322.867ZM410.078 321.984L412.061 323.008L411.512 323.296L409.528 322.269L410.078 321.984ZM411.787 321.1L413.77 322.124L413.22 322.412L411.236 321.385L411.787 321.1ZM413.496 320.216L415.479 321.24L414.929 321.528L412.945 320.501L413.496 320.216ZM415.205 319.332L417.187 320.356L416.638 320.644L414.654 319.617L415.205 319.332ZM416.913 318.448L418.896 319.473L418.347 319.76L416.363 318.733L416.913 318.448ZM420.293 316.699L422.276 317.724L421.726 318.012L419.742 316.984L420.293 316.699ZM422.002 315.815L423.985 316.84L423.435 317.128L421.451 316.1L422.002 315.815ZM423.71 314.931L425.693 315.956L425.144 316.244L423.16 315.216L423.71 314.931ZM425.419 314.047L427.402 315.072L426.852 315.36L424.869 314.332L425.419 314.047ZM427.128 313.163L429.111 314.188L428.561 314.476L426.577 313.448L427.128 313.163ZM428.837 312.279L430.819 313.304L430.27 313.592L428.286 312.564L428.837 312.279ZM432.216 310.531L434.199 311.556L433.65 311.843L431.666 310.816L432.216 310.531ZM433.925 309.647L435.908 310.672L435.358 310.96L433.374 309.932L433.925 309.647ZM435.634 308.763L437.616 309.788L437.067 310.075L435.083 309.048L435.634 308.763ZM437.343 307.879L439.325 308.904L438.776 309.192L436.792 308.164L437.343 307.879ZM439.051 306.995L441.034 308.02L440.485 308.308L438.501 307.28L439.051 306.995ZM440.76 306.111L442.743 307.136L442.193 307.424L440.209 306.396L440.76 306.111ZM444.14 304.363L446.122 305.387L445.573 305.675L443.589 304.648L444.14 304.363ZM445.848 303.479L447.831 304.503L447.282 304.791L445.298 303.764L445.848 303.479ZM447.557 302.595L449.54 303.62L448.99 303.907L447.006 302.88L447.557 302.595ZM449.266 301.711L451.248 302.735L450.699 303.023L448.715 301.996L449.266 301.711ZM450.975 300.827L452.957 301.852L452.408 302.14L450.424 301.112L450.975 300.827ZM452.683 299.943L454.666 300.967L454.117 301.256L452.133 300.228L452.683 299.943ZM456.063 298.194L458.046 299.219L457.496 299.507L455.512 298.479L456.063 298.194ZM457.772 297.31L459.754 298.335L459.205 298.623L457.221 297.595L457.772 297.31ZM459.481 296.426L461.463 297.451L460.914 297.739L458.93 296.711L459.481 296.426ZM461.189 295.543L463.172 296.567L462.622 296.855L460.638 295.827L461.189 295.543ZM462.898 294.658L464.881 295.683L464.331 295.971L462.347 294.944L462.898 294.658ZM464.607 293.775L466.589 294.799L466.04 295.087L464.056 294.059L464.607 293.775ZM467.986 292.026L469.969 293.05L469.419 293.339L467.435 292.311L467.986 292.026ZM469.695 291.142L471.678 292.167L471.128 292.455L469.144 291.427L469.695 291.142ZM471.404 290.258L473.386 291.283L472.837 291.571L470.853 290.543L471.404 290.258ZM473.112 289.374L475.095 290.399L474.546 290.687L472.562 289.659L473.112 289.374ZM474.821 288.49L476.804 289.515L476.254 289.803L474.271 288.775L474.821 288.49ZM476.53 287.606L478.513 288.631L477.963 288.919L475.979 287.891L476.53 287.606ZM479.91 285.858L481.892 286.883L481.343 287.17L479.359 286.142L479.91 285.858ZM481.618 284.974L483.601 285.998L483.051 286.286L481.068 285.259L481.618 284.974ZM483.327 284.09L485.31 285.115L484.76 285.402L482.776 284.375L483.327 284.09ZM485.036 283.206L487.018 284.231L486.469 284.519L484.485 283.491L485.036 283.206ZM486.745 282.322L488.727 283.347L488.178 283.634L486.194 282.607L486.745 282.322ZM488.453 281.438L490.436 282.463L489.886 282.751L487.903 281.723L488.453 281.438ZM491.833 279.689L493.815 280.714L493.266 281.002L491.282 279.974L491.833 279.689ZM493.542 278.806L495.524 279.83L494.975 280.118L492.991 279.09L493.542 278.806ZM495.25 277.922L497.233 278.946L496.684 279.234L494.7 278.207L495.25 277.922ZM496.959 277.038L498.942 278.062L498.392 278.35L496.408 277.322L496.959 277.038ZM498.668 276.154L500.65 277.178L500.101 277.466L498.117 276.439L498.668 276.154ZM500.377 275.27L502.359 276.294L501.81 276.582L499.826 275.554L500.377 275.27ZM503.756 273.521L505.739 274.546L505.189 274.834L503.205 273.806L503.756 273.521ZM505.465 272.637L507.447 273.662L506.898 273.95L504.914 272.922L505.465 272.637ZM507.174 271.753L509.156 272.778L508.607 273.066L506.623 272.038L507.174 271.753ZM508.882 270.869L510.865 271.894L510.316 272.182L508.332 271.154L508.882 270.869ZM510.591 269.985L512.574 271.01L512.024 271.298L510.04 270.27L510.591 269.985ZM512.3 269.102L514.283 270.126L513.733 270.414L511.749 269.386L512.3 269.102ZM515.679 267.353L517.662 268.377L517.113 268.665L515.129 267.638L515.679 267.353ZM517.388 266.469L519.371 267.494L518.821 267.782L516.837 266.754L517.388 266.469ZM519.097 265.585L521.08 266.61L520.53 266.898L518.546 265.87L519.097 265.585ZM520.806 264.701L522.788 265.726L522.239 266.014L520.255 264.986L520.806 264.701ZM522.514 263.817L524.497 264.842L523.948 265.13L521.964 264.102L522.514 263.817ZM524.223 262.933L526.206 263.958L525.656 264.246L523.672 263.218L524.223 262.933Z" fill="#F6F6FB"/>
<path style="mix-blend-mode:multiply" d="M579.597 276.713C578.789 276.695 577.991 276.875 577.289 277.234C576.918 277.427 575.746 278.031 574.688 278.578L574.203 278.326C574.085 278.268 573.952 278.238 573.817 278.238C573.682 278.239 573.55 278.27 573.432 278.329C573.37 278.356 564.295 283.053 564.295 283.053C564.175 283.107 564.07 283.184 563.988 283.278L563.557 283.829L468.301 335.988L462.869 343.529L477.074 339.542L567.946 292.531C568.066 292.588 568.2 292.617 568.335 292.616C568.471 292.615 568.604 292.583 568.722 292.523C568.768 292.504 577.861 287.797 577.861 287.797C577.975 287.743 578.075 287.668 578.156 287.578L578.812 286.74L582.217 284.979C582.937 284.575 583.531 284.014 583.944 283.349C584.357 282.683 584.576 281.935 584.581 281.174C584.58 280.588 584.451 280.008 584.201 279.466C583.95 278.925 583.583 278.433 583.12 278.019C582.658 277.604 582.108 277.276 581.504 277.052C580.899 276.828 580.252 276.713 579.597 276.713Z" fill="url(#paint9_linear_6_725)"/>
<path d="M571.559 275.166C570.751 275.149 569.953 275.329 569.25 275.686L565.995 277.37C566.309 277.455 566.611 277.573 566.894 277.72C569.117 278.872 570.916 281.666 570.916 283.964C570.921 284.405 570.832 284.843 570.654 285.254L574.176 283.432C574.896 283.028 575.491 282.468 575.904 281.802C576.317 281.137 576.536 280.389 576.54 279.627C576.539 278.444 576.014 277.309 575.08 276.473C574.145 275.636 572.879 275.166 571.559 275.166Z" fill="url(#paint10_linear_6_725)"/>
<path d="M459.194 336.356C459.573 336.577 459.888 336.876 460.114 337.227C460.34 337.578 460.471 337.973 460.495 338.377C460.495 338.828 460.276 339.114 459.949 339.185L469.031 337.995L470.974 335.52L469.031 331.037L465.152 329.029L458.171 336.352C458.319 336.252 458.498 336.198 458.683 336.199C458.868 336.2 459.047 336.255 459.194 336.356Z" fill="url(#paint11_linear_6_725)"/>
<path d="M459.194 336.356C459.047 336.255 458.868 336.2 458.683 336.199C458.498 336.198 458.318 336.252 458.171 336.352L458.063 336.463L454.83 339.857L459.855 339.195L459.949 339.185C460.276 339.113 460.495 338.828 460.495 338.377C460.471 337.973 460.34 337.578 460.114 337.227C459.888 336.876 459.573 336.577 459.194 336.356Z" fill="url(#paint12_linear_6_725)"/>
<path d="M556.738 289.346C556.351 289.122 556.044 288.802 555.855 288.426L554.28 284.788C554.213 284.601 554.192 284.404 554.219 284.21C554.246 284.016 554.32 283.83 554.436 283.664L555.948 281.732C556.064 281.591 556.232 281.492 556.422 281.454C556.613 281.416 556.812 281.441 556.983 281.524L560.148 283.161C560.535 283.385 560.841 283.706 561.027 284.084L562.602 287.721C562.67 287.907 562.692 288.105 562.665 288.299C562.639 288.494 562.565 288.681 562.449 288.847L560.938 290.778C560.822 290.919 560.654 291.017 560.464 291.055C560.273 291.093 560.074 291.068 559.903 290.984L556.738 289.346Z" fill="#CED3F8"/>
<path d="M562.325 288.262L470.974 335.52L469.031 331.037L560.384 283.78L562.325 288.262Z" fill="#FF826A"/>
<path d="M560.384 290.737L469.031 337.995L470.974 335.52L562.325 288.262L560.384 290.737Z" fill="#E33C5C"/>
<path d="M560.384 283.78L469.031 331.037L465.152 329.029L556.503 281.771L560.384 283.78Z" fill="#FFAF6D"/>
<path d="M571.782 282.971L570.209 279.337C570.021 278.959 569.714 278.638 569.326 278.413L566.165 276.777C566.046 276.72 565.913 276.691 565.778 276.692C565.643 276.694 565.511 276.725 565.393 276.784C565.331 276.809 556.255 281.507 556.255 281.507C556.37 281.46 556.496 281.438 556.622 281.441C556.748 281.444 556.871 281.473 556.983 281.525L560.148 283.161C560.535 283.385 560.841 283.706 561.028 284.084L562.602 287.721C562.67 287.907 562.692 288.105 562.665 288.299C562.639 288.494 562.565 288.681 562.449 288.848L560.938 290.778C560.88 290.848 560.81 290.909 560.729 290.957L569.824 286.253C569.938 286.197 570.037 286.121 570.115 286.029L571.63 284.1C571.745 283.933 571.818 283.746 571.844 283.551C571.87 283.356 571.849 283.158 571.782 282.971Z" fill="url(#paint13_linear_6_725)"/>
<path style="mix-blend-mode:multiply" d="M562.056 290.269C562.138 290.223 562.208 290.162 562.264 290.091L563.776 288.162C563.892 287.995 563.966 287.808 563.992 287.613C564.018 287.419 563.996 287.221 563.928 287.035L562.355 283.4C562.169 283.022 561.862 282.701 561.474 282.477L558.311 280.842C558.201 280.789 558.079 280.759 557.954 280.757C557.829 280.754 557.705 280.779 557.593 280.828C557.579 280.821 556.931 281.157 556.931 281.157C557.046 281.111 557.172 281.089 557.298 281.092C557.424 281.096 557.547 281.125 557.659 281.178L560.824 282.812C561.211 283.038 561.517 283.358 561.705 283.736L563.278 287.372C563.346 287.558 563.367 287.756 563.341 287.95C563.315 288.144 563.242 288.331 563.127 288.498L561.612 290.43C561.555 290.5 561.485 290.561 561.404 290.608L562.056 290.269Z" fill="url(#paint14_linear_6_725)"/>
<path style="mix-blend-mode:multiply" d="M563.426 289.559C563.509 289.513 563.581 289.452 563.637 289.38L565.146 287.451C565.262 287.285 565.336 287.098 565.363 286.904C565.39 286.709 565.368 286.512 565.299 286.326L563.727 282.688C563.538 282.311 563.232 281.991 562.845 281.765L559.682 280.131C559.572 280.078 559.449 280.049 559.324 280.047C559.199 280.044 559.075 280.068 558.963 280.117C558.953 280.11 558.301 280.448 558.301 280.448C558.416 280.401 558.541 280.379 558.667 280.382C558.793 280.386 558.917 280.415 559.028 280.467L562.194 282.103C562.581 282.328 562.888 282.648 563.077 283.025L564.652 286.661C564.719 286.848 564.74 287.046 564.713 287.241C564.686 287.436 564.612 287.624 564.496 287.79L562.983 289.719C562.927 289.791 562.856 289.851 562.774 289.897L563.426 289.559Z" fill="url(#paint15_linear_6_725)"/>
<path style="mix-blend-mode:multiply" d="M564.797 288.851C564.879 288.805 564.95 288.744 565.006 288.673L566.522 286.743C566.637 286.576 566.71 286.389 566.737 286.194C566.763 285.999 566.742 285.802 566.675 285.615L565.1 281.978C564.91 281.602 564.604 281.282 564.217 281.056L561.054 279.42C560.944 279.367 560.822 279.338 560.697 279.336C560.572 279.333 560.448 279.357 560.336 279.406C560.326 279.401 559.672 279.739 559.672 279.739C559.788 279.692 559.914 279.67 560.04 279.673C560.167 279.677 560.291 279.706 560.404 279.758L563.566 281.396C563.954 281.618 564.261 281.937 564.449 282.314L566.023 285.954C566.091 286.14 566.112 286.338 566.085 286.532C566.059 286.726 565.985 286.913 565.87 287.079L564.357 289.01C564.3 289.08 564.229 289.14 564.147 289.187L564.797 288.851Z" fill="url(#paint16_linear_6_725)"/>
<path style="mix-blend-mode:multiply" d="M292.966 223.107C292.966 218.546 289.359 212.947 284.951 210.667L164.021 148.108C159.613 145.827 156.006 147.693 156.006 152.254V246.574C156.006 251.135 159.613 256.733 164.022 259.013L284.951 321.573C289.359 323.854 292.966 321.988 292.966 317.427V223.107Z" fill="url(#paint17_linear_6_725)"/>
<path d="M292.966 317.427V223.107C292.966 218.546 289.359 212.948 284.951 210.667L164.021 148.108C161.843 146.981 159.863 146.87 158.414 147.592L160.674 146.423L160.68 146.431C162.143 145.589 164.206 145.65 166.489 146.831L287.418 209.391C291.826 211.672 295.433 217.269 295.433 221.83V316.15C295.433 318.537 294.44 320.176 292.866 320.879L290.805 321.945C292.14 321.153 292.966 319.6 292.966 317.426V317.427Z" fill="url(#paint18_linear_6_725)"/>
<g style="mix-blend-mode:screen">
<path d="M202.626 189.366L200.265 187.076L185.997 213.409L188.357 215.699L202.626 189.366ZM204.539 217.688L216.068 212.674L204.539 195.73L202.794 196.79L212.263 210.706L202.794 214.824L204.539 217.688ZM182.628 206.354L184.374 205.296L174.904 191.378L184.374 187.261L182.628 184.396L171.099 189.41L182.628 206.354Z" fill="#807DFB"/>
</g>
<g style="mix-blend-mode:screen">
<path d="M280.745 311.628L219.684 280.039C217.193 278.75 215.172 275.291 215.172 272.314V258.128C215.172 255.151 217.193 253.782 219.684 255.072L280.745 286.66C283.237 287.949 285.257 291.407 285.257 294.385V308.571C285.257 311.548 283.237 312.917 280.745 311.628Z" fill="#423EAF"/>
</g>
<path d="M255.627 291.749C258.616 290.203 258.616 285.189 255.627 280.55C252.638 275.911 247.792 273.404 244.803 274.95C241.814 276.496 241.814 281.511 244.803 286.149C247.792 290.788 252.638 293.295 255.627 291.749Z" fill="white"/>
<path d="M252.01 279.406V289.733L250.356 288.878V280.365L250.186 280.277L248.602 282.246L246.849 281.339L249.486 278.1L252.01 279.406Z" fill="#6B67E9"/>
<g style="mix-blend-mode:screen">
<path d="M239.299 202.763L222.663 194.157V190.979L239.299 199.586V202.763Z" fill="#6B67E9"/>
<path d="M230.682 214.719L222.663 210.57V213.748L230.682 217.897V214.719Z" fill="#CED3F8"/>
<path d="M285.257 226.539L242.114 204.22V201.042L285.257 223.361V226.539Z" fill="#FF826A"/>
<path d="M274.806 227.574L231.663 205.255V202.077L274.806 224.396V227.574Z" fill="#C4CAE9"/>
<path d="M268.22 230.609L228.293 209.954V206.776L268.22 227.431V230.609Z" fill="#6B67E9"/>
<path d="M243.727 231.352L222.663 220.455V217.277L243.727 228.174V231.352Z" fill="#00D6DC"/>
<path d="M285.257 252.836L246.543 232.808V229.631L285.257 249.659V252.836Z" fill="#6B67E9"/>
<path d="M231.294 232.354L222.663 227.889V224.711L231.294 229.176V232.354ZM285.257 260.271L234.109 233.81V230.633L285.257 257.093V260.271ZM239.299 243.929L222.663 235.323V232.145L239.299 240.752V243.929Z" fill="#CED3F8"/>
<path d="M285.257 267.704L242.114 245.386V242.208L285.257 264.527V267.704Z" fill="#6B67E9"/>
<path d="M274.806 269.977L231.663 247.658V244.481L274.806 266.799V269.977Z" fill="#FF826A"/>
<path d="M281.674 279.972L239.299 258.05V254.873L281.674 276.795V279.972Z" fill="#6B67E9"/>
</g>
<path style="mix-blend-mode:multiply" d="M172.568 319.549H204.302V324.775H172.568V319.549Z" fill="url(#paint19_linear_6_725)"/>
<path style="mix-blend-mode:multiply" d="M158.261 312.002H189.995V317.228H158.261V312.002Z" fill="url(#paint20_linear_6_725)"/>
<path d="M154.749 315.62C154.749 311.515 157.654 311.396 157.654 311.396C157.654 311.396 159.226 311.396 161.779 310.447C164.3 309.508 167.852 309.871 165.867 313.152C165.848 313.194 165.825 313.234 165.799 313.273C165.633 313.486 165.412 313.659 165.155 313.779L158.811 317.114C157.843 317.609 154.772 316.465 154.749 315.62Z" fill="url(#paint21_linear_6_725)"/>
<path d="M154.766 315.252C154.822 316.095 157.851 317.217 158.811 316.726L165.155 313.392C165.473 313.223 165.773 313.028 166.049 312.808C165.991 312.921 165.941 313.029 165.868 313.152C165.848 313.194 165.825 313.234 165.799 313.273C165.633 313.486 165.412 313.66 165.155 313.779L158.811 317.114C157.905 317.577 155.153 316.603 154.79 315.783C154.775 315.728 154.765 315.673 154.761 315.617C154.754 315.495 154.755 315.374 154.766 315.252Z" fill="#1E1C6B"/>
<path d="M155.93 310.856C156.677 310.856 159.309 311.456 159.309 311.456C159.331 311.673 159.411 311.883 159.545 312.067C159.571 312.093 159.594 312.119 159.618 312.146C160.137 312.47 160.665 312.982 159.433 313.675C159.105 313.892 158.702 313.997 158.295 313.971C157.888 313.946 157.505 313.79 157.215 313.534C157.055 313.237 156.808 312.985 156.5 312.805C156.293 312.678 156.059 312.589 155.813 312.546C155.813 312.527 155.811 312.508 155.807 312.49C155.807 312.49 155.616 310.856 155.93 310.856Z" fill="white"/>
<path d="M155.883 270.713L168.789 270.92C167.722 278.647 165.574 285.666 164.138 293.149C162.599 300.421 160.863 305.531 159.348 311.584C158.795 312.711 156.257 312.285 155.742 311.2C155.341 305.626 154.88 298.835 156.724 292.405C156.415 285.472 155.702 277.713 155.883 270.713Z" fill="#1E1C6B"/>
<path d="M169.212 323.163C169.212 319.058 172.116 318.94 172.116 318.94C172.116 318.94 173.688 318.94 176.243 317.99C178.762 317.052 182.315 317.414 180.33 320.695C180.31 320.737 180.288 320.778 180.261 320.817C180.096 321.03 179.875 321.203 179.617 321.323L173.273 324.658C172.306 325.153 169.234 324.009 169.212 323.163Z" fill="url(#paint22_linear_6_725)"/>
<path d="M169.229 322.796C169.284 323.639 172.314 324.76 173.273 324.27L179.617 320.936C179.936 320.766 180.235 320.571 180.513 320.351C180.454 320.464 180.403 320.573 180.329 320.695C180.31 320.737 180.288 320.778 180.261 320.816C180.096 321.029 179.875 321.203 179.617 321.322L173.273 324.657C172.369 325.121 169.615 324.147 169.252 323.327C169.236 323.272 169.227 323.216 169.224 323.16C169.216 323.039 169.218 322.917 169.229 322.796Z" fill="#1E1C6B"/>
<path d="M170.393 318.4C171.139 318.4 173.773 318.999 173.773 318.999C173.793 319.217 173.873 319.427 174.006 319.61C174.033 319.636 174.056 319.663 174.08 319.69C174.6 320.013 175.128 320.525 173.896 321.218C173.569 321.436 173.165 321.541 172.758 321.515C172.351 321.489 171.968 321.334 171.678 321.077C171.517 320.781 171.27 320.529 170.962 320.349C170.756 320.221 170.522 320.133 170.277 320.089C170.276 320.07 170.273 320.052 170.269 320.033C170.269 320.033 170.079 318.4 170.393 318.4Z" fill="white"/>
<path d="M164.986 289.086C164.2 285.765 155.155 285.352 155.749 272.292C158.587 271.918 172.906 277.935 175.743 277.56C176.099 285.34 175.259 292.578 175.206 300.17C175.013 307.571 174.232 312.866 173.841 319.06C173.499 320.253 170.919 320.203 170.213 319.209C168.802 313.769 167.108 307.136 167.756 300.522C166.911 296.858 165.905 292.975 164.986 289.086Z" fill="url(#paint23_linear_6_725)"/>
<path d="M162.294 246.93C152.193 252.978 150.989 264.988 156.451 272.61C156.451 272.61 155.277 255.722 162.294 246.93Z" fill="#E33C5C"/>
<path d="M161.832 279.696C167.981 282.787 174.414 282.794 176.607 278.993C175.786 271.917 175.018 266.158 176.601 259.375C176.133 255.63 175.191 253.354 175.725 251.168C172.343 250.754 169.43 246.099 167.467 245.741C159.06 244.203 154.975 257.627 155.679 271.938C156.328 275.743 158.805 278.174 161.832 279.696Z" fill="url(#paint24_linear_6_725)"/>
<path d="M162.805 246.595C164.629 245.415 164.358 244.642 164.085 243.035C163.72 242.147 163.534 241.207 163.536 240.261C163.536 236.681 166.08 233.589 169.198 233.781C175.48 234.168 174.362 237.13 174.362 240.709C174.362 244.025 172.683 246.306 169.877 246.691C169.877 247.236 171.039 248.401 171.804 249.087C168.735 251.23 165.755 248.816 164.572 248.337C163.311 247.826 161.95 247.388 162.805 246.595Z" fill="#FFD3AB"/>
<path d="M173.645 251.569C183.342 249.945 189.652 243.537 193.584 237.296L196.869 238.598C194.87 246.618 187.921 257.691 175.202 259.756C168.769 259.756 169.275 252.301 173.645 251.569Z" fill="url(#paint25_linear_6_725)"/>
<path d="M193.972 236.244L193.959 236.277C193.959 234.821 194.3 233.974 194.926 233.726C195.061 233.378 195.203 233.014 195.341 232.668C196.15 230.637 198.688 228.896 199.226 229.379C199.551 229.671 198.261 230.565 197.581 231.532C197.261 231.992 197.066 232.514 197.014 233.055C197.014 233.055 200.05 233.308 200.05 235.569C200.05 237.407 198.943 236.681 198.943 236.319C198.16 238.18 197.229 237.08 196.869 238.597L193.584 237.295C193.584 237.295 193.738 236.875 193.972 236.244Z" fill="#FFD3AB"/>
<path d="M166.437 232.875C167.247 232.501 167.977 232.694 168.428 232.435C169.501 231.847 170.517 231.472 171.086 231.751C171.369 231.921 171.636 232.111 171.884 232.32C172.443 232.82 173.589 231.755 173.863 233.047C173.934 233.378 173.966 233.715 173.959 234.052C176.641 234.361 175.321 236.55 173.164 240.767C173.162 240.082 171.538 238.5 171.538 241.542C171.538 241.869 171.812 241.933 171.572 242.367C171.331 242.799 169.789 243.89 168.773 244.802C167.353 246.073 166.52 244.933 164.173 245.162C164.189 244.482 163.974 243.813 163.556 243.245C163.332 242.889 162.044 241.757 162.042 239.781C163.864 239.982 160.626 235.558 166.437 232.875Z" fill="#1E1C6B"/>
<path d="M264.035 45.5344V80.8661L229.887 98.5327C229.887 79.0194 245.176 55.291 264.035 45.5344Z" fill="#807DFB"/>
<path d="M257.588 42.1992L280.933 54.2763L247.479 107.633L223.439 95.1974C223.439 75.6834 238.728 51.9558 257.588 42.1992Z" fill="url(#paint26_linear_6_725)"/>
<path d="M264.035 45.5344V80.8661L229.887 98.5327C229.887 79.0194 245.176 55.291 264.035 45.5344Z" fill="#00D6DC"/>
<path d="M229.887 98.5327L264.035 80.8661L233.799 112.927C231.305 109.31 229.887 104.461 229.887 98.5327Z" fill="#807DFB"/>
<path d="M264.035 80.866V45.5344C282.895 35.7778 298.184 43.687 298.184 63.2002C298.184 82.7134 282.895 106.441 264.035 116.198C250.905 122.99 239.513 121.212 233.799 112.927L264.035 80.866Z" fill="#DCE1F4"/>
<path d="M257.588 42.1991C267.073 37.292 275.654 36.8572 281.842 40.1161L287.859 43.2294L287.855 43.2379C281.702 40.2204 273.303 40.7403 264.035 45.5344L257.588 42.1991H257.588Z" fill="#F7F7FC"/>
<path d="M232.831 114.659C230.601 113.363 228.727 111.63 227.351 109.592L233.799 112.927C235.175 114.966 237.049 116.699 239.28 117.995L232.831 114.659Z" fill="#A3A9D0"/>
<path d="M227.351 109.592C224.857 105.975 223.439 101.126 223.439 95.1974L229.887 98.5327H229.886C229.886 104.461 231.304 109.31 233.799 112.927L227.351 109.592Z" fill="#5652CC"/>
<path style="mix-blend-mode:multiply" d="M112.502 301.561L77.5315 283.469C74.6446 281.975 69.9214 281.975 67.0332 283.469L32.6215 301.271C29.7343 302.765 29.7351 305.208 32.6207 306.702L50.9166 316.168V325.914H72.8518C74.6759 325.946 76.4789 325.561 78.0906 324.795L112.505 306.991C115.391 305.498 115.39 303.055 112.502 301.561Z" fill="url(#paint27_linear_6_725)"/>
<path d="M57.3752 313.778C54.488 315.272 49.7643 315.271 46.8762 313.777L11.9053 295.685C9.0198 294.191 9.01894 291.747 11.9062 290.254L46.3179 272.452C49.206 270.958 53.9293 270.958 56.8161 272.452L91.787 290.544C94.6747 292.037 94.6759 294.481 91.7896 295.974L57.3752 313.778Z" fill="#F6F6FB"/>
<path d="M52.1274 312.632C50.743 312.663 49.372 312.382 48.1405 311.814L13.1697 293.722C12.4562 293.353 12.2763 293.029 12.2703 292.968C12.2763 292.91 12.4571 292.586 13.171 292.217L47.5819 274.415C48.8243 273.877 50.1862 273.598 51.566 273.598C52.9459 273.597 54.3079 273.877 55.5504 274.414L90.5221 292.506C91.2373 292.876 91.4181 293.201 91.4246 293.261C91.4181 293.319 91.2374 293.643 90.5247 294.012L56.1104 311.816C54.88 312.382 53.5104 312.663 52.1274 312.632Z" fill="white"/>
<path d="M9.74452 303.881L9.75014 303.882C9.69825 304.901 10.4104 305.928 11.9062 306.702L46.8775 324.794C49.7638 326.288 54.488 326.288 57.3757 324.794L91.787 306.992C93.2991 306.21 94.0104 305.168 93.9391 304.14L93.9404 293.396C93.8773 294.334 93.1659 295.262 91.7895 295.974L57.3752 313.778C54.488 315.272 49.7643 315.271 46.8761 313.777L11.9053 295.685C10.4801 294.947 9.76052 293.977 9.74365 293.005L9.74452 303.881Z" fill="url(#paint28_linear_6_725)"/>
<path d="M9.74452 300.036H9.75014C9.69825 301.056 10.4104 302.083 11.9062 302.856L46.8775 320.949C49.7638 322.442 54.488 322.442 57.3757 320.948L91.787 303.147C93.2991 302.364 94.0104 301.322 93.9391 300.295L93.9404 298.16C93.8773 299.099 93.1659 300.027 91.7895 300.739L57.3752 318.542C54.488 320.036 49.7643 320.035 46.8761 318.542L11.9053 300.449C10.4801 299.711 9.76052 298.742 9.74365 297.769L9.74452 300.036Z" fill="url(#paint29_linear_6_725)"/>
<path d="M52.5875 280.922C53.5526 280.483 54.6195 280.255 55.7016 280.255C56.7837 280.255 57.8506 280.483 58.8156 280.922C60.5362 281.811 60.5367 283.254 58.8156 284.144C57.8506 284.583 56.7838 284.811 55.7018 284.811C54.6198 284.811 53.553 284.583 52.588 284.144C50.8678 283.254 50.8678 281.811 52.588 280.922H52.5875Z" fill="#FCBA06"/>
<g style="mix-blend-mode:multiply">
<path d="M55.1699 308.777L66.6432 291.934C67.4376 290.768 65.2681 289.646 63.0139 290.057L30.4564 295.992L55.1699 308.777Z" fill="#DAE0F5"/>
</g>
<g style="mix-blend-mode:multiply">
<path d="M39.5471 300.695L47.4655 289.071C48.2599 287.904 46.09 286.782 43.8363 287.193L21.3657 291.29L39.5471 300.695Z" fill="#DFE4F4"/>
</g>
<path style="mix-blend-mode:multiply" d="M300.328 376.287L235.383 342.69C234.533 342.305 233.594 342.105 232.642 342.105C231.69 342.105 230.752 342.305 229.902 342.69L211.939 351.982C210.432 352.762 210.432 354.037 211.939 354.817L273.678 386.757V388.996H279.478V388.992C280.48 389.032 281.476 388.833 282.364 388.415L300.329 379.122C301.836 378.342 301.835 377.066 300.328 376.287Z" fill="url(#paint30_linear_6_725)"/>
<path d="M229.583 339.65C228.734 339.266 227.795 339.065 226.843 339.065C225.892 339.065 224.953 339.266 224.103 339.65L206.14 348.943C204.633 349.723 204.633 350.999 206.14 351.779L226.352 362.235L249.796 350.107L229.583 339.65Z" fill="#00D6DC"/>
<path d="M224.567 349.921C224.277 349.188 224.722 348.361 225.896 347.754C227.68 346.831 230.444 346.766 232.072 347.608C233.697 348.449 233.57 349.881 231.787 350.803C230.503 351.412 229.041 351.651 227.6 351.489C229.251 353.211 228.69 355.14 226.939 356.045C226.517 355.824 221.352 353.153 221.352 353.153L215.76 350.262C217.509 349.356 221.24 349.066 224.567 349.921Z" fill="#009AAA"/>
<path d="M294.529 373.248L249.796 350.107L226.352 362.235L271.085 385.376C271.934 385.76 272.873 385.961 273.825 385.961C274.777 385.961 275.716 385.761 276.566 385.376L294.53 376.083C296.037 375.303 296.036 374.028 294.529 373.248Z" fill="#F1F1F6"/>
<path d="M206.14 351.779C205.396 351.393 205.02 350.887 205.011 350.379L205.012 353.345H205.015C204.988 353.878 205.36 354.414 206.141 354.818L226.352 365.274V362.235L206.14 351.779Z" fill="#009AAA"/>
<path d="M294.53 376.083L276.566 385.376C275.716 385.761 274.777 385.961 273.825 385.961C272.873 385.961 271.935 385.761 271.085 385.376L226.353 362.234V365.273L271.086 388.415C271.936 388.8 272.874 389 273.826 389C274.778 389 275.717 388.8 276.567 388.415L294.53 379.122C295.319 378.714 295.691 378.17 295.653 377.634V374.736C295.607 375.027 295.479 375.302 295.283 375.537C295.087 375.772 294.829 375.96 294.531 376.082L294.53 376.083Z" fill="url(#paint31_linear_6_725)"/>
<path d="M243.271 356.666L279.002 375.151L281.482 373.868L245.752 355.383L243.271 356.666Z" fill="url(#paint32_linear_6_725)"/>
<path d="M236.858 359.984L250.707 367.148L253.187 365.865L239.338 358.7L236.858 359.984Z" fill="url(#paint33_linear_6_725)"/>
<path d="M253.445 368.565L256.922 370.364L259.402 369.08L255.926 367.282L253.445 368.565Z" fill="url(#paint34_linear_6_725)"/>
<path style="mix-blend-mode:multiply" d="M149.196 367.938C148.948 367.557 148.662 367.197 148.342 366.861C147.18 365.827 149.858 364.097 151.067 363.472C151.09 363.472 147.542 361.637 147.542 361.637L137.119 361.646C136.552 360.934 136.246 360.081 136.243 359.206L131.242 359.204C131.24 359.935 130.908 361.568 129.527 362.282C129.215 362.442 128.872 362.548 128.516 362.593C127.808 362.717 127.111 362.866 126.436 363.041C126.406 363.039 126.376 363.034 126.347 363.027C125.671 362.853 124.979 362.704 124.272 362.58C122.039 362.278 121.58 360.075 121.585 359.193L116.583 359.191C116.582 359.921 116.25 361.556 114.869 362.27C114.557 362.43 114.214 362.535 113.858 362.579C113.158 362.701 112.463 362.85 111.778 363.027C109.475 363.472 106.458 362.25 105.256 361.623L101.709 363.458C102.911 364.084 105.568 365.815 104.391 366.847C104.066 367.182 103.776 367.543 103.525 367.926C103.389 368.152 103.179 368.335 102.923 368.45C101.544 369.163 98.3956 369.331 96.982 369.331L96.9734 371.926C98.6745 371.925 102.919 372.17 103.49 373.33C103.737 373.713 104.024 374.074 104.345 374.409C105.508 375.442 102.829 377.172 101.621 377.798L105.143 379.634C105.288 379.56 105.434 379.488 105.582 379.42L105.168 379.634L115.586 379.643C116.141 380.353 116.439 381.199 116.44 382.065L136.095 382.079L140.995 379.64L147.43 379.645L150.978 377.811C149.773 377.185 147.119 375.454 148.293 374.422C148.491 374.214 148.677 373.996 148.849 373.77L152.147 373.773L155.693 371.939C155.696 371.939 155.713 369.345 155.713 369.345C153.889 369.409 149.768 369.1 149.196 367.939L149.196 367.938Z" fill="url(#paint35_linear_6_725)"/>
<path d="M104.685 358.681C104.682 357.673 102.701 356.405 101.709 355.888L101.734 363.458C102.724 363.975 104.707 365.243 104.709 366.25L104.685 358.681Z" fill="#F5F5FA"/>
<path d="M136.434 363.458L136.409 355.888C135.407 356.407 133.395 357.686 133.398 358.695L133.421 366.265C133.419 365.255 135.431 363.977 136.434 363.458Z" fill="#BBBFE2"/>
<path d="M112.793 367.379C116.267 365.581 121.874 365.581 125.324 367.378C127.038 368.27 127.896 369.437 127.902 370.608L127.876 363.037C127.872 361.869 127.013 360.701 125.3 359.807C121.849 358.011 116.244 358.011 112.769 359.807C111.023 360.711 110.153 361.897 110.156 363.08L110.178 370.65C110.176 369.466 111.048 368.281 112.793 367.379Z" fill="url(#paint36_linear_6_725)"/>
<path d="M105.144 372.063L101.621 370.228L101.644 377.798L105.168 379.634L105.144 372.063Z" fill="#CED2F4"/>
<path d="M136.344 377.798L136.32 370.228L132.772 372.063L132.796 379.634L136.344 377.798Z" fill="#BBBFE2"/>
<path d="M111.706 378.23C112.38 378.404 113.074 378.553 113.782 378.676C115.986 378.973 116.462 381.126 116.465 382.031L116.441 374.461C116.437 373.555 115.961 371.404 113.758 371.107C113.059 370.985 112.367 370.836 111.682 370.66C109.696 370.054 106.353 371.437 105.143 372.062L105.168 379.633C106.377 379.006 109.721 377.622 111.706 378.23Z" fill="url(#paint37_linear_6_725)"/>
<path d="M123.191 378.984C123.501 378.825 123.841 378.721 124.195 378.677C124.894 378.554 125.586 378.406 126.271 378.231C128.269 377.623 131.594 379.006 132.796 379.634L132.772 372.063C131.571 371.437 128.245 370.054 126.248 370.661C125.563 370.836 124.87 370.984 124.171 371.107C123.817 371.151 123.476 371.255 123.166 371.413C121.804 372.117 121.515 373.727 121.438 374.496L121.463 382.064C121.54 381.298 121.827 379.687 123.19 378.984H123.191Z" fill="url(#paint38_linear_6_725)"/>
<path d="M104.345 366.839C105.508 367.871 102.829 369.602 101.621 370.228L105.143 372.063C106.353 371.437 109.696 370.054 111.682 370.66C112.357 370.834 113.051 370.983 113.758 371.107C115.989 371.406 116.449 373.611 116.44 374.496H121.438C121.516 373.727 121.804 372.117 123.166 371.413C123.476 371.255 123.817 371.151 124.171 371.107C124.87 370.984 125.563 370.835 126.248 370.661C128.245 370.054 131.571 371.436 132.772 372.063L136.32 370.228C135.118 369.603 132.461 367.871 133.636 366.839C133.96 366.503 134.251 366.142 134.505 365.76C134.641 365.535 134.851 365.352 135.107 365.237C136.485 364.522 139.634 364.355 141.04 364.355L141.055 361.761C139.229 361.825 135.109 361.516 134.538 360.355C134.29 359.973 134.004 359.613 133.684 359.278C132.522 358.244 135.199 356.514 136.409 355.888L132.885 354.054C131.675 354.679 128.332 356.063 126.347 355.456C125.663 355.281 124.971 355.132 124.272 355.011C122.039 354.708 121.58 352.505 121.585 351.623L116.583 351.621C116.582 352.352 116.25 353.986 114.869 354.7C114.557 354.859 114.214 354.964 113.858 355.01C113.15 355.134 112.453 355.281 111.778 355.457C109.475 355.902 106.458 354.679 105.256 354.054L101.709 355.888C102.911 356.514 105.568 358.244 104.391 359.276C104.066 359.611 103.776 359.973 103.525 360.356C103.389 360.581 103.179 360.764 102.923 360.88C101.544 361.593 98.3956 361.761 96.982 361.761L96.9734 364.355C98.6745 364.355 102.919 364.6 103.49 365.76C103.738 366.143 104.024 366.504 104.345 366.839ZM112.769 359.807C116.244 358.011 121.849 358.011 125.3 359.807C128.748 361.603 128.734 364.515 125.26 366.312C121.791 368.108 116.179 368.106 112.732 366.31C109.281 364.513 109.299 361.603 112.769 359.807Z" fill="#F1F1F6"/>
<path d="M101.621 370.228C102.829 369.602 105.508 367.871 104.345 366.839C104.024 366.504 103.738 366.143 103.49 365.76C102.919 364.6 98.6745 364.355 96.9734 364.355L96.9972 371.925C98.5536 371.921 100.106 372.071 101.626 372.371L101.621 370.228Z" fill="#CED2F4"/>
<path d="M121.463 382.064L121.438 374.496H116.44L116.465 382.065L121.463 382.064Z" fill="#BBBFE2"/>
<path d="M141.064 371.925L141.04 364.355C139.634 364.355 136.485 364.522 135.107 365.237C134.851 365.352 134.641 365.534 134.505 365.76C134.251 366.142 133.96 366.503 133.636 366.839C132.461 367.871 135.118 369.603 136.32 370.228L136.327 372.402C137.881 372.082 139.47 371.922 141.064 371.925Z" fill="url(#paint39_linear_6_725)"/>
<defs>
<linearGradient id="paint0_linear_6_725" x1="539.866" y1="208.156" x2="604.624" y2="208.156" gradientUnits="userSpaceOnUse">
<stop stop-color="#CFD5F1"/>
<stop offset="0.283" stop-color="#E1E5F6"/>
<stop offset="0.719" stop-color="#F7F8FD"/>
<stop offset="1" stop-color="white"/>
</linearGradient>
<linearGradient id="paint1_linear_6_725" x1="342.581" y1="359.778" x2="422.273" y2="359.778" gradientUnits="userSpaceOnUse">
<stop stop-color="#CFD5F1"/>
<stop offset="0.283" stop-color="#E1E5F6"/>
<stop offset="0.719" stop-color="#F7F8FD"/>
<stop offset="1" stop-color="white"/>
</linearGradient>
<linearGradient id="paint2_linear_6_725" x1="369.679" y1="370.977" x2="415.525" y2="370.977" gradientUnits="userSpaceOnUse">
<stop stop-color="#CFD5F1"/>
<stop offset="0.283" stop-color="#E1E5F6"/>
<stop offset="0.719" stop-color="#F7F8FD"/>
<stop offset="1" stop-color="white"/>
</linearGradient>
<linearGradient id="paint3_linear_6_725" x1="42.6052" y1="260.997" x2="126.408" y2="260.997" gradientUnits="userSpaceOnUse">
<stop stop-color="#C4CAE9"/>
<stop offset="0.082" stop-color="#CACFEB"/>
<stop offset="0.684" stop-color="#F0F2FA"/>
<stop offset="1" stop-color="white"/>
</linearGradient>
<linearGradient id="paint4_linear_6_725" x1="50.5409" y1="212.458" x2="85.2099" y2="212.458" gradientUnits="userSpaceOnUse">
<stop stop-color="#CFD5F1"/>
<stop offset="0.283" stop-color="#E1E5F6"/>
<stop offset="0.719" stop-color="#F7F8FD"/>
<stop offset="1" stop-color="white"/>
</linearGradient>
<linearGradient id="paint5_linear_6_725" x1="151.509" y1="61.2567" x2="209.288" y2="172.945" gradientUnits="userSpaceOnUse">
<stop offset="0.455" stop-color="#FF826A"/>
<stop offset="0.512" stop-color="#F87066"/>
<stop offset="0.626" stop-color="#E5405D"/>
<stop offset="0.635" stop-color="#E33C5C"/>
</linearGradient>
<linearGradient id="paint6_linear_6_725" x1="198.814" y1="226.506" x2="608" y2="226.506" gradientUnits="userSpaceOnUse">
<stop stop-color="#C4C9E4"/>
<stop offset="0.236" stop-color="#CACEE7"/>
<stop offset="0.541" stop-color="#DADDEE"/>
<stop offset="0.881" stop-color="#F4F5FA"/>
<stop offset="1" stop-color="white"/>
</linearGradient>
<linearGradient id="paint7_linear_6_725" x1="377.723" y1="-23.896" x2="515.317" y2="242.075" gradientUnits="userSpaceOnUse">
<stop offset="0.576" stop-color="#807CFB"/>
<stop offset="0.612" stop-color="#1F196F"/>
</linearGradient>
<linearGradient id="paint8_linear_6_725" x1="189.952" y1="258.335" x2="521.139" y2="258.335" gradientUnits="userSpaceOnUse">
<stop offset="0.562" stop-color="#5652CC"/>
<stop offset="0.612" stop-color="#1F196F"/>
</linearGradient>
<linearGradient id="paint9_linear_6_725" x1="460.686" y1="310.121" x2="584.252" y2="310.121" gradientUnits="userSpaceOnUse">
<stop stop-color="#DAE0F5"/>
<stop offset="0.327" stop-color="#DEE3F6"/>
<stop offset="0.66" stop-color="#EAEEF9"/>
<stop offset="0.996" stop-color="white"/>
<stop offset="1" stop-color="white"/>
</linearGradient>
<linearGradient id="paint10_linear_6_725" x1="569.51" y1="275.742" x2="573.865" y2="283.81" gradientUnits="userSpaceOnUse">
<stop stop-color="#6B67E9"/>
<stop offset="1" stop-color="#362E93"/>
</linearGradient>
<linearGradient id="paint11_linear_6_725" x1="466.598" y1="338.424" x2="462.523" y2="330.445" gradientUnits="userSpaceOnUse">
<stop stop-color="#BBC0E6"/>
<stop offset="1" stop-color="#F6F6FB"/>
</linearGradient>
<linearGradient id="paint12_linear_6_725" x1="458.504" y1="339.715" x2="456.741" y2="337.173" gradientUnits="userSpaceOnUse">
<stop stop-color="#362E93"/>
<stop offset="1" stop-color="#807CFB"/>
</linearGradient>
<linearGradient id="paint13_linear_6_725" x1="566.903" y1="287.291" x2="562.129" y2="278.333" gradientUnits="userSpaceOnUse">
<stop offset="0.074" stop-color="#A3A9D0"/>
<stop offset="0.137" stop-color="#CED3F8"/>
<stop offset="0.559" stop-color="#CED3F8"/>
<stop offset="0.69" stop-color="#F6F6FB"/>
</linearGradient>
<linearGradient id="paint14_linear_6_725" x1="563.873" y1="289.22" x2="557.786" y2="280.588" gradientUnits="userSpaceOnUse">
<stop offset="0.559" stop-color="#D1D7F3"/>
<stop offset="0.69" stop-color="#F1F1F6"/>
</linearGradient>
<linearGradient id="paint15_linear_6_725" x1="565.244" y1="288.51" x2="559.156" y2="279.878" gradientUnits="userSpaceOnUse">
<stop offset="0.559" stop-color="#D1D7F3"/>
<stop offset="0.69" stop-color="#F1F1F6"/>
</linearGradient>
<linearGradient id="paint16_linear_6_725" x1="566.617" y1="287.8" x2="560.529" y2="279.169" gradientUnits="userSpaceOnUse">
<stop offset="0.559" stop-color="#D1D7F3"/>
<stop offset="0.69" stop-color="#F1F1F6"/>
</linearGradient>
<linearGradient id="paint17_linear_6_725" x1="155.607" y1="253.818" x2="291.93" y2="207.037" gradientUnits="userSpaceOnUse">
<stop stop-color="#5652CC"/>
<stop offset="1" stop-color="#807DFB"/>
</linearGradient>
<linearGradient id="paint18_linear_6_725" x1="310.043" y1="312" x2="210.935" y2="120.422" gradientUnits="userSpaceOnUse">
<stop offset="0.396" stop-color="#20196F"/>
<stop offset="0.479" stop-color="#362E94"/>
</linearGradient>
<linearGradient id="paint19_linear_6_725" x1="172.569" y1="322.162" x2="204.302" y2="322.162" gradientUnits="userSpaceOnUse">
<stop stop-color="#C6CBE7"/>
<stop offset="0.077" stop-color="#CED2EA"/>
<stop offset="0.398" stop-color="#E9EBF6"/>
<stop offset="0.682" stop-color="#F9FAFD"/>
<stop offset="0.899" stop-color="white"/>
</linearGradient>
<linearGradient id="paint20_linear_6_725" x1="158.26" y1="314.615" x2="189.995" y2="314.615" gradientUnits="userSpaceOnUse">
<stop stop-color="#C6CBE7"/>
<stop offset="0.077" stop-color="#CED2EA"/>
<stop offset="0.398" stop-color="#E9EBF6"/>
<stop offset="0.682" stop-color="#F9FAFD"/>
<stop offset="0.899" stop-color="white"/>
</linearGradient>
<linearGradient id="paint21_linear_6_725" x1="166.446" y1="313.615" x2="154.749" y2="313.615" gradientUnits="userSpaceOnUse">
<stop stop-color="#6A6AE2"/>
<stop offset="0.284" stop-color="#5857C7"/>
<stop offset="0.756" stop-color="#3E3C9E"/>
<stop offset="1" stop-color="#34318F"/>
</linearGradient>
<linearGradient id="paint22_linear_6_725" x1="180.909" y1="321.159" x2="169.212" y2="321.159" gradientUnits="userSpaceOnUse">
<stop stop-color="#6A6AE2"/>
<stop offset="0.284" stop-color="#5857C7"/>
<stop offset="0.756" stop-color="#3E3C9E"/>
<stop offset="1" stop-color="#34318F"/>
</linearGradient>
<linearGradient id="paint23_linear_6_725" x1="175.831" y1="296.115" x2="155.721" y2="296.115" gradientUnits="userSpaceOnUse">
<stop stop-color="#3366A3"/>
<stop offset="0.016" stop-color="#4A5ABB"/>
<stop offset="0.027" stop-color="#5555C6"/>
<stop offset="1" stop-color="#1E1C6B"/>
</linearGradient>
<linearGradient id="paint24_linear_6_725" x1="176.607" y1="263.778" x2="155.601" y2="263.778" gradientUnits="userSpaceOnUse">
<stop stop-color="#E33C5C"/>
<stop offset="0.156" stop-color="#E4425D"/>
<stop offset="0.36" stop-color="#E8525F"/>
<stop offset="0.591" stop-color="#EF6D63"/>
<stop offset="0.84" stop-color="#F89369"/>
<stop offset="1" stop-color="#FFAF6D"/>
</linearGradient>
<linearGradient id="paint25_linear_6_725" x1="170.629" y1="255.986" x2="199.699" y2="237.98" gradientUnits="userSpaceOnUse">
<stop stop-color="#FF5A72"/>
<stop offset="0.407" stop-color="#FC5770"/>
<stop offset="0.711" stop-color="#F34D69"/>
<stop offset="0.981" stop-color="#E43D5D"/>
<stop offset="1" stop-color="#E33C5C"/>
</linearGradient>
<linearGradient id="paint26_linear_6_725" x1="272.825" y1="35.772" x2="232.407" y2="114.421" gradientUnits="userSpaceOnUse">
<stop stop-color="#00B6BF"/>
<stop offset="0.199" stop-color="#00ADB8"/>
<stop offset="0.63" stop-color="#009FAE"/>
<stop offset="1" stop-color="#009AAA"/>
</linearGradient>
<linearGradient id="paint27_linear_6_725" x1="30.4564" y1="304.131" x2="114.669" y2="304.131" gradientUnits="userSpaceOnUse">
<stop stop-color="#C4C9E4"/>
<stop offset="0.254" stop-color="#CED2E8"/>
<stop offset="0.677" stop-color="#E7E9F4"/>
<stop offset="1" stop-color="white"/>
</linearGradient>
<linearGradient id="paint28_linear_6_725" x1="93.9471" y1="309.456" x2="9.74519" y2="309.457" gradientUnits="userSpaceOnUse">
<stop offset="0.409" stop-color="#BBC0E6"/>
<stop offset="0.413" stop-color="#BCC1E7"/>
<stop offset="0.565" stop-color="#CED3F8"/>
</linearGradient>
<linearGradient id="paint29_linear_6_725" x1="93.9471" y1="309.915" x2="9.74496" y2="309.916" gradientUnits="userSpaceOnUse">
<stop offset="0.409" stop-color="#5652CC"/>
<stop offset="0.496" stop-color="#706CE9"/>
<stop offset="0.565" stop-color="#807DFB"/>
</linearGradient>
<linearGradient id="paint30_linear_6_725" x1="210.809" y1="365.55" x2="301.459" y2="365.55" gradientUnits="userSpaceOnUse">
<stop stop-color="#C4C9E4"/>
<stop offset="0.254" stop-color="#CED2E8"/>
<stop offset="0.677" stop-color="#E7E9F4"/>
<stop offset="1" stop-color="white"/>
</linearGradient>
<linearGradient id="paint31_linear_6_725" x1="295.666" y1="375.616" x2="205.02" y2="375.618" gradientUnits="userSpaceOnUse">
<stop offset="0.409" stop-color="#BBC0E6"/>
<stop offset="0.413" stop-color="#BCC1E7"/>
<stop offset="0.565" stop-color="#CED3F8"/>
</linearGradient>
<linearGradient id="paint32_linear_6_725" x1="243.319" y1="414.568" x2="253.302" y2="356.685" gradientUnits="userSpaceOnUse">
<stop offset="0.409" stop-color="#BBC0E6"/>
<stop offset="0.565" stop-color="#C4CAE9"/>
</linearGradient>
<linearGradient id="paint33_linear_6_725" x1="236.213" y1="385.715" x2="240.828" y2="358.957" gradientUnits="userSpaceOnUse">
<stop offset="0.409" stop-color="#BBC0E6"/>
<stop offset="0.565" stop-color="#C4CAE9"/>
</linearGradient>
<linearGradient id="paint34_linear_6_725" x1="252.471" y1="379.047" x2="254.542" y2="367.043" gradientUnits="userSpaceOnUse">
<stop offset="0.409" stop-color="#BBC0E6"/>
<stop offset="0.565" stop-color="#C4CAE9"/>
</linearGradient>
<linearGradient id="paint35_linear_6_725" x1="96.9734" y1="370.635" x2="155.713" y2="370.635" gradientUnits="userSpaceOnUse">
<stop offset="0.331" stop-color="#C4C9E5"/>
<stop offset="0.584" stop-color="#D7DBED"/>
<stop offset="1" stop-color="white"/>
</linearGradient>
<linearGradient id="paint36_linear_6_725" x1="110.156" y1="364.555" x2="127.902" y2="364.555" gradientUnits="userSpaceOnUse">
<stop stop-color="#BBBFE2"/>
<stop offset="1" stop-color="#DCE0F7"/>
</linearGradient>
<linearGradient id="paint37_linear_6_725" x1="105.143" y1="376.27" x2="116.465" y2="376.27" gradientUnits="userSpaceOnUse">
<stop stop-color="#BBBFE2"/>
<stop offset="1" stop-color="#CED2F4"/>
</linearGradient>
<linearGradient id="paint38_linear_6_725" x1="132.241" y1="376.184" x2="121.367" y2="376.37" gradientUnits="userSpaceOnUse">
<stop stop-color="#CED2F4"/>
<stop offset="1" stop-color="#BBBFE2"/>
</linearGradient>
<linearGradient id="paint39_linear_6_725" x1="133.343" y1="368.379" x2="141.064" y2="368.379" gradientUnits="userSpaceOnUse">
<stop offset="0.404" stop-color="#BBBFE2"/>
<stop offset="1" stop-color="#CED2F4"/>
</linearGradient>
</defs>
</svg>
