<svg width="663" height="560" viewBox="0 0 663 560" fill="none" xmlns="http://www.w3.org/2000/svg">
<path d="M612.761 460.225H612.759L559.02 460.286L559.003 444.192C593.352 442.669 601.445 438.684 603.085 386.726C604.028 354.595 598.019 293.238 565.874 285.232C558.897 283.491 549.978 282.411 539.375 282.005L539.359 267.621C539.659 266.537 539.84 265.424 539.899 264.303C542.347 263.869 545.921 262.171 546.269 258.084C555.915 232.567 543.937 232.905 543.937 232.905C534.605 215.177 516.107 224.65 512.527 226.237C510.256 227.231 504.753 226.974 501.007 226.654C499.532 226.525 498.588 228.192 499.532 229.314C502.251 232.568 504.09 233.514 504.09 233.514C502.748 233.491 501.416 233.291 500.129 232.921C498.505 232.456 497.228 234.299 498.322 235.533C499.491 236.848 500.679 237.962 501.634 238.795C500.222 241.82 497.598 249.478 503.285 255.829C503.187 266.263 506.267 276.121 516.953 277.873C516.757 282.05 517.359 280.859 516.45 282.165C497.583 283.154 475.588 290.019 466.183 304.665C449.095 325.55 447.263 354.441 447.072 361.319L307.03 361.48C306.906 361.48 306.783 361.507 306.671 361.56C306.558 361.612 306.46 361.689 306.383 361.783C306.305 361.878 306.251 361.988 306.223 362.105C306.196 362.223 306.197 362.345 306.225 362.462L329.716 460.546L51.3858 460.863C51.166 460.863 50.9552 460.948 50.7997 461.098C50.6443 461.248 50.557 461.452 50.557 461.665C50.557 461.877 50.6443 462.081 50.7997 462.231C50.9552 462.382 51.166 462.466 51.3858 462.466L612.763 461.828C612.983 461.828 613.193 461.743 613.349 461.593C613.504 461.442 613.591 461.238 613.591 461.026C613.59 460.813 613.503 460.609 613.347 460.459C613.192 460.309 612.981 460.225 612.761 460.225ZM513.145 413.584L513.173 436.036C509.966 436.238 506.766 435.459 503.638 434.684C493.975 432.291 491.432 432.844 485.056 442.419C484.28 443.584 483.521 444.719 482.77 445.681L481.325 439.864C481.954 438.463 486.881 428.221 496.187 427.751C496.296 427.746 496.403 427.72 496.501 427.675C496.6 427.629 496.688 427.566 496.761 427.487C496.833 427.409 496.89 427.317 496.926 427.218C496.962 427.119 496.977 427.013 496.971 426.908C496.948 426.467 496.56 426.099 496.1 426.152C487.699 426.576 482.704 433.797 480.716 437.412L477.481 424.387C486.382 409.458 502.628 408.304 513.147 413.584H513.145ZM484.081 446.659C484.863 445.658 485.637 444.506 486.45 443.286C492.388 434.365 494.192 433.994 503.225 436.237C504.584 436.573 506.02 436.924 507.502 437.197L506.358 446.631L484.081 446.659ZM547.633 460.299L547.616 447.832C547.616 447.668 547.583 447.505 547.518 447.353C547.453 447.201 547.357 447.063 547.237 446.947C547.117 446.831 546.974 446.739 546.817 446.676C546.66 446.614 546.492 446.581 546.322 446.582L508.029 446.63L509.141 437.453C510.462 437.628 511.811 437.705 513.177 437.63L513.182 441.945C513.182 442.139 513.255 442.326 513.388 442.472C513.521 442.618 513.704 442.713 513.903 442.738C525.318 444.14 542.362 444.948 557.346 444.224L557.362 460.288L547.633 460.299ZM592.545 318.26C592.538 318.629 602.533 345.557 592.649 375.083C592.584 375.284 592.603 375.503 592.704 375.69C592.804 375.878 592.976 376.019 593.184 376.085C593.391 376.15 593.617 376.133 593.812 376.038C594.007 375.944 594.156 375.778 594.225 375.578C598.203 363.695 599.007 352.177 598.535 342.601C600.933 357.123 601.86 372.294 601.419 386.675C599.877 436.426 591.923 439.184 568.57 441.755C577.062 437.732 579.285 430.93 579.396 430.574C579.446 430.374 579.416 430.163 579.31 429.984C579.205 429.806 579.033 429.673 578.829 429.614C578.625 429.554 578.406 429.573 578.216 429.665C578.026 429.758 577.88 429.917 577.808 430.111C577.682 430.515 574.592 439.814 561.349 442.397C539.824 443.874 518.937 441.701 514.838 441.235C514.838 441.395 514.841 435.616 514.798 409.384L553.988 401.674L561.395 409.225C561.47 409.302 561.559 409.364 561.659 409.407C561.758 409.45 561.865 409.473 561.974 409.476C562.082 409.479 562.191 409.461 562.292 409.423C562.394 409.385 562.487 409.328 562.565 409.256C562.644 409.184 562.708 409.097 562.752 409.001C562.797 408.905 562.821 408.801 562.824 408.696C562.826 408.591 562.808 408.486 562.768 408.388C562.729 408.29 562.67 408.2 562.595 408.124L555.145 400.527L558.017 380.02C558.032 379.916 558.025 379.809 557.997 379.708C557.97 379.606 557.922 379.51 557.856 379.426C557.79 379.343 557.708 379.272 557.614 379.219C557.519 379.166 557.416 379.132 557.308 379.117C557.2 379.1 557.089 379.105 556.983 379.131C556.876 379.156 556.776 379.203 556.689 379.267C556.602 379.331 556.529 379.412 556.475 379.504C556.421 379.596 556.387 379.698 556.375 379.803L553.529 400.128L513.805 407.943C513.617 407.98 513.449 408.079 513.328 408.223C513.207 408.367 513.141 408.546 513.142 408.732L513.145 411.8C512.864 411.672 512.581 411.551 512.295 411.434L525.436 303.087L542.682 299.738C542.791 299.715 542.895 299.672 542.986 299.61C543.078 299.549 543.156 299.47 543.216 299.379C543.276 299.288 543.317 299.187 543.336 299.08C543.355 298.974 543.352 298.865 543.327 298.76L539.644 283.621C549.98 284.03 558.669 285.089 565.459 286.785C578.847 290.119 587.255 303.128 592.545 318.26ZM542.611 235.902C545.143 233.341 549.957 237.338 548.71 244.766C548.312 247.138 547.384 249.382 546.489 251.546C546.436 251.716 546.232 251.859 545.959 251.77C545.908 251.752 545.862 251.724 545.823 251.688C545.783 251.653 545.752 251.609 545.73 251.562C545.709 251.514 545.697 251.462 545.697 251.41C545.696 251.358 545.706 251.306 545.727 251.257C546.605 249.126 547.5 246.914 547.898 244.638C549.02 237.999 545.004 234.62 543.207 236.463C543.058 236.623 542.793 236.623 542.627 236.479C542.462 236.319 542.462 236.062 542.611 235.902ZM502.35 229.795C502.278 229.715 502.238 229.613 502.238 229.507C502.238 229.401 502.278 229.298 502.35 229.218C502.516 229.058 502.781 229.058 502.947 229.218C506.868 233.011 512.786 234.615 518.312 233.097C518.527 233.049 518.759 233.177 518.826 233.386C518.892 233.594 518.759 233.818 518.544 233.883C515.711 234.641 512.722 234.663 509.878 233.945C507.035 233.227 504.438 231.796 502.35 229.795ZM504.14 236.319C504.289 236.143 504.538 236.11 504.72 236.239C513.182 242.334 524.637 240.065 527.13 236.03C527.187 235.944 527.277 235.883 527.38 235.86C527.483 235.836 527.592 235.851 527.683 235.903C527.775 235.954 527.842 236.038 527.872 236.136C527.902 236.234 527.891 236.34 527.842 236.431C525.094 240.845 513.164 243.304 504.223 236.88C504.136 236.815 504.079 236.721 504.063 236.616C504.048 236.511 504.075 236.404 504.14 236.319ZM505.189 250.998C505.331 250.974 505.463 250.913 505.572 250.823C505.648 250.757 507.455 249.264 510.628 251.533C510.805 251.653 511.023 251.7 511.236 251.667C511.449 251.633 511.64 251.52 511.768 251.352C511.896 251.184 511.952 250.974 511.923 250.768C511.894 250.561 511.782 250.373 511.612 250.244C508.728 248.183 506.562 248.558 505.4 249.07C505.761 246.181 506.25 243.721 506.626 242.059C519.558 247.853 532.4 236.96 532.4 236.96C531.986 253.165 536.246 256.034 536.246 256.034C540.217 253.513 542.641 253.655 544.119 254.627C544.034 254.762 543.993 254.919 544 255.078C544.008 255.236 544.063 255.389 544.16 255.516C544.446 255.89 544.608 256.433 544.638 257.13C544.863 262.219 539.268 262.782 539.029 262.804C538.827 262.822 538.638 262.91 538.499 263.053C538.36 263.196 538.279 263.383 538.273 263.579C538.23 264.999 538.053 266.212 537.733 267.289C537.711 267.362 537.7 267.438 537.699 267.514L537.718 282.403L525.32 300.254C525.202 300.165 525.056 300.118 524.907 300.121L518.615 282.54L518.613 280.813C528.873 280.646 530.269 273.441 530.29 273.377C530.327 273.162 530.295 272.941 530.2 272.744C530.104 272.546 529.95 272.381 529.756 272.271C529.562 272.16 529.338 272.108 529.113 272.122C528.888 272.137 528.673 272.217 528.495 272.351C524.088 275.743 518.284 276.07 518.239 276.092C518.004 276.105 517.78 276.192 517.601 276.339C505.932 274.677 504.102 262.354 505.189 250.998ZM463.193 311.6C462.5 314.578 462.446 317.925 463.513 321.594C463.573 321.799 463.714 321.972 463.906 322.076C464.098 322.18 464.324 322.206 464.536 322.149C464.748 322.091 464.927 321.955 465.034 321.769C465.142 321.584 465.169 321.364 465.109 321.16C458.965 300.058 489.95 285.368 515.448 283.826L508.697 294.999C508.638 295.096 508.602 295.204 508.589 295.315C508.576 295.427 508.587 295.539 508.621 295.646C508.656 295.753 508.713 295.852 508.789 295.937C508.865 296.021 508.958 296.09 509.063 296.137L523.785 302.937L510.697 410.841C499.231 407.014 485.324 409.232 476.927 422.161L472.523 404.431L472.474 363.568C472.473 363.356 472.385 363.152 472.23 363.002C472.074 362.852 471.863 362.768 471.643 362.768C471.423 362.769 471.213 362.854 471.058 363.004C470.903 363.155 470.816 363.359 470.816 363.571L470.858 397.725L461.786 361.201C461.707 360.937 461.541 360.706 461.315 360.541C461.089 360.376 460.813 360.286 460.53 360.284L449.956 360.3C449.542 360.3 449.151 360.492 449.005 360.712C448.883 360.829 448.791 360.972 448.737 361.13C448.935 354.647 450.553 331.041 463.193 311.6ZM449.784 362.919C474.632 466.784 471.527 454.638 473.019 459.935L331.311 460.097L308.076 363.081L449.784 362.919Z" fill="#0E0B58"/>
<path d="M257.029 398.251L260.368 397.352C260.477 397.327 260.579 397.281 260.668 397.217C260.758 397.153 260.833 397.072 260.89 396.979C260.947 396.887 260.983 396.784 260.998 396.677C261.013 396.57 261.005 396.462 260.975 396.358C260.945 396.254 260.894 396.157 260.825 396.073C260.755 395.989 260.669 395.919 260.571 395.867C260.473 395.816 260.366 395.784 260.255 395.774C260.144 395.764 260.032 395.775 259.926 395.808L256.583 396.706C256.478 396.734 256.38 396.782 256.294 396.847C256.208 396.912 256.137 396.993 256.083 397.084C256.03 397.176 255.995 397.277 255.982 397.382C255.969 397.486 255.977 397.592 256.007 397.694C256.036 397.795 256.086 397.89 256.153 397.973C256.22 398.056 256.303 398.125 256.398 398.177C256.493 398.229 256.598 398.262 256.706 398.274C256.814 398.287 256.924 398.279 257.029 398.251ZM178.181 430.628C178.107 430.706 178.05 430.796 178.012 430.895C177.974 430.994 177.957 431.099 177.961 431.204C177.965 431.309 177.991 431.413 178.036 431.508C178.082 431.604 178.146 431.69 178.226 431.762C178.306 431.833 178.4 431.889 178.502 431.925C178.604 431.962 178.712 431.979 178.821 431.975C178.93 431.971 179.037 431.946 179.136 431.902C179.235 431.858 179.324 431.796 179.398 431.718C202.394 407.701 238.96 391.431 268.812 409.208C268.999 409.319 269.224 409.355 269.438 409.306C269.652 409.257 269.837 409.127 269.952 408.947C270.067 408.766 270.104 408.548 270.053 408.341C270.002 408.134 269.869 407.955 269.682 407.844C239.025 389.587 201.637 406.134 178.181 430.628ZM234.162 395.766L238.857 392.594C239.033 392.471 239.151 392.286 239.187 392.079C239.223 391.872 239.173 391.66 239.049 391.488C238.925 391.316 238.736 391.198 238.523 391.159C238.31 391.12 238.09 391.163 237.909 391.28L233.214 394.45C233.038 394.574 232.92 394.759 232.884 394.966C232.848 395.173 232.898 395.385 233.022 395.557C233.146 395.729 233.335 395.847 233.548 395.886C233.761 395.925 233.981 395.883 234.162 395.766ZM216.271 398.735L219.513 396.212C219.601 396.147 219.676 396.066 219.732 395.974C219.787 395.881 219.823 395.778 219.837 395.671C219.851 395.565 219.843 395.457 219.813 395.354C219.782 395.25 219.731 395.154 219.662 395.07C219.592 394.986 219.506 394.917 219.408 394.866C219.311 394.815 219.203 394.783 219.093 394.773C218.982 394.763 218.871 394.775 218.765 394.807C218.659 394.839 218.561 394.892 218.477 394.962L215.23 397.486C215.058 397.619 214.949 397.813 214.925 398.025C214.901 398.236 214.965 398.448 215.103 398.614C215.241 398.78 215.441 398.886 215.66 398.909C215.878 398.932 216.098 398.87 216.269 398.736L216.271 398.735Z" fill="#0E0B58"/>
<path d="M217.204 412.904C216.986 412.876 216.766 412.932 216.591 413.06C216.416 413.187 216.299 413.376 216.266 413.585C216.235 413.796 216.292 414.009 216.424 414.179C216.556 414.349 216.752 414.461 216.97 414.491C218.39 414.685 219.688 415.505 220.444 416.683C220.56 416.864 220.746 416.993 220.96 417.041C221.174 417.09 221.399 417.054 221.586 416.942C221.773 416.829 221.906 416.65 221.956 416.443C222.006 416.236 221.969 416.018 221.853 415.837C221.344 415.052 220.664 414.383 219.861 413.877C219.059 413.371 218.152 413.039 217.204 412.904ZM242.283 410.623L237.453 408.539C237.255 408.466 237.035 408.469 236.839 408.548C236.643 408.627 236.485 408.775 236.399 408.963C236.312 409.151 236.304 409.363 236.374 409.557C236.445 409.751 236.59 409.911 236.779 410.004L241.609 412.088C241.807 412.161 242.027 412.158 242.223 412.079C242.42 412.001 242.577 411.852 242.663 411.664C242.75 411.477 242.759 411.264 242.688 411.071C242.617 410.877 242.472 410.717 242.283 410.623Z" fill="#0E0B58"/>
<path d="M134.412 431.677C135.174 432.092 140.225 434.057 150.94 441.201L135.144 441.218C134.924 441.218 134.714 441.303 134.558 441.453C134.403 441.603 134.316 441.807 134.316 442.02C134.316 442.232 134.403 442.436 134.558 442.587C134.714 442.737 134.924 442.821 135.144 442.821L195.587 442.752C195.806 442.752 196.017 442.668 196.173 442.518C196.328 442.367 196.415 442.164 196.415 441.951C196.415 441.738 196.328 441.535 196.173 441.384C196.017 441.234 195.806 441.15 195.587 441.15L179.791 441.167C191.053 433.645 201.968 428.141 215.2 424.526C249.439 415.069 276.035 426.007 280.771 405.677C287.182 378.237 222.261 366.551 181.372 409.716C186.671 396.925 194.102 384.639 200.755 376.271L286.255 376.175C286.475 376.174 286.685 376.089 286.84 375.939C286.995 375.789 287.082 375.585 287.082 375.373L287.041 342.202L390.371 342.091C390.591 342.091 390.801 342.006 390.956 341.856C391.111 341.706 391.198 341.502 391.198 341.29L391.165 311.451L430.869 311.406C430.978 311.406 431.085 311.385 431.186 311.345C431.286 311.304 431.378 311.245 431.454 311.17C431.531 311.096 431.592 311.007 431.633 310.91C431.675 310.813 431.696 310.708 431.696 310.603L431.641 267.209C431.641 266.997 431.554 266.793 431.398 266.642C431.243 266.492 431.032 266.408 430.812 266.408L391.097 266.454L391.041 219.902L440.86 219.841L440.81 179.081L390.989 179.142L390.916 119.036C390.916 118.824 390.829 118.62 390.674 118.469C390.518 118.319 390.307 118.235 390.088 118.235L119.219 118.541C118.755 118.541 118.407 118.894 118.407 119.342L118.523 214.472L52.8361 214.542C52.372 214.542 52.0074 214.895 52.0074 215.344L52.0604 258.749C52.0604 259.198 52.4267 259.551 52.8908 259.551C139.217 259.443 113.708 259.475 118.573 259.47L118.617 296.517C83.5165 280.811 58.7352 307.349 82.7988 331.506C97.1792 346.143 130.696 364.905 149.289 409.753C108.536 366.969 43.2807 378.273 49.8725 405.938C55.3622 429.611 90.541 410.524 134.412 431.677ZM415.618 198.155L422.911 203.492C423.369 203.861 423.332 204.47 422.911 204.775L415.635 210.128C414.755 210.79 413.752 209.474 414.624 208.862L421.038 204.133L414.624 199.437C413.742 198.778 414.743 197.539 415.618 198.155ZM402.69 208.942L412.303 189.932C412.351 189.837 412.418 189.753 412.499 189.683C412.581 189.613 412.676 189.56 412.779 189.525C412.883 189.491 412.992 189.477 413.1 189.483C413.209 189.49 413.316 189.517 413.414 189.563C413.512 189.61 413.599 189.674 413.671 189.753C413.743 189.832 413.799 189.924 413.834 190.024C413.87 190.124 413.884 190.229 413.878 190.335C413.871 190.44 413.843 190.543 413.795 190.637L404.181 209.647C404.082 209.836 403.911 209.981 403.704 210.05C403.496 210.119 403.269 210.106 403.071 210.016C402.973 209.97 402.885 209.905 402.813 209.826C402.74 209.747 402.685 209.655 402.65 209.556C402.614 209.456 402.6 209.35 402.606 209.245C402.613 209.14 402.642 209.037 402.69 208.942ZM393.573 194.228L400.85 188.874C401.712 188.228 402.728 189.509 401.861 190.157L395.446 194.869L401.861 199.565C402.759 200.239 401.695 201.471 400.866 200.848L393.573 195.51C393.47 195.435 393.387 195.339 393.329 195.227C393.272 195.116 393.242 194.993 393.242 194.869C393.242 194.745 393.272 194.622 393.329 194.511C393.387 194.399 393.47 194.302 393.573 194.228ZM279.156 405.324C274.769 424.142 249.298 413.441 214.658 423.01C200.107 427.006 189.238 432.848 176.89 441.164L169.69 441.177C174.654 434.092 178.055 418.166 179.671 413.996C218.568 368.396 285.262 379.161 279.156 405.324ZM179.081 410.952C180.387 399.461 179.832 388.079 177.638 376.663C182.438 363.328 188.527 351.774 195.742 342.303L196.684 342.301L196.724 375.476C196.725 375.864 197.064 376.28 197.554 376.28H198.671C191.532 385.553 184.246 397.994 179.081 410.952ZM166.178 343.805C166.435 343.311 166.693 342.824 166.965 342.337L179.08 342.322L179.395 348.394C179.423 348.955 179.89 349.195 180.319 349.147C180.424 349.139 180.526 349.111 180.619 349.065C180.713 349.018 180.796 348.955 180.863 348.877C180.931 348.8 180.983 348.71 181.014 348.613C181.046 348.517 181.058 348.415 181.049 348.314L180.739 342.319L193.71 342.305C187.152 351.128 181.541 361.667 176.996 373.688C174.712 363.344 171.25 353.565 166.178 343.805ZM59.9833 216.14L147.019 216.044L147.073 257.831L60.0347 257.933L59.9833 216.14ZM370.017 150.261C370.017 150.71 369.636 151.063 369.188 151.063L236.406 151.207C236.298 151.211 236.19 151.193 236.088 151.155C235.987 151.117 235.895 151.059 235.818 150.986C235.74 150.912 235.679 150.825 235.638 150.728C235.596 150.631 235.576 150.527 235.577 150.422L235.561 138.496C235.561 138.048 235.925 137.695 236.389 137.695L369.172 137.535C369.387 137.535 369.603 137.615 369.752 137.775C369.901 137.919 370 138.128 370 138.336L370.017 150.261ZM206.786 144.491C206.788 145.494 206.586 146.488 206.19 147.416C205.795 148.343 205.214 149.186 204.481 149.896C203.748 150.606 202.878 151.17 201.92 151.554C200.961 151.939 199.934 152.137 198.897 152.137H198.88C196.787 152.135 194.78 151.331 193.298 149.901C191.816 148.471 190.98 146.531 190.974 144.507C190.974 140.292 194.521 136.862 198.88 136.862C203.302 136.862 206.786 140.324 206.786 144.491ZM184.758 144.507C184.758 148.771 181.241 152.153 176.869 152.153H176.852C175.815 152.155 174.788 151.959 173.83 151.577C172.872 151.194 172.001 150.632 171.268 149.923C170.535 149.214 169.954 148.372 169.558 147.446C169.162 146.519 168.96 145.526 168.962 144.523C168.961 143.52 169.164 142.527 169.559 141.599C169.955 140.672 170.536 139.829 171.269 139.119C172.001 138.409 172.872 137.846 173.83 137.461C174.788 137.077 175.815 136.878 176.852 136.878H176.869C181.277 136.878 184.758 140.378 184.758 144.507ZM162.747 144.539C162.741 146.565 161.907 148.507 160.425 149.94C158.944 151.373 156.936 152.18 154.84 152.185C153.803 152.187 152.775 151.991 151.816 151.608C150.857 151.226 149.986 150.664 149.251 149.955C148.517 149.247 147.934 148.405 147.537 147.478C147.139 146.552 146.934 145.558 146.934 144.555C146.934 140.212 150.615 136.91 154.824 136.91H154.84C156.933 136.914 158.939 137.719 160.42 139.148C161.902 140.577 162.738 142.516 162.747 144.539ZM198.383 374.671L198.35 341.498L198.333 332.878L285.368 332.782L285.425 374.573L198.381 374.669L198.383 374.671ZM430.038 309.803L342.998 309.901L342.952 268.118L429.987 268.014L430.037 309.805L430.038 309.803ZM375.672 219.922L389.383 219.906L389.441 266.454L342.113 266.509C342.004 266.509 341.896 266.529 341.795 266.57C341.695 266.61 341.603 266.669 341.526 266.744C341.449 266.819 341.388 266.907 341.347 267.004C341.305 267.102 341.284 267.206 341.284 267.312L341.337 310.706C341.337 311.147 341.712 311.509 342.171 311.509L389.509 311.462L389.542 340.49L287.043 340.599L287.029 331.976C287.029 331.53 286.651 331.174 286.196 331.174L197.503 331.272C197.039 331.272 196.671 331.641 196.671 332.08L196.682 340.698C196.455 340.698 131.387 340.775 130.525 340.779L130.425 259.456L147.904 259.435C148.351 259.435 148.741 259.089 148.741 258.629L148.679 215.24C148.679 215.027 148.592 214.823 148.437 214.673C148.281 214.523 148.07 214.438 147.851 214.438L130.376 214.456L130.321 169.816L389.322 169.512L389.335 179.145L375.623 179.161L375.672 219.922ZM83.9789 330.381C61.4452 307.757 84.2574 282.444 118.621 298.276L118.627 305.104L116.267 305.105C116.047 305.105 115.836 305.19 115.681 305.34C115.526 305.49 115.438 305.694 115.438 305.907C115.438 306.119 115.526 306.323 115.681 306.474C115.836 306.624 116.047 306.708 116.267 306.708L118.629 306.705L118.65 324.054C111.43 318.639 103.308 314.454 94.6333 311.679C94.5299 311.646 94.4208 311.633 94.3122 311.64C94.2036 311.648 94.0977 311.676 94.0004 311.724C93.9031 311.771 93.8164 311.837 93.7453 311.916C93.6742 311.996 93.62 312.088 93.5858 312.188C93.5516 312.288 93.5381 312.394 93.5461 312.499C93.5541 312.604 93.5834 312.706 93.6324 312.801C93.6813 312.895 93.7489 312.978 93.8314 313.047C93.9138 313.116 94.0095 313.168 94.1129 313.201C103.063 316.064 111.263 320.414 118.654 326.124L118.67 341.594C118.67 342.043 119.035 342.396 119.499 342.396L134.733 342.375C157.733 372.4 160.797 408.91 164.673 430.345C164.699 430.556 164.811 430.748 164.984 430.879C165.157 431.01 165.377 431.07 165.595 431.044C165.813 431.019 166.012 430.91 166.148 430.743C166.284 430.576 166.345 430.363 166.319 430.152C161.316 399.275 156.924 369.329 136.765 342.373L149.75 342.361L149.453 348.349C149.427 348.9 149.863 349.189 150.295 349.186C150.401 349.189 150.506 349.172 150.605 349.135C150.703 349.098 150.793 349.042 150.869 348.971C150.945 348.9 151.005 348.815 151.046 348.721C151.088 348.627 151.109 348.526 151.109 348.424L151.409 342.359L163.514 342.348C186.507 383.245 177.45 432.172 166.66 441.18H163.138C160.302 438.24 158.817 430.848 152.488 413.321C136.029 370.031 106.697 350.679 83.9789 330.381ZM150.988 414.018C154.681 423.587 158.45 437.399 161.033 441.186L153.844 441.196C140.713 432.356 136.106 430.773 135.153 430.242C91.1526 409.028 56.602 427.626 51.4903 405.582C45.321 379.696 111.369 368.364 150.988 414.018Z" fill="#0E0B58"/>
<path d="M70.2515 397.569L73.5963 398.459C73.8064 398.51 74.0289 398.48 74.216 398.374C74.4032 398.269 74.5401 398.096 74.5975 397.894C74.655 397.692 74.6283 397.477 74.5233 397.293C74.4182 397.11 74.2431 396.974 74.0355 396.914L70.6924 396.023C70.4803 395.966 70.2536 395.993 70.0623 396.098C69.871 396.204 69.7306 396.378 69.6722 396.583C69.6137 396.788 69.6419 397.007 69.7505 397.192C69.8592 397.377 70.0394 397.513 70.2515 397.569ZM61.838 409.443C91.6481 391.596 128.251 407.786 151.307 431.749C152.047 432.515 153.274 431.441 152.52 430.656C129.005 406.215 91.5736 389.754 60.9662 408.081C60.8703 408.135 60.7865 408.207 60.7198 408.292C60.6532 408.378 60.6049 408.476 60.578 408.579C60.551 408.683 60.5459 408.792 60.5629 408.897C60.58 409.003 60.6188 409.105 60.6771 409.196C60.7354 409.287 60.8121 409.366 60.9025 409.428C60.9929 409.49 61.0953 409.534 61.2035 409.557C61.3117 409.58 61.4237 409.582 61.5326 409.562C61.6416 409.543 61.7455 409.502 61.838 409.443ZM123.921 346.842L117.399 345.263C117.186 345.214 116.962 345.247 116.775 345.356C116.588 345.466 116.453 345.642 116.4 345.847C116.346 346.053 116.379 346.27 116.491 346.452C116.603 346.634 116.784 346.765 116.996 346.818L123.519 348.397C123.731 348.447 123.956 348.414 124.143 348.304C124.33 348.195 124.465 348.018 124.518 347.813C124.571 347.608 124.538 347.391 124.427 347.209C124.315 347.027 124.133 346.895 123.921 346.842ZM101.82 325.933L96.7068 323.865C96.6066 323.825 96.4991 323.804 96.3904 323.803C96.2817 323.803 96.174 323.823 96.0734 323.863C95.8703 323.943 95.7085 324.098 95.6237 324.294C95.5388 324.49 95.5379 324.71 95.621 324.907C95.7042 325.103 95.8646 325.259 96.067 325.342L101.177 327.411C101.278 327.453 101.386 327.476 101.496 327.477C101.605 327.479 101.714 327.459 101.816 327.419C101.918 327.38 102.01 327.321 102.089 327.247C102.167 327.172 102.229 327.084 102.271 326.986C102.314 326.888 102.336 326.783 102.336 326.677C102.336 326.571 102.314 326.466 102.272 326.368C102.23 326.27 102.168 326.181 102.091 326.107C102.013 326.032 101.922 325.973 101.82 325.933ZM96.4565 395.922C96.5454 395.988 96.6474 396.037 96.7563 396.064C96.8651 396.091 96.9786 396.097 97.0897 396.081C97.2009 396.064 97.3074 396.026 97.4029 395.968C97.4983 395.911 97.5806 395.835 97.6448 395.746C97.709 395.656 97.7537 395.555 97.7762 395.449C97.7988 395.342 97.7986 395.233 97.7759 395.126C97.7531 395.02 97.7081 394.919 97.6437 394.829C97.5794 394.74 97.4969 394.665 97.4013 394.607L92.6973 391.445C92.5171 391.324 92.2945 391.277 92.0784 391.314C91.8624 391.352 91.6707 391.471 91.5454 391.645C91.4201 391.82 91.3715 392.035 91.4104 392.244C91.4492 392.453 91.5723 392.638 91.7526 392.759L96.4565 395.922ZM114.356 398.852C114.528 398.985 114.747 399.046 114.966 399.022C115.185 398.999 115.385 398.892 115.522 398.726C115.659 398.56 115.723 398.348 115.698 398.136C115.674 397.925 115.564 397.731 115.392 397.598L112.141 395.083C111.97 394.951 111.751 394.889 111.532 394.913C111.314 394.936 111.114 395.042 110.976 395.208C110.839 395.374 110.775 395.586 110.8 395.798C110.824 396.009 110.934 396.202 111.106 396.335L114.356 398.852Z" fill="#0E0B58"/>
<path d="M113.456 413.024C112.508 413.161 111.603 413.495 110.802 414.003C110.001 414.51 109.323 415.18 108.815 415.965C108.707 416.146 108.675 416.36 108.728 416.562C108.78 416.765 108.912 416.939 109.096 417.049C109.279 417.159 109.5 417.195 109.71 417.15C109.921 417.105 110.105 416.983 110.224 416.808C110.603 416.221 111.11 415.721 111.709 415.342C112.308 414.962 112.985 414.713 113.693 414.611C113.801 414.596 113.905 414.561 113.998 414.507C114.092 414.453 114.174 414.382 114.239 414.298C114.304 414.213 114.352 414.117 114.379 414.015C114.406 413.913 114.411 413.806 114.396 413.702C114.363 413.492 114.246 413.303 114.07 413.176C113.894 413.049 113.673 412.994 113.456 413.023V413.024ZM93.1962 408.704L88.3696 410.799C88.1718 410.888 88.0183 411.049 87.9422 411.246C87.8661 411.444 87.8735 411.663 87.9629 411.855C88.0523 412.047 88.2164 412.198 88.4198 412.274C88.6231 412.35 88.8492 412.345 89.0491 412.261L93.8725 410.166C94.0637 410.074 94.2106 409.914 94.2826 409.719C94.3546 409.525 94.3461 409.311 94.2588 409.122C94.1715 408.933 94.0122 408.785 93.8142 408.707C93.6162 408.629 93.3948 408.628 93.1962 408.704ZM154.822 138.512C154.002 138.512 153.19 138.669 152.433 138.973C151.676 139.277 150.988 139.722 150.409 140.283C149.83 140.845 149.372 141.511 149.059 142.244C148.747 142.977 148.588 143.762 148.59 144.555C148.594 146.155 149.255 147.688 150.426 148.818C151.597 149.948 153.184 150.582 154.839 150.582C155.66 150.585 156.474 150.431 157.234 150.129C157.994 149.826 158.684 149.381 159.265 148.82C159.846 148.258 160.306 147.59 160.619 146.856C160.932 146.121 161.091 145.334 161.087 144.539C161.087 141.208 158.256 138.512 154.839 138.512H154.822ZM192.63 144.507C192.635 146.107 193.295 147.639 194.467 148.769C195.638 149.898 197.224 150.533 198.878 150.534H198.895C200.525 150.495 202.075 149.842 203.213 148.713C204.351 147.583 204.987 146.068 204.985 144.491C204.983 142.914 204.343 141.401 203.202 140.275C202.06 139.148 200.509 138.499 198.878 138.464C195.431 138.464 192.63 141.173 192.63 144.507ZM237.216 139.298L237.233 149.604L368.358 149.46L368.341 139.138L237.216 139.298ZM176.85 138.48C175.196 138.485 173.611 139.124 172.443 140.257C171.275 141.389 170.619 142.924 170.618 144.523C170.617 145.315 170.777 146.099 171.09 146.831C171.402 147.563 171.861 148.228 172.44 148.788C173.019 149.347 173.707 149.791 174.464 150.094C175.22 150.396 176.031 150.551 176.85 150.55H176.867C177.687 150.552 178.5 150.397 179.258 150.094C180.016 149.791 180.705 149.346 181.284 148.784C181.864 148.222 182.322 147.555 182.634 146.821C182.945 146.087 183.103 145.301 183.099 144.507C183.1 143.715 182.94 142.931 182.627 142.2C182.314 141.468 181.855 140.803 181.276 140.243C180.697 139.683 180.01 139.239 179.253 138.937C178.496 138.634 177.686 138.479 176.867 138.48H176.85ZM385.645 423.645C392.673 423.629 397.812 418.195 397.115 411.495C396.419 404.811 390.154 399.377 383.126 399.393C376.098 399.393 370.977 404.827 371.673 411.527C372.369 418.227 378.618 423.645 385.645 423.645ZM383.789 405.677C387.17 405.677 390.187 408.289 390.519 411.511C390.85 414.733 388.38 417.345 384.999 417.345C381.618 417.361 378.601 414.749 378.27 411.527C377.922 408.305 380.408 405.677 383.789 405.677ZM354.925 448.927H354.927L427.849 448.843C428.069 448.843 428.279 448.759 428.435 448.608C428.59 448.458 428.677 448.254 428.677 448.042C428.677 447.829 428.59 447.625 428.435 447.475C428.279 447.325 428.069 447.24 427.849 447.24H427.845L354.924 447.324C354.704 447.324 354.493 447.409 354.338 447.559C354.183 447.709 354.096 447.913 354.096 448.126C354.096 448.338 354.184 448.542 354.339 448.692C354.495 448.842 354.706 448.927 354.925 448.927ZM152.686 189.209L168.163 189.193C168.383 189.193 168.594 189.109 168.749 188.958C168.905 188.808 168.992 188.604 168.992 188.392C168.992 188.179 168.905 187.975 168.749 187.825C168.594 187.675 168.383 187.59 168.163 187.59L152.686 187.606C152.466 187.606 152.255 187.691 152.1 187.841C151.944 187.991 151.857 188.195 151.857 188.408C151.857 188.62 151.944 188.824 152.1 188.974C152.255 189.125 152.466 189.209 152.686 189.209ZM168.181 202.414L152.704 202.43C152.484 202.43 152.273 202.514 152.118 202.664C151.962 202.815 151.875 203.018 151.875 203.231C151.875 203.444 151.962 203.647 152.118 203.798C152.273 203.948 152.484 204.032 152.704 204.032L168.183 204.016C168.403 204.016 168.614 203.932 168.769 203.782C168.925 203.631 169.012 203.428 169.012 203.215C169.012 203.002 168.925 202.799 168.769 202.648C168.614 202.498 168.401 202.414 168.181 202.414ZM162.271 218.046C162.271 218.259 162.358 218.463 162.514 218.613C162.669 218.763 162.88 218.848 163.1 218.848L178.579 218.828C178.799 218.828 179.01 218.744 179.165 218.594C179.32 218.443 179.408 218.24 179.408 218.027C179.408 217.814 179.32 217.611 179.165 217.46C179.01 217.31 178.799 217.226 178.579 217.226L163.1 217.243C162.88 217.243 162.669 217.328 162.514 217.478C162.358 217.628 162.271 217.834 162.271 218.046ZM178.596 232.05L163.118 232.066C162.898 232.066 162.687 232.151 162.532 232.301C162.376 232.451 162.289 232.655 162.289 232.868C162.289 233.08 162.376 233.284 162.532 233.435C162.687 233.585 162.898 233.669 163.118 233.669L178.596 233.653C178.815 233.653 179.026 233.569 179.182 233.418C179.337 233.268 179.424 233.064 179.424 232.852C179.424 232.639 179.337 232.435 179.182 232.285C179.026 232.135 178.815 232.05 178.596 232.05ZM178.612 246.874L163.134 246.893C162.915 246.893 162.704 246.977 162.548 247.128C162.393 247.278 162.306 247.482 162.306 247.694C162.306 247.907 162.393 248.111 162.548 248.261C162.704 248.411 162.915 248.496 163.134 248.496L178.614 248.476C178.834 248.476 179.044 248.392 179.2 248.242C179.355 248.091 179.443 247.888 179.443 247.675C179.443 247.462 179.355 247.259 179.2 247.108C179.044 246.958 178.832 246.874 178.612 246.874ZM178.632 261.698L163.154 261.714C162.934 261.714 162.724 261.799 162.568 261.949C162.413 262.099 162.326 262.303 162.326 262.516C162.326 262.728 162.413 262.932 162.568 263.083C162.724 263.233 162.934 263.317 163.154 263.317L178.632 263.301C178.852 263.301 179.063 263.217 179.218 263.067C179.373 262.916 179.461 262.712 179.461 262.5C179.461 262.287 179.373 262.083 179.218 261.933C179.063 261.783 178.852 261.698 178.632 261.698ZM151.429 278.158L166.909 278.139C167.128 278.139 167.339 278.054 167.495 277.904C167.65 277.754 167.737 277.55 167.737 277.337C167.737 277.125 167.65 276.921 167.495 276.771C167.339 276.62 167.128 276.536 166.909 276.536L151.429 276.555C151.209 276.555 150.999 276.64 150.843 276.79C150.688 276.94 150.6 277.144 150.6 277.357C150.6 277.569 150.688 277.773 150.843 277.923C150.999 278.074 151.209 278.158 151.429 278.158ZM151.449 292.981L166.927 292.964C167.147 292.964 167.357 292.879 167.513 292.729C167.668 292.579 167.756 292.375 167.756 292.162C167.756 291.95 167.668 291.746 167.513 291.596C167.357 291.445 167.147 291.361 166.927 291.361L151.447 291.377C151.228 291.377 151.017 291.461 150.861 291.612C150.706 291.762 150.619 291.966 150.619 292.178C150.619 292.391 150.706 292.595 150.861 292.745C151.017 292.895 151.228 292.98 151.447 292.98L151.449 292.981ZM151.466 307.806L166.945 307.79C167.165 307.79 167.376 307.706 167.531 307.555C167.686 307.405 167.774 307.201 167.774 306.989C167.774 306.776 167.686 306.572 167.531 306.422C167.376 306.272 167.165 306.187 166.945 306.187L151.466 306.203C151.246 306.203 151.035 306.288 150.88 306.438C150.724 306.588 150.637 306.792 150.637 307.005C150.637 307.217 150.724 307.421 150.88 307.571C151.035 307.722 151.246 307.806 151.466 307.806ZM166.962 321.009L151.484 321.028C151.264 321.028 151.053 321.113 150.898 321.263C150.742 321.413 150.655 321.617 150.655 321.83C150.655 322.042 150.742 322.246 150.898 322.396C151.053 322.547 151.264 322.631 151.484 322.631L166.963 322.612C167.183 322.612 167.394 322.527 167.549 322.377C167.705 322.227 167.792 322.023 167.792 321.81C167.792 321.598 167.705 321.394 167.549 321.244C167.394 321.093 167.181 321.009 166.962 321.009ZM194.905 189.161L276.027 189.068C276.247 189.068 276.457 188.983 276.612 188.833C276.768 188.682 276.855 188.478 276.855 188.266C276.854 188.053 276.767 187.85 276.611 187.699C276.456 187.549 276.245 187.465 276.025 187.465H276.023L194.905 187.558C194.686 187.558 194.475 187.643 194.319 187.793C194.164 187.943 194.077 188.147 194.077 188.36C194.077 188.572 194.164 188.776 194.319 188.926C194.475 189.077 194.686 189.161 194.905 189.161ZM194.093 203.185C194.093 203.397 194.18 203.601 194.336 203.751C194.491 203.901 194.702 203.986 194.922 203.986L330.343 203.832C330.563 203.832 330.774 203.748 330.929 203.597C331.084 203.447 331.172 203.243 331.172 203.031C331.172 202.818 331.084 202.614 330.929 202.464C330.774 202.314 330.563 202.229 330.343 202.229H330.34L194.922 202.383C194.702 202.383 194.491 202.468 194.336 202.618C194.18 202.768 194.093 202.972 194.093 203.185ZM273.027 217.118L205.318 217.195C205.098 217.195 204.887 217.28 204.732 217.43C204.576 217.58 204.489 217.784 204.489 217.997C204.489 218.209 204.576 218.413 204.732 218.563C204.887 218.714 205.098 218.798 205.318 218.798L273.03 218.721C273.25 218.721 273.461 218.637 273.616 218.486C273.771 218.336 273.859 218.132 273.859 217.92C273.859 217.707 273.771 217.503 273.616 217.353C273.461 217.203 273.25 217.118 273.03 217.118H273.027ZM362.78 231.84L205.336 232.02C205.116 232.02 204.905 232.104 204.75 232.255C204.595 232.405 204.507 232.609 204.507 232.821C204.507 233.034 204.595 233.238 204.75 233.388C204.905 233.538 205.116 233.623 205.336 233.623L362.782 233.443C363.002 233.443 363.212 233.358 363.368 233.208C363.523 233.057 363.61 232.854 363.61 232.641C363.61 232.428 363.522 232.225 363.367 232.075C363.211 231.924 363 231.84 362.78 231.84ZM323.786 247.51C323.786 247.297 323.699 247.094 323.543 246.943C323.388 246.793 323.177 246.708 322.957 246.708L205.354 246.845C205.134 246.845 204.924 246.929 204.768 247.079C204.613 247.23 204.525 247.434 204.525 247.646C204.525 247.859 204.613 248.063 204.768 248.213C204.924 248.363 205.134 248.448 205.354 248.448L322.959 248.313C323.068 248.313 323.176 248.292 323.276 248.252C323.377 248.211 323.468 248.152 323.545 248.078C323.622 248.003 323.683 247.915 323.725 247.817C323.767 247.72 323.788 247.615 323.788 247.51H323.786ZM264.963 261.601L205.372 261.67C205.153 261.67 204.942 261.754 204.786 261.904C204.631 262.055 204.544 262.258 204.544 262.471C204.544 262.684 204.631 262.887 204.786 263.038C204.942 263.188 205.153 263.272 205.372 263.272L264.965 263.203C265.184 263.203 265.395 263.119 265.551 262.969C265.706 262.818 265.793 262.615 265.793 262.402C265.793 262.189 265.706 261.986 265.551 261.835C265.395 261.685 265.184 261.601 264.965 261.601H264.963ZM193.649 278.108L329.068 277.955C329.288 277.955 329.499 277.87 329.654 277.72C329.81 277.57 329.897 277.366 329.897 277.153C329.897 276.941 329.81 276.737 329.654 276.586C329.499 276.436 329.288 276.352 329.068 276.352H329.067L193.649 276.506C193.429 276.506 193.218 276.59 193.063 276.74C192.908 276.891 192.82 277.094 192.82 277.307C192.82 277.52 192.908 277.723 193.063 277.874C193.218 278.024 193.429 278.108 193.649 278.108ZM193.667 292.933L274.14 292.842C274.36 292.842 274.571 292.757 274.726 292.607C274.882 292.456 274.969 292.252 274.968 292.04C274.968 291.827 274.881 291.623 274.725 291.473C274.57 291.323 274.359 291.239 274.139 291.239H274.137L193.666 291.33C193.446 291.331 193.235 291.415 193.08 291.566C192.925 291.716 192.837 291.92 192.838 292.133C192.838 292.345 192.925 292.549 193.081 292.699C193.237 292.849 193.447 292.934 193.667 292.933ZM193.685 307.758L262.394 307.678C262.614 307.678 262.824 307.594 262.98 307.443C263.135 307.293 263.223 307.089 263.223 306.877C263.223 306.664 263.135 306.46 262.98 306.31C262.824 306.16 262.614 306.075 262.394 306.075H262.392L193.684 306.155C193.464 306.155 193.253 306.24 193.098 306.391C192.943 306.541 192.856 306.745 192.856 306.957C192.856 307.17 192.944 307.374 193.099 307.524C193.255 307.674 193.466 307.758 193.685 307.758ZM329.121 320.825H329.12L193.702 320.98C193.482 320.98 193.271 321.065 193.116 321.215C192.961 321.366 192.874 321.57 192.874 321.782C192.874 321.995 192.962 322.199 193.117 322.349C193.273 322.499 193.484 322.583 193.704 322.583L329.121 322.427C329.341 322.427 329.552 322.343 329.707 322.193C329.863 322.042 329.95 321.839 329.95 321.626C329.95 321.413 329.863 321.21 329.707 321.059C329.552 320.909 329.341 320.825 329.121 320.825ZM82.2169 226.577C82.0658 226.577 81.9162 226.607 81.777 226.663C81.6378 226.72 81.5117 226.804 81.4061 226.908C81.3006 227.013 81.2176 227.137 81.1622 227.273C81.1067 227.409 81.0799 227.554 81.0832 227.7L81.0915 234.182L71.5393 234.193L71.5327 227.711C71.5329 227.564 71.503 227.418 71.4448 227.282C71.3866 227.146 71.3011 227.022 71.1933 226.918C71.0855 226.813 70.9576 226.731 70.8167 226.674C70.6758 226.618 70.5248 226.589 70.3724 226.589C70.2211 226.59 70.0713 226.619 69.9318 226.676C69.7924 226.733 69.6662 226.816 69.5605 226.921C69.4549 227.026 69.372 227.15 69.3167 227.286C69.2615 227.423 69.2349 227.568 69.2387 227.715L69.2569 242.749C69.2542 242.894 69.2818 243.038 69.3379 243.172C69.394 243.307 69.4776 243.429 69.5836 243.531C69.6896 243.633 69.8158 243.714 69.9548 243.768C70.0937 243.822 70.2425 243.849 70.3923 243.846C71.0106 243.846 71.5526 243.389 71.5492 242.748L71.5426 236.266L81.0931 236.255L81.1014 242.737C81.1031 243.378 81.6186 243.836 82.2385 243.833C82.8517 243.833 83.3971 243.381 83.3954 242.735L83.3788 227.7C83.3788 227.553 83.3488 227.407 83.2903 227.27C83.2319 227.134 83.1463 227.01 83.0384 226.906C82.9305 226.802 82.8024 226.719 82.6614 226.663C82.5205 226.607 82.3694 226.576 82.2169 226.577ZM99.7566 226.681L87.206 226.694C86.5861 226.694 86.1485 227.165 86.1502 227.745C86.1502 228.338 86.6109 228.766 87.2093 228.766L92.3492 228.76L92.3658 242.724C92.3633 242.869 92.3911 243.013 92.4474 243.147C92.5037 243.281 92.5874 243.403 92.6935 243.506C92.7996 243.608 92.926 243.688 93.065 243.742C93.2041 243.797 93.353 243.823 93.5028 243.82C94.1244 243.82 94.6631 243.36 94.6598 242.721L94.6432 228.756L99.7582 228.752C100.355 228.75 100.842 228.327 100.842 227.726C100.843 227.588 100.816 227.451 100.762 227.324C100.708 227.196 100.628 227.08 100.526 226.983C100.425 226.885 100.305 226.809 100.173 226.757C100.041 226.705 99.8992 226.679 99.7566 226.681ZM120.6 226.532C119.907 226.537 119.322 226.992 119.061 227.559L113.36 241.36L107.621 227.572C106.995 226.214 105.54 226.613 105.251 226.551C105.034 226.553 104.82 226.596 104.62 226.678C104.421 226.759 104.24 226.879 104.088 227.028C103.936 227.178 103.816 227.355 103.735 227.55C103.654 227.744 103.613 227.952 103.615 228.162L103.632 242.711C103.629 242.856 103.657 243 103.713 243.134C103.769 243.268 103.852 243.39 103.958 243.493C104.064 243.595 104.191 243.676 104.33 243.73C104.469 243.784 104.617 243.81 104.767 243.807C105.385 243.807 105.927 243.351 105.926 242.709L105.909 228.865L111.747 242.777C112.027 243.411 112.675 243.798 113.363 243.798C114.071 243.794 114.704 243.392 114.974 242.772L120.779 228.848L120.795 242.692C120.795 243.338 121.342 243.79 121.955 243.786C122.105 243.789 122.254 243.763 122.393 243.708C122.531 243.654 122.657 243.574 122.763 243.471C122.869 243.369 122.952 243.247 123.008 243.113C123.064 242.979 123.092 242.835 123.089 242.69L123.071 228.141C123.071 226.166 120.765 226.581 120.6 226.532ZM129.567 243.657L138.512 243.645C139.145 243.645 139.671 243.181 139.671 242.549C139.671 241.932 139.157 241.427 138.511 241.427L130.268 241.438L130.251 227.644C130.251 227.497 130.222 227.351 130.163 227.214C130.105 227.078 130.02 226.954 129.912 226.85C129.804 226.746 129.676 226.663 129.535 226.607C129.394 226.551 129.243 226.522 129.091 226.522C128.94 226.523 128.791 226.553 128.652 226.61C128.513 226.667 128.387 226.751 128.282 226.855C128.177 226.96 128.094 227.084 128.039 227.22C127.984 227.356 127.957 227.501 127.961 227.647L127.977 242.123C127.977 242.964 128.673 243.657 129.567 243.657ZM375.656 294.685C373.803 295.61 372.977 295.764 371.658 295.764C367.575 295.77 365.25 293.273 365.247 289.715C365.243 286.185 367.526 283.656 371.641 283.65C372.982 283.65 373.788 283.802 375.644 284.723C376.231 285.028 376.852 285.009 377.333 284.502C377.94 283.861 377.87 282.922 377.035 282.399C374.955 281.12 373.219 280.788 371.359 280.79C366.306 280.795 362.076 284.209 362.081 289.718C362.086 295.198 366.281 298.63 371.383 298.625C373.246 298.623 374.973 298.282 377.051 297.005C377.893 296.471 377.95 295.538 377.345 294.898C376.866 294.4 376.242 294.373 375.656 294.684V294.685ZM391.104 293.387C391.11 296.589 385.578 296.068 382.511 294.777C381.964 294.543 381.334 294.599 380.912 295.047C380.36 295.629 380.376 296.593 381.122 297.101C386.194 299.782 394.173 299.071 394.167 293.618C394.158 287.059 383.691 289.463 383.683 285.924C383.683 284.172 385.861 283.568 387.683 283.565C389.029 283.57 390.367 283.773 391.651 284.166C392.204 284.3 392.695 284.23 393.093 283.827C393.261 283.662 393.383 283.457 393.444 283.233C393.506 283.008 393.506 282.772 393.444 282.548C393.382 282.323 393.261 282.118 393.092 281.953C392.923 281.788 392.712 281.668 392.481 281.606C390.863 281.041 389.155 280.759 387.436 280.772C382.723 280.779 380.653 283.241 380.656 286.097C380.665 292.236 391.104 290.494 391.104 293.387ZM399.214 294.756C398.66 294.523 398.034 294.581 397.614 295.028C397.059 295.613 397.084 296.578 397.825 297.08C402.893 299.765 410.876 299.051 410.869 293.6C410.861 287.04 400.394 289.445 400.386 285.906C400.386 283.113 405.269 283.225 408.353 284.146C409.504 284.427 410.198 283.621 410.195 282.864C410.193 282.574 410.093 282.292 409.91 282.062C409.728 281.831 409.473 281.664 409.184 281.587C403.987 279.747 397.352 280.705 397.359 286.078C397.367 292.212 407.808 290.479 407.808 293.368C407.813 296.577 402.26 296.046 399.214 294.756ZM223.509 342.745C220.312 341.104 216.498 341.865 210.181 341.683C209.268 341.686 208.615 342.401 208.616 343.231L208.641 363.826C208.637 364.026 208.676 364.224 208.753 364.41C208.831 364.595 208.946 364.763 209.093 364.904C209.239 365.045 209.413 365.157 209.605 365.231C209.797 365.305 210.002 365.342 210.209 365.338C211.076 365.338 211.809 364.7 211.807 363.823L211.799 356.621C216.658 356.448 220.418 357.137 223.524 355.533C226.169 354.164 227.419 351.898 227.414 349.134C227.411 346.398 226.187 344.124 223.509 342.745ZM222.808 352.402C220.681 354.339 216.15 353.534 211.795 353.728L211.784 344.576C216.143 344.76 220.67 343.946 222.799 345.874C223.762 346.749 224.245 347.836 224.246 349.137C224.248 350.439 223.767 351.526 222.808 352.402ZM249.918 341.469C249.006 341.473 248.353 342.184 248.355 343.019L248.365 351.97L235.176 351.986L235.166 343.034C235.166 342.83 235.125 342.629 235.044 342.441C234.964 342.253 234.846 342.082 234.697 341.938C234.548 341.795 234.371 341.681 234.177 341.603C233.982 341.526 233.774 341.486 233.563 341.487C232.658 341.49 231.999 342.197 232 343.037L232.025 363.799C232.021 363.999 232.059 364.197 232.137 364.383C232.214 364.568 232.329 364.736 232.475 364.878C232.622 365.019 232.796 365.13 232.988 365.205C233.179 365.279 233.385 365.316 233.591 365.312C234.457 365.312 235.193 364.676 235.191 363.796L235.179 354.845L248.368 354.829L248.38 363.781C248.381 364.647 249.069 365.296 249.948 365.293C250.816 365.293 251.547 364.652 251.545 363.778L251.521 343.016C251.521 342.813 251.479 342.611 251.399 342.423C251.318 342.235 251.2 342.065 251.051 341.921C250.902 341.777 250.726 341.663 250.531 341.586C250.337 341.508 250.128 341.469 249.918 341.469ZM273.164 342.688C269.975 341.049 266.166 341.809 259.836 341.625C258.943 341.625 258.27 342.329 258.272 343.175L258.296 363.77C258.293 363.97 258.331 364.168 258.409 364.354C258.486 364.539 258.602 364.707 258.748 364.848C258.894 364.989 259.069 365.1 259.261 365.175C259.452 365.249 259.658 365.286 259.864 365.281C260.726 365.281 261.466 364.647 261.464 363.767L261.454 356.565C266.224 356.394 270.081 357.076 273.181 355.475C275.871 354.081 277.074 351.793 277.071 349.077C277.068 346.36 275.854 344.071 273.164 342.688ZM272.463 352.346C270.341 354.279 265.833 353.476 261.451 353.672L261.439 344.52C265.802 344.704 270.325 343.888 272.455 345.818C273.418 346.693 273.902 347.78 273.903 349.081C273.905 350.383 273.424 351.47 272.463 352.346ZM553.517 408.118C553.441 408.041 553.349 407.98 553.248 407.938C553.147 407.896 553.038 407.874 552.928 407.873C552.818 407.872 552.709 407.893 552.607 407.933C552.505 407.973 552.413 408.033 552.335 408.108C552.257 408.183 552.196 408.273 552.154 408.371C552.112 408.47 552.091 408.575 552.092 408.682C552.093 408.788 552.116 408.893 552.16 408.991C552.203 409.089 552.266 409.177 552.345 409.251L555.703 412.506C555.78 412.583 555.871 412.644 555.972 412.686C556.073 412.728 556.182 412.75 556.292 412.751C556.402 412.752 556.511 412.732 556.613 412.691C556.715 412.651 556.808 412.592 556.885 412.516C556.963 412.441 557.025 412.352 557.066 412.253C557.108 412.155 557.129 412.049 557.128 411.943C557.127 411.836 557.104 411.731 557.061 411.633C557.017 411.536 556.954 411.447 556.875 411.373L553.517 408.118ZM515.4 265.015C515.619 265.015 515.83 264.93 515.986 264.78C516.141 264.63 516.228 264.426 516.228 264.213C516.228 264.001 516.141 263.797 515.986 263.647C515.83 263.496 515.619 263.412 515.4 263.412C513.875 263.412 512.738 264.454 511.964 263.601C511.992 262.559 516.787 263.744 515.176 249.643C515.152 249.432 515.042 249.239 514.87 249.106C514.698 248.973 514.479 248.911 514.261 248.935C514.042 248.958 513.842 249.065 513.705 249.231C513.568 249.396 513.504 249.608 513.528 249.82C515.058 263.203 510.386 261.155 510.306 263.548C510.198 266.637 514.96 265.015 515.4 265.015ZM520.362 251.616C520.438 251.552 522.243 250.058 525.417 252.327C525.595 252.448 525.814 252.497 526.029 252.464C526.243 252.431 526.435 252.317 526.564 252.148C526.693 251.979 526.748 251.768 526.717 251.56C526.687 251.352 526.573 251.164 526.4 251.036C522.078 247.944 519.351 250.336 519.237 250.442C519.079 250.586 518.986 250.784 518.978 250.994C518.971 251.203 519.048 251.407 519.195 251.562C519.502 251.884 520.024 251.908 520.362 251.616ZM522.424 253.599C522.224 253.594 522.025 253.629 521.839 253.7C521.653 253.771 521.484 253.877 521.341 254.013C521.199 254.148 521.086 254.31 521.009 254.489C520.933 254.667 520.894 254.859 520.896 255.053C520.897 255.246 520.939 255.437 521.018 255.614C521.098 255.792 521.213 255.952 521.358 256.086C521.503 256.219 521.674 256.323 521.861 256.391C522.048 256.459 522.247 256.49 522.447 256.483C522.834 256.468 523.2 256.308 523.467 256.037C523.734 255.766 523.882 255.405 523.879 255.03C523.876 254.656 523.722 254.297 523.451 254.03C523.179 253.763 522.811 253.608 522.424 253.599ZM507.634 252.806C507.438 252.807 507.245 252.846 507.064 252.92C506.884 252.994 506.72 253.102 506.583 253.237C506.446 253.372 506.337 253.532 506.264 253.707C506.19 253.883 506.153 254.071 506.155 254.26C506.156 254.45 506.197 254.637 506.273 254.811C506.35 254.986 506.461 255.144 506.601 255.277C506.74 255.41 506.906 255.515 507.087 255.586C507.269 255.657 507.463 255.692 507.659 255.691C508.055 255.688 508.433 255.533 508.71 255.26C508.988 254.987 509.142 254.619 509.138 254.236C509.135 253.854 508.975 253.488 508.693 253.22C508.411 252.951 508.03 252.803 507.634 252.806ZM516.941 268.246C516.881 268.158 516.803 268.083 516.712 268.024C516.622 267.966 516.52 267.925 516.413 267.904C516.306 267.884 516.196 267.884 516.089 267.905C515.982 267.926 515.881 267.967 515.791 268.026C512.93 269.878 510.732 268.174 510.624 268.089C510.456 267.959 510.242 267.897 510.028 267.917C509.813 267.937 509.616 268.037 509.476 268.196C509.336 268.354 509.266 268.559 509.28 268.767C509.294 268.974 509.391 269.169 509.55 269.309C511.246 270.713 514.155 271.016 516.714 269.357C516.804 269.298 516.882 269.223 516.942 269.136C517.002 269.048 517.044 268.95 517.065 268.847C517.086 268.743 517.085 268.637 517.064 268.534C517.042 268.431 517 268.333 516.939 268.246H516.941ZM477.289 375.498H477.29C477.51 375.498 477.721 375.414 477.876 375.263C478.032 375.113 478.119 374.909 478.119 374.697L478.107 365.027C478.107 364.814 478.02 364.611 477.864 364.461C477.709 364.311 477.498 364.227 477.279 364.227C477.17 364.227 477.06 364.248 476.96 364.288C476.859 364.328 476.767 364.387 476.69 364.462C476.613 364.537 476.552 364.625 476.511 364.723C476.469 364.82 476.448 364.924 476.448 365.03L476.46 374.698C476.46 374.911 476.547 375.115 476.703 375.265C476.858 375.415 477.069 375.498 477.289 375.498ZM534.496 314.045C534.016 313.993 533.531 314.034 533.067 314.164C532.604 314.294 532.172 314.511 531.795 314.803C531.419 315.095 531.106 315.456 530.874 315.865C530.642 316.274 530.495 316.724 530.443 317.188C530.337 318.124 530.62 319.063 531.229 319.798C531.839 320.534 532.725 321.005 533.693 321.108C534.662 321.21 535.633 320.937 536.393 320.347C537.152 319.757 537.639 318.9 537.746 317.964C537.799 317.5 537.757 317.03 537.623 316.582C537.488 316.134 537.263 315.716 536.961 315.352C536.659 314.988 536.286 314.685 535.863 314.461C535.44 314.236 534.975 314.095 534.496 314.045ZM532.669 330.14C532.189 330.089 531.704 330.13 531.24 330.26C530.777 330.39 530.345 330.608 529.968 330.9C529.592 331.192 529.278 331.553 529.047 331.962C528.815 332.372 528.668 332.821 528.616 333.285C528.511 334.222 528.794 335.16 529.403 335.895C530.013 336.63 530.899 337.101 531.867 337.204C532.835 337.306 533.806 337.032 534.566 336.443C535.326 335.853 535.813 334.996 535.919 334.059C535.973 333.596 535.931 333.126 535.796 332.678C535.661 332.23 535.437 331.812 535.135 331.448C534.833 331.084 534.46 330.781 534.036 330.557C533.613 330.332 533.149 330.191 532.669 330.14ZM530.842 346.236C530.363 346.185 529.877 346.225 529.414 346.356C528.95 346.486 528.518 346.704 528.141 346.996C527.765 347.288 527.452 347.649 527.22 348.058C526.988 348.468 526.842 348.917 526.79 349.381C526.684 350.317 526.967 351.256 527.576 351.99C528.185 352.725 529.071 353.196 530.039 353.3C531.007 353.403 531.979 353.129 532.739 352.539C533.499 351.95 533.986 351.092 534.093 350.155C534.146 349.691 534.104 349.222 533.969 348.774C533.835 348.326 533.61 347.908 533.308 347.544C533.006 347.18 532.633 346.877 532.21 346.653C531.787 346.428 531.322 346.287 530.842 346.236ZM529.014 362.332C528.535 362.281 528.049 362.321 527.586 362.452C527.122 362.582 526.69 362.799 526.313 363.092C525.937 363.384 525.624 363.745 525.392 364.154C525.16 364.563 525.014 365.013 524.962 365.477C524.856 366.414 525.139 367.352 525.749 368.087C526.359 368.822 527.245 369.293 528.214 369.396C529.182 369.498 530.153 369.224 530.913 368.635C531.673 368.045 532.16 367.188 532.266 366.251C532.319 365.787 532.277 365.318 532.143 364.87C532.008 364.421 531.783 364.003 531.481 363.639C531.179 363.275 530.806 362.972 530.382 362.748C529.959 362.524 529.494 362.382 529.014 362.332ZM527.188 378.43C526.708 378.378 526.223 378.419 525.76 378.549C525.297 378.68 524.865 378.897 524.488 379.188C524.112 379.48 523.799 379.841 523.566 380.25C523.334 380.659 523.188 381.108 523.135 381.571C523.029 382.508 523.312 383.447 523.921 384.182C524.531 384.917 525.417 385.388 526.385 385.492C527.354 385.594 528.325 385.321 529.085 384.732C529.845 384.142 530.333 383.285 530.44 382.349C530.493 381.885 530.451 381.415 530.316 380.967C530.181 380.519 529.957 380.101 529.654 379.737C529.352 379.373 528.979 379.07 528.556 378.846C528.132 378.621 527.668 378.48 527.188 378.43ZM466.548 119.301C466.636 119.362 466.736 119.406 466.842 119.43C466.948 119.454 467.058 119.458 467.165 119.441C467.272 119.424 467.375 119.387 467.468 119.332C467.56 119.276 467.641 119.204 467.704 119.119C467.768 119.033 467.813 118.937 467.838 118.834C467.863 118.732 467.867 118.626 467.85 118.522C467.832 118.418 467.794 118.319 467.736 118.229C467.679 118.14 467.604 118.062 467.516 118.001L461.551 113.846C461.462 113.785 461.362 113.741 461.256 113.716C461.15 113.692 461.04 113.689 460.933 113.706C460.826 113.723 460.723 113.76 460.63 113.815C460.538 113.871 460.457 113.943 460.394 114.029C460.33 114.114 460.285 114.211 460.26 114.313C460.235 114.416 460.231 114.522 460.249 114.626C460.266 114.73 460.305 114.829 460.362 114.919C460.419 115.008 460.494 115.086 460.583 115.148L466.548 119.301ZM436.493 154.051C437.083 154.194 437.701 154.186 438.287 154.029C438.874 153.871 439.408 153.569 439.837 153.153C440.266 152.736 440.576 152.218 440.737 151.651C440.897 151.083 440.903 150.485 440.752 149.915C440.598 149.326 440.282 148.789 439.838 148.36C439.393 147.931 438.837 147.627 438.228 147.479C437.638 147.334 437.019 147.341 436.433 147.497C435.846 147.653 435.311 147.954 434.881 148.371C434.451 148.787 434.14 149.304 433.979 149.872C433.818 150.439 433.812 151.037 433.962 151.608C434.26 152.794 435.266 153.765 436.493 154.051ZM507.493 152.634C507.582 152.695 507.681 152.739 507.787 152.763C507.893 152.787 508.003 152.791 508.11 152.774C508.217 152.757 508.32 152.719 508.412 152.664C508.505 152.609 508.585 152.536 508.649 152.451C508.712 152.366 508.757 152.269 508.782 152.167C508.807 152.064 508.811 151.958 508.793 151.854C508.776 151.751 508.737 151.651 508.68 151.562C508.623 151.473 508.548 151.395 508.46 151.334L502.493 147.177C502.314 147.053 502.092 147.003 501.875 147.037C501.658 147.071 501.464 147.188 501.336 147.36C501.207 147.533 501.155 147.748 501.191 147.957C501.226 148.167 501.346 148.355 501.525 148.479L507.492 152.634H507.493ZM553.235 171.962C554.164 171.961 555.054 171.603 555.71 170.967C556.366 170.33 556.733 169.468 556.732 168.57C556.73 167.672 556.36 166.811 555.702 166.177C555.044 165.543 554.153 165.187 553.224 165.189C552.764 165.19 552.309 165.278 551.884 165.449C551.459 165.62 551.074 165.87 550.749 166.185C550.093 166.821 549.726 167.683 549.727 168.581C549.729 169.479 550.099 170.34 550.757 170.974C551.415 171.609 552.306 171.964 553.235 171.962ZM294.508 399.491C294.444 399.576 294.398 399.673 294.373 399.775C294.348 399.878 294.344 399.984 294.361 400.087C294.379 400.191 294.417 400.291 294.474 400.38C294.532 400.47 294.607 400.547 294.695 400.608L300.66 404.765C300.839 404.889 301.06 404.939 301.277 404.905C301.494 404.871 301.687 404.756 301.816 404.583C301.944 404.411 301.996 404.197 301.961 403.987C301.926 403.778 301.806 403.59 301.628 403.466L295.663 399.31C295.575 399.248 295.475 399.203 295.37 399.179C295.264 399.154 295.154 399.15 295.046 399.167C294.939 399.184 294.836 399.221 294.743 399.277C294.651 399.333 294.571 399.405 294.508 399.491ZM275.851 439.992C275.261 439.848 274.643 439.855 274.056 440.011C273.47 440.168 272.935 440.469 272.505 440.885C272.075 441.301 271.764 441.818 271.603 442.385C271.442 442.953 271.435 443.551 271.585 444.121C271.883 445.307 272.889 446.28 274.116 446.564C274.706 446.708 275.325 446.701 275.911 446.544C276.498 446.387 277.033 446.085 277.462 445.668C277.892 445.251 278.202 444.733 278.363 444.165C278.523 443.597 278.528 442.999 278.377 442.429C278.223 441.84 277.907 441.302 277.462 440.873C277.017 440.444 276.46 440.14 275.851 439.992ZM85.3446 134.895C85.5231 135.019 85.7453 135.07 85.9625 135.036C86.1796 135.002 86.3738 134.885 86.5024 134.713C86.631 134.54 86.6834 134.325 86.6481 134.115C86.6128 133.905 86.4927 133.718 86.3143 133.593L80.3473 129.439C80.1688 129.315 79.9466 129.264 79.7297 129.298C79.5127 129.333 79.3187 129.449 79.1903 129.621C79.062 129.794 79.0098 130.009 79.0452 130.219C79.0806 130.428 79.2008 130.616 79.3793 130.74L85.3446 134.895ZM58.7998 176.694C59.39 176.838 60.0089 176.831 60.5956 176.674C61.1823 176.517 61.7167 176.215 62.1465 175.798C62.5762 175.381 62.8864 174.863 63.0468 174.295C63.2071 173.728 63.2121 173.129 63.0612 172.559C62.9071 171.97 62.5909 171.432 62.1461 171.003C61.7013 170.574 61.1446 170.27 60.5352 170.122C59.9453 169.978 59.3268 169.985 58.7404 170.141C58.1539 170.298 57.6195 170.599 57.1894 171.015C56.7594 171.431 56.4485 171.948 56.2871 172.516C56.1257 173.083 56.1194 173.681 56.2688 174.251C56.5671 175.437 57.5732 176.409 58.7998 176.694ZM116.174 107.781C116.634 107.78 117.089 107.692 117.514 107.521C117.938 107.35 118.324 107.099 118.649 106.784C118.973 106.469 119.231 106.095 119.406 105.684C119.581 105.273 119.671 104.832 119.67 104.388C119.669 103.943 119.577 103.503 119.401 103.092C119.224 102.681 118.965 102.309 118.639 101.995C118.313 101.681 117.927 101.432 117.502 101.263C117.076 101.093 116.621 101.006 116.161 101.007C115.232 101.009 114.342 101.367 113.686 102.004C113.031 102.64 112.663 103.502 112.665 104.4C112.667 105.299 113.038 106.159 113.696 106.793C114.354 107.427 115.245 107.783 116.174 107.781ZM298.95 104.141C299.128 104.265 299.351 104.315 299.568 104.281C299.785 104.247 299.979 104.131 300.107 103.958C300.235 103.785 300.287 103.571 300.252 103.361C300.217 103.151 300.096 102.963 299.918 102.839L293.951 98.6846C293.772 98.5605 293.55 98.51 293.333 98.5443C293.116 98.5786 292.922 98.6948 292.794 98.8674C292.666 99.04 292.613 99.2548 292.649 99.4646C292.684 99.6744 292.804 99.862 292.983 99.9862L298.95 104.141ZM57.0395 287.152C59.5571 285.129 62.2988 283.382 65.2143 281.942C65.4103 281.846 65.5587 281.678 65.6268 281.476C65.6949 281.274 65.6771 281.053 65.5773 280.864C65.5279 280.77 65.4598 280.686 65.377 280.618C65.2942 280.549 65.1983 280.497 65.0947 280.465C64.8855 280.399 64.6578 280.416 64.4618 280.513C61.437 282.006 58.5925 283.819 55.9803 285.918C55.8111 286.053 55.7046 286.249 55.6842 286.46C55.6639 286.672 55.7313 286.883 55.8718 287.047C56.0122 287.21 56.2142 287.313 56.4332 287.333C56.6521 287.353 56.8702 287.288 57.0395 287.152ZM562.68 224.56C563.146 224.569 563.609 224.488 564.043 224.322C564.476 224.155 564.871 223.907 565.204 223.591C565.536 223.275 565.8 222.898 565.981 222.482C566.161 222.066 566.253 221.619 566.252 221.168C566.251 220.717 566.158 220.271 565.976 219.856C565.795 219.44 565.529 219.064 565.195 218.749C564.861 218.435 564.466 218.187 564.032 218.022C563.598 217.857 563.134 217.778 562.668 217.788C561.753 217.809 560.882 218.175 560.243 218.809C559.603 219.443 559.246 220.294 559.248 221.18C559.249 222.065 559.609 222.915 560.251 223.547C560.892 224.179 561.764 224.542 562.68 224.56ZM590.866 278.304C591.326 278.303 591.781 278.215 592.206 278.044C592.63 277.873 593.016 277.622 593.341 277.307C593.665 276.992 593.923 276.618 594.098 276.207C594.273 275.796 594.363 275.355 594.362 274.91C594.361 274.465 594.27 274.025 594.093 273.614C593.916 273.203 593.657 272.83 593.331 272.516C593.005 272.202 592.619 271.954 592.193 271.784C591.768 271.615 591.312 271.528 590.852 271.529C589.923 271.53 589.033 271.888 588.377 272.525C587.722 273.161 587.354 274.023 587.356 274.921C587.357 275.819 587.728 276.68 588.386 277.314C589.044 277.948 589.935 278.304 590.864 278.302L590.866 278.304ZM594.786 190.285C596.207 189.144 597.7 188.09 599.256 187.127C599.351 187.072 599.434 186.999 599.5 186.913C599.566 186.827 599.613 186.728 599.639 186.624C599.665 186.519 599.668 186.411 599.65 186.305C599.631 186.199 599.591 186.098 599.532 186.007C599.472 185.917 599.394 185.839 599.303 185.778C599.211 185.717 599.108 185.675 598.999 185.653C598.891 185.631 598.778 185.631 598.67 185.652C598.561 185.673 598.457 185.715 598.366 185.776C596.751 186.774 595.203 187.869 593.728 189.052C593.561 189.188 593.456 189.383 593.436 189.594C593.417 189.804 593.484 190.014 593.623 190.177C593.763 190.34 593.963 190.443 594.181 190.463C594.399 190.484 594.616 190.418 594.786 190.285ZM423.776 240.489C423.776 240.934 423.867 241.375 424.043 241.785C424.22 242.196 424.478 242.569 424.803 242.884C425.129 243.198 425.515 243.447 425.94 243.617C426.365 243.787 426.82 243.875 427.28 243.875C427.74 243.874 428.196 243.787 428.62 243.616C429.045 243.446 429.431 243.196 429.756 242.882C430.081 242.567 430.339 242.193 430.515 241.782C430.691 241.371 430.781 240.931 430.781 240.486C430.78 239.588 430.411 238.727 429.754 238.092C429.097 237.457 428.206 237.101 427.277 237.101C426.348 237.101 425.457 237.459 424.801 238.094C424.144 238.73 423.776 239.591 423.776 240.489ZM419.994 333.119C416.969 334.611 414.125 336.422 411.512 338.52C411.429 338.587 411.359 338.67 411.309 338.763C411.258 338.856 411.226 338.958 411.216 339.063C411.206 339.168 411.218 339.274 411.25 339.374C411.282 339.475 411.334 339.568 411.404 339.649C411.473 339.73 411.559 339.797 411.655 339.847C411.751 339.896 411.857 339.926 411.965 339.936C412.074 339.945 412.183 339.934 412.287 339.903C412.391 339.872 412.488 339.822 412.572 339.754C415.089 337.732 417.83 335.985 420.745 334.545C420.842 334.497 420.928 334.432 420.998 334.352C421.069 334.272 421.123 334.179 421.156 334.079C421.19 333.979 421.203 333.874 421.194 333.769C421.186 333.665 421.156 333.562 421.107 333.469C421.058 333.375 420.99 333.292 420.907 333.223C420.824 333.155 420.729 333.103 420.625 333.071C420.522 333.038 420.413 333.026 420.305 333.034C420.196 333.042 420.091 333.071 419.994 333.119ZM457.448 279.949C457.537 280.01 457.636 280.054 457.742 280.078C457.848 280.102 457.958 280.106 458.065 280.089C458.172 280.073 458.275 280.035 458.367 279.98C458.46 279.925 458.54 279.853 458.604 279.767C458.667 279.682 458.713 279.586 458.738 279.483C458.763 279.381 458.767 279.275 458.749 279.171C458.732 279.068 458.694 278.968 458.636 278.879C458.579 278.789 458.505 278.712 458.416 278.65L452.451 274.496C452.363 274.433 452.263 274.389 452.157 274.364C452.052 274.34 451.942 274.336 451.834 274.353C451.727 274.369 451.624 274.407 451.531 274.462C451.439 274.518 451.359 274.591 451.296 274.677C451.232 274.762 451.186 274.858 451.161 274.961C451.136 275.063 451.132 275.169 451.149 275.273C451.167 275.377 451.205 275.476 451.262 275.566C451.32 275.655 451.395 275.733 451.483 275.794L457.448 279.949ZM458.41 225.269C460.927 223.245 463.669 221.498 466.585 220.058C466.686 220.013 466.777 219.948 466.853 219.868C466.928 219.788 466.985 219.695 467.022 219.592C467.059 219.49 467.074 219.382 467.066 219.274C467.059 219.166 467.028 219.061 466.978 218.965C466.927 218.869 466.856 218.783 466.771 218.714C466.685 218.645 466.586 218.593 466.478 218.562C466.371 218.531 466.259 218.521 466.148 218.533C466.037 218.545 465.929 218.578 465.832 218.631C462.807 220.123 459.962 221.936 457.351 224.034C457.267 224.102 457.198 224.184 457.147 224.277C457.096 224.371 457.065 224.472 457.054 224.577C457.044 224.682 457.056 224.788 457.088 224.889C457.12 224.989 457.172 225.083 457.242 225.164C457.312 225.245 457.397 225.312 457.493 225.361C457.59 225.41 457.695 225.44 457.803 225.45C457.912 225.46 458.021 225.449 458.125 225.418C458.229 225.387 458.326 225.336 458.41 225.269Z" fill="#0E0B58"/>
</svg>
