<svg width="35" height="40" viewBox="0 0 35 40" fill="none" xmlns="http://www.w3.org/2000/svg">
<path d="M19.5564 20L25.8272 12.85C26.1018 12.5362 26.2561 12.1105 26.2561 11.6667C26.2561 11.2228 26.1018 10.7972 25.8272 10.4833C25.5526 10.1695 25.1801 9.99318 24.7918 9.99318C24.4034 9.99318 24.031 10.1695 23.7564 10.4833L17.5001 17.65L11.2439 10.4833C10.9692 10.1695 10.5968 9.99318 10.2084 9.99318C9.82008 9.99318 9.44763 10.1695 9.17302 10.4833C8.89841 10.7972 8.74414 11.2228 8.74414 11.6667C8.74414 12.1105 8.89841 12.5362 9.17302 12.85L15.4439 20L9.17302 27.15C8.90141 27.4623 8.74895 27.8847 8.74895 28.325C8.74895 28.7653 8.90141 29.1877 9.17302 29.5C9.44626 29.8104 9.81588 29.9847 10.2011 29.9847C10.5864 29.9847 10.956 29.8104 11.2293 29.5L17.5001 22.35L23.7564 29.5167C24.0296 29.8271 24.3992 30.0013 24.7845 30.0013C25.1698 30.0013 25.5394 29.8271 25.8126 29.5167C25.9493 29.3617 26.0578 29.1774 26.1318 28.9743C26.2059 28.7712 26.244 28.5534 26.244 28.3333C26.244 28.1133 26.2059 27.8955 26.1318 27.6924C26.0578 27.4893 25.9493 27.3049 25.8126 27.15L19.5564 20Z" fill="#6563FF"/>
</svg>
