<svg width="47" height="47" viewBox="0 0 47 47" fill="none" xmlns="http://www.w3.org/2000/svg">
<path d="M43.0834 21.5417C42.045 21.5405 41.0494 21.1274 40.3152 20.3932C39.5809 19.6589 39.1679 18.6634 39.1667 17.625V11.75C39.1645 9.67314 38.3385 7.68199 36.8699 6.21343C35.4014 4.74488 33.4102 3.91887 31.3334 3.91666C30.814 3.91666 30.3159 4.12298 29.9486 4.49024C29.5814 4.8575 29.375 5.35561 29.375 5.87499C29.375 6.39437 29.5814 6.89248 29.9486 7.25974C30.3159 7.627 30.814 7.83332 31.3334 7.83332C32.3718 7.83451 33.3673 8.24754 34.1016 8.9818C34.8358 9.71606 35.2489 10.7116 35.25 11.75V17.625C35.2537 18.7411 35.4972 19.8433 35.9643 20.857C36.4313 21.8706 37.1109 22.772 37.9568 23.5C37.1109 24.228 36.4313 25.1293 35.9643 26.143C35.4972 27.1567 35.2537 28.2589 35.25 29.375V35.25C35.2489 36.2884 34.8358 37.2839 34.1016 38.0182C33.3673 38.7524 32.3718 39.1655 31.3334 39.1667C30.814 39.1667 30.3159 39.373 29.9486 39.7402C29.5814 40.1075 29.375 40.6056 29.375 41.125C29.375 41.6444 29.5814 42.1425 29.9486 42.5097C30.3159 42.877 30.814 43.0833 31.3334 43.0833C33.4102 43.0811 35.4014 42.2551 36.8699 40.7865C38.3385 39.318 39.1645 37.3268 39.1667 35.25V29.375C39.1679 28.3366 39.5809 27.3411 40.3152 26.6068C41.0494 25.8725 42.045 25.4595 43.0834 25.4583C43.6028 25.4583 44.1009 25.252 44.4681 24.8847C44.8354 24.5175 45.0417 24.0194 45.0417 23.5C45.0417 22.9806 44.8354 22.4825 44.4681 22.1152C44.1009 21.748 43.6028 21.5417 43.0834 21.5417ZM11.75 17.625V11.75C11.7512 10.7116 12.1643 9.71606 12.8985 8.9818C13.6328 8.24754 14.6283 7.83451 15.6667 7.83332C16.1861 7.83332 16.6842 7.627 17.0515 7.25974C17.4187 6.89248 17.625 6.39437 17.625 5.87499C17.625 5.35561 17.4187 4.8575 17.0515 4.49024C16.6842 4.12298 16.1861 3.91666 15.6667 3.91666C13.5899 3.91887 11.5987 4.74488 10.1301 6.21343C8.66159 7.68199 7.83559 9.67314 7.83337 11.75V17.625C7.83219 18.6634 7.41916 19.6589 6.6849 20.3932C5.95064 21.1274 4.95511 21.5405 3.91671 21.5417C3.39732 21.5417 2.89922 21.748 2.53196 22.1152C2.1647 22.4825 1.95837 22.9806 1.95837 23.5C1.95837 24.0194 2.1647 24.5175 2.53196 24.8847C2.89922 25.252 3.39732 25.4583 3.91671 25.4583C4.95511 25.4595 5.95064 25.8725 6.6849 26.6068C7.41916 27.3411 7.83219 28.3366 7.83337 29.375V35.25C7.83559 37.3268 8.66159 39.318 10.1301 40.7865C11.5987 42.2551 13.5899 43.0811 15.6667 43.0833C16.1861 43.0833 16.6842 42.877 17.0515 42.5097C17.4187 42.1425 17.625 41.6444 17.625 41.125C17.625 40.6056 17.4187 40.1075 17.0515 39.7402C16.6842 39.373 16.1861 39.1667 15.6667 39.1667C14.6283 39.1655 13.6328 38.7524 12.8985 38.0182C12.1643 37.2839 11.7512 36.2884 11.75 35.25V29.375C11.7464 28.2589 11.5028 27.1567 11.0358 26.143C10.5688 25.1293 9.88923 24.228 9.04323 23.5C9.88923 22.772 10.5688 21.8706 11.0358 20.857C11.5028 19.8433 11.7464 18.7411 11.75 17.625Z" fill="#6563FF"/>
</svg>
