<svg width="47" height="47" viewBox="0 0 47 47" fill="none" xmlns="http://www.w3.org/2000/svg">
<path d="M31.3333 19.5833H15.6666C13.5891 19.5833 11.5966 18.758 10.1276 17.289C8.65855 15.82 7.83325 13.8275 7.83325 11.75V23.5C7.83533 25.5769 8.66129 27.5681 10.1299 29.0367C11.5985 30.5053 13.5897 31.3313 15.6666 31.3333H31.3333C33.4101 31.3313 35.4014 30.5053 36.87 29.0367C38.3386 27.5681 39.1645 25.5769 39.1666 23.5V11.75C39.1666 13.8275 38.3413 15.82 36.8723 17.289C35.4032 18.758 33.4108 19.5833 31.3333 19.5833Z" fill="#D8D8FF"/>
<path d="M31.3333 31.3333H15.6666C13.5897 31.3313 11.5985 30.5053 10.1299 29.0367C8.66129 27.5681 7.83533 25.5769 7.83325 23.5V35.25C7.83533 37.3269 8.66129 39.3181 10.1299 40.7867C11.5985 42.2553 13.5897 43.0813 15.6666 43.0833H31.3333C33.4101 43.0813 35.4014 42.2553 36.87 40.7867C38.3386 39.3181 39.1645 37.3269 39.1666 35.25V23.5C39.1645 25.5769 38.3386 27.5681 36.87 29.0367C35.4014 30.5053 33.4101 31.3313 31.3333 31.3333Z" fill="#B2B1FF"/>
<path d="M31.3333 19.5833H15.6666C13.5891 19.5833 11.5966 18.758 10.1276 17.289C8.65855 15.82 7.83325 13.8275 7.83325 11.75C7.83325 9.67246 8.65855 7.68002 10.1276 6.21099C11.5966 4.74195 13.5891 3.91666 15.6666 3.91666H31.3333C33.4108 3.91666 35.4032 4.74195 36.8723 6.21099C38.3413 7.68002 39.1666 9.67246 39.1666 11.75C39.1666 13.8275 38.3413 15.82 36.8723 17.289C35.4032 18.758 33.4108 19.5833 31.3333 19.5833Z" fill="#B2B1FF"/>
<path d="M15.6666 27.4167C16.7481 27.4167 17.6249 26.5399 17.6249 25.4583C17.6249 24.3768 16.7481 23.5 15.6666 23.5C14.585 23.5 13.7083 24.3768 13.7083 25.4583C13.7083 26.5399 14.585 27.4167 15.6666 27.4167Z" fill="#6563FF"/>
<path d="M15.6666 39.1667C16.7481 39.1667 17.6249 38.2899 17.6249 37.2083C17.6249 36.1268 16.7481 35.25 15.6666 35.25C14.585 35.25 13.7083 36.1268 13.7083 37.2083C13.7083 38.2899 14.585 39.1667 15.6666 39.1667Z" fill="#6563FF"/>
</svg>
