<svg width="47" height="47" viewBox="0 0 47 47" fill="none" xmlns="http://www.w3.org/2000/svg">
<g clip-path="url(#clip0_9_2)">
<path d="M41.6367 16.8905C51.5105 25.1889 30.5026 40.8953 21.1879 32.0094C9.00204 20.3787 2.3595 29.0352 2.3595 16.3672C2.3595 3.69925 4.1599 6.9305 17.9662 1.24827C30.0004 -3.69958 29.792 6.93968 41.6367 16.8905Z" fill="#79A1E8"/>
<path d="M46.6021 30.7428C46.6021 32.1564 45.4176 33.3039 43.9583 33.3039H40.945C39.4857 33.3039 38.3013 32.1564 38.3013 30.7428V8.84003C38.3013 7.42636 39.4857 6.2789 40.945 6.2789H43.9583C45.4176 6.2789 46.6021 7.42636 46.6021 8.84003V30.7428Z" fill="#7693DD"/>
<path d="M44.3846 8.74824C44.3846 7.38965 43.2475 6.28809 41.8451 6.28809H12.8397C11.4373 6.28809 10.2717 7.38965 10.2717 8.74824V24.8219H44.3846V8.74824Z" fill="white"/>
<path d="M10.2717 24.8127V30.8162C10.2717 32.1748 11.4373 33.3039 12.8397 33.3039H41.8451C43.2475 33.3039 44.3846 32.1748 44.3846 30.8162V24.8127H10.2717Z" fill="white"/>
<path d="M38.1212 24.8127L29.3561 33.3039H41.8452C43.2476 33.3039 44.3847 32.1748 44.3847 30.8162V24.8127H38.1212Z" fill="#CFDDF7"/>
<path d="M27.3471 29.6779C28.1217 29.6779 28.7495 29.0697 28.7495 28.3193C28.7495 27.569 28.1217 26.9608 27.3471 26.9608C26.5726 26.9608 25.9447 27.569 25.9447 28.3193C25.9447 29.0697 26.5726 29.6779 27.3471 29.6779Z" fill="white"/>
<path d="M27.3472 30.0543C26.3522 30.0543 25.5468 29.274 25.5468 28.3102C25.5468 27.3463 26.3522 26.566 27.3472 26.566C28.3421 26.566 29.1476 27.3463 29.1476 28.3102C29.1476 29.274 28.3326 30.0543 27.3472 30.0543ZM27.3472 27.3371C26.7881 27.3371 26.3332 27.7777 26.3332 28.3193C26.3332 28.8609 26.7881 29.3016 27.3472 29.3016C27.9062 29.3016 28.3611 28.8609 28.3611 28.3193C28.3611 27.7777 27.9062 27.3371 27.3472 27.3371Z" fill="#4B31AA"/>
<path d="M34.8236 38.1049H25.9922L25.0541 33.3039H33.8855L34.8236 38.1049Z" fill="white"/>
<path d="M33.0137 38.1049H22.0123L23.2537 33.3039H32.0851L33.0137 38.1049Z" fill="#D7ECF9"/>
<path d="M37.3347 38.7842C37.3347 38.4078 36.9082 38.1049 36.3776 38.1049H19.6149C19.0842 38.1049 18.6578 38.4078 18.6578 38.7842C18.6578 39.1606 19.0842 39.4635 19.6149 39.4635H36.3776C36.8988 39.4635 37.3347 39.1606 37.3347 38.7842Z" fill="white"/>
<path d="M44.3847 8.74824C44.3847 7.38965 43.2476 6.28809 41.8452 6.28809H38.8698L21.1027 24.8127H44.3847V8.74824Z" fill="#CFDDF7"/>
<path d="M12.1953 8.03223H42.6695V24.6016H12.1953V8.03223Z" fill="#79A1E8"/>
<path d="M21.311 24.6016H42.6695V8.03223H37.1925L21.311 24.6016Z" fill="#5E8BCC"/>
<path d="M42.6695 24.9871H12.1953C11.9774 24.9871 11.7974 24.8127 11.7974 24.6016V8.03221C11.7974 7.82108 11.9774 7.64667 12.1953 7.64667H42.6695C42.8875 7.64667 43.058 7.82108 43.058 8.03221V24.6016C43.0675 24.8127 42.8875 24.9871 42.6695 24.9871ZM12.5839 24.2252H42.2716V8.40858H12.5839V24.2252Z" fill="#4B31AA"/>
<path d="M30.8721 17.9371H15.1423C14.9243 17.9371 14.7538 17.7627 14.7538 17.5516C14.7538 17.3404 14.9338 17.166 15.1423 17.166H30.8721C31.0901 17.166 31.2606 17.3404 31.2606 17.5516C31.2606 17.7627 31.0901 17.9371 30.8721 17.9371Z" fill="#F7931E"/>
<path d="M30.8721 17.9371C31.0901 17.9371 31.2607 17.7627 31.2607 17.5516C31.2607 17.3404 31.0806 17.166 30.8721 17.166H28.4274L27.6978 17.9279L30.8721 17.9371Z" fill="#D87819"/>
<path d="M30.8721 20.3146H15.1423C14.9243 20.3146 14.7538 20.1402 14.7538 19.9291C14.7538 19.718 14.9338 19.5435 15.1423 19.5435H30.8721C31.0901 19.5435 31.2606 19.718 31.2606 19.9291C31.2606 20.1402 31.0901 20.3146 30.8721 20.3146ZM30.8721 22.7014H15.1423C14.9243 22.7014 14.7538 22.5269 14.7538 22.3158C14.7538 22.1047 14.9338 21.9303 15.1423 21.9303H30.8721C31.0901 21.9303 31.2606 22.1047 31.2606 22.3158C31.2606 22.5269 31.0901 22.7014 30.8721 22.7014Z" fill="#4B31AA"/>
<path d="M15.1423 10.8871H39.7226V15.6514H15.1423V10.8871Z" fill="#F9D015"/>
<path d="M29.8867 15.6514H39.7226V10.8871H34.4541L29.8867 15.6514Z" fill="#D6AF0D"/>
<path d="M39.7225 16.0277H15.1423C14.9243 16.0277 14.7538 15.8533 14.7538 15.6422V10.8779C14.7538 10.6668 14.9338 10.4924 15.1423 10.4924H39.7225C39.9405 10.4924 40.111 10.6668 40.111 10.8779V15.6422C40.111 15.8625 39.9405 16.0277 39.7225 16.0277ZM15.5308 15.2658H39.3245V11.2635H15.5308V15.2658Z" fill="#4B31AA"/>
<path d="M32.8336 17.5516H39.7131V22.3158H32.8336V17.5516Z" fill="#CFDDF7"/>
<path d="M39.7225 22.7014H32.8431C32.6252 22.7014 32.4546 22.527 32.4546 22.3158V17.5516C32.4546 17.3404 32.6346 17.166 32.8431 17.166H39.7225C39.9405 17.166 40.111 17.3404 40.111 17.5516V22.3158C40.111 22.527 39.9405 22.7014 39.7225 22.7014ZM33.2316 21.9395H39.3245V17.9371H33.2316V21.9395Z" fill="#4B31AA"/>
<path d="M12.8397 5.90253C11.2099 5.90253 9.87378 7.1785 9.87378 8.74823V30.8254C9.87378 32.4043 11.2004 33.6894 12.8397 33.6894H22.7419L21.6996 37.7193H19.6149C18.8568 37.7193 18.2599 38.1875 18.2599 38.7842C18.2599 39.3808 18.8568 39.849 19.6149 39.849H36.3776C37.1357 39.849 37.7326 39.3808 37.7326 38.7842C37.7326 38.1875 37.1357 37.7193 36.3776 37.7193H35.1552L34.3687 33.6894H43.9677C45.6449 33.6894 47 32.3676 47 30.7519V8.84003C47 7.21522 45.6355 5.90253 43.9677 5.90253H12.8397ZM10.6697 8.74823C10.6697 7.60077 11.6458 6.66444 12.8492 6.66444H41.8546C43.0391 6.66444 44.0056 7.60077 44.0056 8.74823V24.4363H10.6697V8.74823ZM23.5568 33.6894H31.7534L32.5399 37.7193H22.524L23.5568 33.6894ZM36.9367 38.7842C36.9367 38.9035 36.7187 39.0871 36.3681 39.0871H19.6149C19.2643 39.0871 19.0464 38.9127 19.0464 38.7842C19.0464 38.6557 19.2643 38.4812 19.6149 38.4812H36.3776C36.7187 38.4812 36.9367 38.6557 36.9367 38.7842ZM34.3498 37.7193H33.3454L32.5589 33.6894H33.5633L34.3498 37.7193ZM12.8397 32.9275C11.6647 32.9275 10.6603 31.9637 10.6603 30.8254V25.2074H43.9867V30.8254C43.9867 31.982 43.0201 32.9275 41.8357 32.9275H12.8397ZM46.2135 30.7428C46.2135 31.9453 45.2091 32.9183 43.9677 32.9183H43.8445C44.4226 32.3951 44.7921 31.6424 44.7921 30.8162V8.74823C44.7921 7.93124 44.432 7.18768 43.854 6.66444H43.9677C45.2091 6.66444 46.2135 7.63749 46.2135 8.84003V30.7428Z" fill="#4B31AA"/>
<path d="M17.1702 40.4182H3.07963C2.35947 40.4182 1.77197 39.849 1.77197 39.1514V19.7822C1.77197 19.0846 2.35947 18.5154 3.07963 18.5154H17.1702C17.8903 18.5154 18.4778 19.0846 18.4778 19.7822V39.1514C18.4873 39.849 17.8998 40.4182 17.1702 40.4182Z" fill="#7693DD"/>
<path d="M15.7961 40.4182H1.70561C0.985449 40.4182 0.397949 39.849 0.397949 39.1514V19.7822C0.397949 19.0846 0.985449 18.5154 1.70561 18.5154H15.7961C16.5163 18.5154 17.1038 19.0846 17.1038 19.7822V39.1514C17.1038 39.849 16.5163 40.4182 15.7961 40.4182Z" fill="white"/>
<path d="M0.397949 38.9861V39.1422C0.397949 39.8398 0.985449 40.409 1.70561 40.409H15.7961C16.5163 40.409 17.1038 39.8398 17.1038 39.1422V22.7932L0.397949 38.9861Z" fill="#CFDDF7"/>
<path d="M2.3595 20.4156H15.1424V37.5633H2.3595V20.4156Z" fill="#7693DD"/>
<path d="M2.3595 37.0768V37.5541H15.1424V24.7025L2.3595 37.0768Z" fill="#6382C9"/>
<path d="M15.1423 37.9397H2.35946C2.14151 37.9397 1.97095 37.7652 1.97095 37.5541V20.4156C1.97095 20.2045 2.15099 20.0301 2.35946 20.0301H15.1423C15.3603 20.0301 15.5308 20.2045 15.5308 20.4156V37.5541C15.5308 37.7652 15.3603 37.9397 15.1423 37.9397ZM2.75744 37.1777H14.7538V20.792H2.75744V37.1777Z" fill="#4B31AA"/>
<path d="M8.94519 27.2178H13.8631V30.7611H8.94519V27.2178Z" fill="white"/>
<path d="M8.94519 30.752H13.8631V27.2178H12.546L8.94519 30.6969V30.752Z" fill="#CFDDF7"/>
<path d="M13.863 31.1375H8.9451C8.72716 31.1375 8.54712 30.9631 8.54712 30.752V27.2086C8.54712 26.9975 8.72716 26.8231 8.9451 26.8231H13.863C14.081 26.8231 14.2516 26.9975 14.2516 27.2086V30.752C14.2516 30.9631 14.081 31.1375 13.863 31.1375ZM9.34309 30.3756H13.4745V27.5942H9.34309V30.3756Z" fill="#4B31AA"/>
<path d="M7.27737 28.0348H3.93241C3.71446 28.0348 3.53442 27.8604 3.53442 27.6492C3.53442 27.4381 3.71446 27.2637 3.93241 27.2637H7.27737C7.49531 27.2637 7.67535 27.4381 7.67535 27.6492C7.67535 27.8604 7.49531 28.0348 7.27737 28.0348Z" fill="#F7931E"/>
<path d="M7.27737 29.4576H3.93241C3.71446 29.4576 3.53442 29.2832 3.53442 29.0721C3.53442 28.8609 3.71446 28.6865 3.93241 28.6865H7.27737C7.49531 28.6865 7.67535 28.8609 7.67535 29.0721C7.66588 29.2924 7.49531 29.4576 7.27737 29.4576ZM7.27737 30.8896H3.93241C3.71446 30.8896 3.53442 30.7152 3.53442 30.5041C3.53442 30.293 3.71446 30.1186 3.93241 30.1186H7.27737C7.49531 30.1186 7.67535 30.293 7.67535 30.5041C7.66588 30.7152 7.49531 30.8896 7.27737 30.8896ZM12.1953 33.1754H3.93241C3.71446 33.1754 3.53442 33.001 3.53442 32.7898C3.53442 32.5787 3.71446 32.4043 3.93241 32.4043H12.1953C12.4133 32.4043 12.5838 32.5787 12.5838 32.7898C12.5838 33.001 12.4133 33.1754 12.1953 33.1754ZM12.1953 34.6074H3.93241C3.71446 34.6074 3.53442 34.433 3.53442 34.2219C3.53442 34.0107 3.71446 33.8363 3.93241 33.8363H12.1953C12.4133 33.8363 12.5838 34.0107 12.5838 34.2219C12.5838 34.433 12.4133 34.6074 12.1953 34.6074ZM12.1953 36.0303H3.93241C3.71446 36.0303 3.53442 35.8559 3.53442 35.6447C3.53442 35.4336 3.71446 35.2592 3.93241 35.2592H12.1953C12.4133 35.2592 12.5838 35.4336 12.5838 35.6447C12.5838 35.8559 12.4133 36.0303 12.1953 36.0303Z" fill="#4B31AA"/>
<path d="M3.68604 21.9395H13.8157V25.749H3.68604V21.9395Z" fill="#F9D015"/>
<path d="M13.8157 26.1254H3.68607C3.46813 26.1254 3.28809 25.951 3.28809 25.7399V21.9303C3.28809 21.7192 3.46813 21.5447 3.68607 21.5447H13.8157C14.0337 21.5447 14.2042 21.7192 14.2042 21.9303V25.7399C14.2042 25.9602 14.0337 26.1254 13.8157 26.1254ZM4.08405 25.3635H13.4272V22.3158H4.08405V25.3635Z" fill="#4B31AA"/>
<path d="M17.1702 18.1299H1.70565C0.76754 18.1299 0 18.8734 0 19.7822V39.1514C0 40.0602 0.76754 40.8037 1.70565 40.8037H17.1702C18.1083 40.8037 18.8758 40.0602 18.8758 39.1514V19.7822C18.8758 18.8643 18.1083 18.1299 17.1702 18.1299ZM0.786492 39.1422V19.773C0.786492 19.2865 1.19395 18.8826 1.70565 18.8826H15.7962C16.2984 18.8826 16.7153 19.2773 16.7153 19.773V39.1422C16.7153 39.6287 16.3079 40.0326 15.7962 40.0326H1.70565C1.19395 40.0326 0.786492 39.6379 0.786492 39.1422ZM18.0893 39.1422C18.0893 39.6104 17.7103 39.9959 17.227 40.0326C17.3976 39.7756 17.4923 39.4727 17.4923 39.1422V19.773C17.4923 19.4426 17.3976 19.1396 17.227 18.8826C17.7008 18.9102 18.0893 19.2957 18.0893 19.773V39.1422Z" fill="#4B31AA"/>
<path d="M27.5367 42.6305C33.2933 42.6305 37.9601 42.2359 37.9601 41.7492C37.9601 41.2625 33.2933 40.868 27.5367 40.868C21.78 40.868 17.1133 41.2625 17.1133 41.7492C17.1133 42.2359 21.78 42.6305 27.5367 42.6305Z" fill="#473CBA"/>
<path d="M8.93563 42.9885C13.206 42.9885 16.6679 42.7131 16.6679 42.3734C16.6679 42.0338 13.206 41.7584 8.93563 41.7584C4.66522 41.7584 1.20337 42.0338 1.20337 42.3734C1.20337 42.7131 4.66522 42.9885 8.93563 42.9885Z" fill="#473CBA"/>
<path d="M17.5965 47C20.2865 47 22.4671 46.6794 22.4671 46.284C22.4671 45.8885 20.2865 45.568 17.5965 45.568C14.9066 45.568 12.726 45.8885 12.726 46.284C12.726 46.6794 14.9066 47 17.5965 47Z" fill="#473CBA"/>
<path d="M21.9459 43.2731H15.0286C14.3084 43.2731 13.7209 42.7039 13.7209 42.0063V29.1455C13.7209 28.4479 14.3084 27.8787 15.0286 27.8787H21.9459C22.6661 27.8787 23.2536 28.4479 23.2536 29.1455V42.0063C23.2536 42.7039 22.6661 43.2731 21.9459 43.2731Z" fill="#79A1E8"/>
<path d="M20.7141 43.2731H13.7968C13.0766 43.2731 12.4891 42.7039 12.4891 42.0063V29.1455C12.4891 28.4479 13.0766 27.8787 13.7968 27.8787H20.7141C21.4343 27.8787 22.0218 28.4479 22.0218 29.1455V42.0063C22.0218 42.7039 21.4343 43.2731 20.7141 43.2731Z" fill="#E1F0FA"/>
<path d="M12.4891 40.6018V41.9971C12.4891 42.6947 13.0766 43.2639 13.7968 43.2639H20.7141C21.4343 43.2639 22.0218 42.6947 22.0218 41.9971V31.367L12.4891 40.6018Z" fill="#CFDDF7"/>
<path d="M13.8157 29.3842H20.6951V40.8129H13.8157V29.3842Z" fill="#7693DD"/>
<path d="M13.8157 39.3166V40.8129H20.6951V32.6522L13.8157 39.3166Z" fill="#6382C9"/>
<path d="M20.6952 41.1893H13.8158C13.5978 41.1893 13.4272 41.0148 13.4272 40.8037V29.3842C13.4272 29.173 13.6073 28.9986 13.8158 28.9986H20.6952C20.9131 28.9986 21.0837 29.173 21.0837 29.3842V40.8129C21.0932 41.024 20.9131 41.1893 20.6952 41.1893ZM14.2043 40.4273H20.2972V29.7605H14.2043V40.4273Z" fill="#4B31AA"/>
<path d="M15.2371 30.9355H19.1695V34.0291H15.2371V30.9355Z" fill="#F9D015"/>
<path d="M19.1696 34.4055H15.2371C15.0192 34.4055 14.8486 34.2311 14.8486 34.0199V30.9264C14.8486 30.7152 15.0287 30.5408 15.2371 30.5408H19.1696C19.3875 30.5408 19.5581 30.7152 19.5581 30.9264V34.0199C19.5676 34.2402 19.3875 34.4055 19.1696 34.4055ZM15.6351 33.6436H18.7811V31.3119H15.6351V33.6436Z" fill="#4B31AA"/>
<path d="M19.1696 36.1772H15.2371C15.0192 36.1772 14.8486 36.0027 14.8486 35.7916C14.8486 35.5805 15.0287 35.4061 15.2371 35.4061H19.1696C19.3875 35.4061 19.5581 35.5805 19.5581 35.7916C19.5581 36.0027 19.3875 36.1772 19.1696 36.1772Z" fill="#F7931E"/>
<path d="M19.1695 36.1772C19.3874 36.1772 19.558 36.0027 19.558 35.7916C19.558 35.5805 19.378 35.4061 19.1695 35.4061H17.8429L17.0564 36.1772H19.1695Z" fill="#D87819"/>
<path d="M19.1696 37.6H15.2371C15.0192 37.6 14.8486 37.4256 14.8486 37.2145C14.8486 37.0033 15.0287 36.8289 15.2371 36.8289H19.1696C19.3875 36.8289 19.5581 37.0033 19.5581 37.2145C19.5581 37.4256 19.3875 37.6 19.1696 37.6ZM19.1696 39.032H15.2371C15.0192 39.032 14.8486 38.8576 14.8486 38.6465C14.8486 38.4354 15.0287 38.261 15.2371 38.261H19.1696C19.3875 38.261 19.5581 38.4354 19.5581 38.6465C19.5581 38.8576 19.3875 39.032 19.1696 39.032Z" fill="#4B31AA"/>
<path d="M21.946 27.4932H13.7968C12.8587 27.4932 12.0912 28.2367 12.0912 29.1455V42.0063C12.0912 42.915 12.8587 43.6586 13.7968 43.6586H21.9365C22.8747 43.6586 23.6422 42.915 23.6422 42.0063V29.1455C23.6422 28.2367 22.8841 27.4932 21.946 27.4932ZM13.7968 42.8875C13.2946 42.8875 12.8777 42.4928 12.8777 41.9971V29.1455C12.8777 28.659 13.2851 28.2551 13.7968 28.2551H20.7142C21.2164 28.2551 21.6333 28.6498 21.6333 29.1455V42.0063C21.6333 42.4928 21.2259 42.8967 20.7142 42.8967H13.7968V42.8875ZM22.8557 42.0063C22.8557 42.4193 22.562 42.7682 22.164 42.8691C22.3251 42.6213 22.4198 42.3275 22.4198 42.0063V29.1455C22.4198 28.8334 22.3251 28.5305 22.164 28.2826C22.562 28.3836 22.8557 28.7324 22.8557 29.1455V42.0063Z" fill="#4B31AA"/>
</g>
<defs>
<clipPath id="clip0_9_2">
<rect width="47" height="47" fill="white"/>
</clipPath>
</defs>
</svg>
